G04 #@! TF.GenerationSoftware,KiCad,Pcbnew,(5.1.5)-3*
G04 #@! TF.CreationDate,2020-01-28T18:53:24+01:00*
G04 #@! TF.ProjectId,CAN SPI Isolated v2.0,43414e20-5350-4492-9049-736f6c617465,rev?*
G04 #@! TF.SameCoordinates,Original*
G04 #@! TF.FileFunction,Soldermask,Bot*
G04 #@! TF.FilePolarity,Negative*
%FSLAX46Y46*%
G04 Gerber Fmt 4.6, Leading zero omitted, Abs format (unit mm)*
G04 Created by KiCad (PCBNEW (5.1.5)-3) date 2020-01-28 18:53:24*
%MOMM*%
%LPD*%
G04 APERTURE LIST*
%ADD10C,0.100000*%
G04 APERTURE END LIST*
D10*
G36*
X100443512Y-173093927D02*
G01*
X100592812Y-173123624D01*
X100756784Y-173191544D01*
X100904354Y-173290147D01*
X101029853Y-173415646D01*
X101128456Y-173563216D01*
X101196376Y-173727188D01*
X101231000Y-173901259D01*
X101231000Y-174078741D01*
X101196376Y-174252812D01*
X101128456Y-174416784D01*
X101029853Y-174564354D01*
X100904354Y-174689853D01*
X100756784Y-174788456D01*
X100592812Y-174856376D01*
X100443512Y-174886073D01*
X100418742Y-174891000D01*
X100241258Y-174891000D01*
X100216488Y-174886073D01*
X100067188Y-174856376D01*
X99903216Y-174788456D01*
X99755646Y-174689853D01*
X99630147Y-174564354D01*
X99531544Y-174416784D01*
X99463624Y-174252812D01*
X99429000Y-174078741D01*
X99429000Y-173901259D01*
X99463624Y-173727188D01*
X99531544Y-173563216D01*
X99630147Y-173415646D01*
X99755646Y-173290147D01*
X99903216Y-173191544D01*
X100067188Y-173123624D01*
X100216488Y-173093927D01*
X100241258Y-173089000D01*
X100418742Y-173089000D01*
X100443512Y-173093927D01*
G37*
G36*
X77583512Y-173093927D02*
G01*
X77732812Y-173123624D01*
X77896784Y-173191544D01*
X78044354Y-173290147D01*
X78169853Y-173415646D01*
X78268456Y-173563216D01*
X78336376Y-173727188D01*
X78371000Y-173901259D01*
X78371000Y-174078741D01*
X78336376Y-174252812D01*
X78268456Y-174416784D01*
X78169853Y-174564354D01*
X78044354Y-174689853D01*
X77896784Y-174788456D01*
X77732812Y-174856376D01*
X77583512Y-174886073D01*
X77558742Y-174891000D01*
X77381258Y-174891000D01*
X77356488Y-174886073D01*
X77207188Y-174856376D01*
X77043216Y-174788456D01*
X76895646Y-174689853D01*
X76770147Y-174564354D01*
X76671544Y-174416784D01*
X76603624Y-174252812D01*
X76569000Y-174078741D01*
X76569000Y-173901259D01*
X76603624Y-173727188D01*
X76671544Y-173563216D01*
X76770147Y-173415646D01*
X76895646Y-173290147D01*
X77043216Y-173191544D01*
X77207188Y-173123624D01*
X77356488Y-173093927D01*
X77381258Y-173089000D01*
X77558742Y-173089000D01*
X77583512Y-173093927D01*
G37*
G36*
X77583512Y-170553927D02*
G01*
X77732812Y-170583624D01*
X77896784Y-170651544D01*
X78044354Y-170750147D01*
X78169853Y-170875646D01*
X78268456Y-171023216D01*
X78336376Y-171187188D01*
X78371000Y-171361259D01*
X78371000Y-171538741D01*
X78336376Y-171712812D01*
X78268456Y-171876784D01*
X78169853Y-172024354D01*
X78044354Y-172149853D01*
X77896784Y-172248456D01*
X77732812Y-172316376D01*
X77583512Y-172346073D01*
X77558742Y-172351000D01*
X77381258Y-172351000D01*
X77356488Y-172346073D01*
X77207188Y-172316376D01*
X77043216Y-172248456D01*
X76895646Y-172149853D01*
X76770147Y-172024354D01*
X76671544Y-171876784D01*
X76603624Y-171712812D01*
X76569000Y-171538741D01*
X76569000Y-171361259D01*
X76603624Y-171187188D01*
X76671544Y-171023216D01*
X76770147Y-170875646D01*
X76895646Y-170750147D01*
X77043216Y-170651544D01*
X77207188Y-170583624D01*
X77356488Y-170553927D01*
X77381258Y-170549000D01*
X77558742Y-170549000D01*
X77583512Y-170553927D01*
G37*
G36*
X100443512Y-170553927D02*
G01*
X100592812Y-170583624D01*
X100756784Y-170651544D01*
X100904354Y-170750147D01*
X101029853Y-170875646D01*
X101128456Y-171023216D01*
X101196376Y-171187188D01*
X101231000Y-171361259D01*
X101231000Y-171538741D01*
X101196376Y-171712812D01*
X101128456Y-171876784D01*
X101029853Y-172024354D01*
X100904354Y-172149853D01*
X100756784Y-172248456D01*
X100592812Y-172316376D01*
X100443512Y-172346073D01*
X100418742Y-172351000D01*
X100241258Y-172351000D01*
X100216488Y-172346073D01*
X100067188Y-172316376D01*
X99903216Y-172248456D01*
X99755646Y-172149853D01*
X99630147Y-172024354D01*
X99531544Y-171876784D01*
X99463624Y-171712812D01*
X99429000Y-171538741D01*
X99429000Y-171361259D01*
X99463624Y-171187188D01*
X99531544Y-171023216D01*
X99630147Y-170875646D01*
X99755646Y-170750147D01*
X99903216Y-170651544D01*
X100067188Y-170583624D01*
X100216488Y-170553927D01*
X100241258Y-170549000D01*
X100418742Y-170549000D01*
X100443512Y-170553927D01*
G37*
G36*
X77583512Y-168013927D02*
G01*
X77732812Y-168043624D01*
X77896784Y-168111544D01*
X78044354Y-168210147D01*
X78169853Y-168335646D01*
X78268456Y-168483216D01*
X78336376Y-168647188D01*
X78371000Y-168821259D01*
X78371000Y-168998741D01*
X78336376Y-169172812D01*
X78268456Y-169336784D01*
X78169853Y-169484354D01*
X78044354Y-169609853D01*
X77896784Y-169708456D01*
X77732812Y-169776376D01*
X77583512Y-169806073D01*
X77558742Y-169811000D01*
X77381258Y-169811000D01*
X77356488Y-169806073D01*
X77207188Y-169776376D01*
X77043216Y-169708456D01*
X76895646Y-169609853D01*
X76770147Y-169484354D01*
X76671544Y-169336784D01*
X76603624Y-169172812D01*
X76569000Y-168998741D01*
X76569000Y-168821259D01*
X76603624Y-168647188D01*
X76671544Y-168483216D01*
X76770147Y-168335646D01*
X76895646Y-168210147D01*
X77043216Y-168111544D01*
X77207188Y-168043624D01*
X77356488Y-168013927D01*
X77381258Y-168009000D01*
X77558742Y-168009000D01*
X77583512Y-168013927D01*
G37*
G36*
X100443512Y-168013927D02*
G01*
X100592812Y-168043624D01*
X100756784Y-168111544D01*
X100904354Y-168210147D01*
X101029853Y-168335646D01*
X101128456Y-168483216D01*
X101196376Y-168647188D01*
X101231000Y-168821259D01*
X101231000Y-168998741D01*
X101196376Y-169172812D01*
X101128456Y-169336784D01*
X101029853Y-169484354D01*
X100904354Y-169609853D01*
X100756784Y-169708456D01*
X100592812Y-169776376D01*
X100443512Y-169806073D01*
X100418742Y-169811000D01*
X100241258Y-169811000D01*
X100216488Y-169806073D01*
X100067188Y-169776376D01*
X99903216Y-169708456D01*
X99755646Y-169609853D01*
X99630147Y-169484354D01*
X99531544Y-169336784D01*
X99463624Y-169172812D01*
X99429000Y-168998741D01*
X99429000Y-168821259D01*
X99463624Y-168647188D01*
X99531544Y-168483216D01*
X99630147Y-168335646D01*
X99755646Y-168210147D01*
X99903216Y-168111544D01*
X100067188Y-168043624D01*
X100216488Y-168013927D01*
X100241258Y-168009000D01*
X100418742Y-168009000D01*
X100443512Y-168013927D01*
G37*
G36*
X77583512Y-165473927D02*
G01*
X77732812Y-165503624D01*
X77896784Y-165571544D01*
X78044354Y-165670147D01*
X78169853Y-165795646D01*
X78268456Y-165943216D01*
X78336376Y-166107188D01*
X78371000Y-166281259D01*
X78371000Y-166458741D01*
X78336376Y-166632812D01*
X78268456Y-166796784D01*
X78169853Y-166944354D01*
X78044354Y-167069853D01*
X77896784Y-167168456D01*
X77732812Y-167236376D01*
X77583512Y-167266073D01*
X77558742Y-167271000D01*
X77381258Y-167271000D01*
X77356488Y-167266073D01*
X77207188Y-167236376D01*
X77043216Y-167168456D01*
X76895646Y-167069853D01*
X76770147Y-166944354D01*
X76671544Y-166796784D01*
X76603624Y-166632812D01*
X76569000Y-166458741D01*
X76569000Y-166281259D01*
X76603624Y-166107188D01*
X76671544Y-165943216D01*
X76770147Y-165795646D01*
X76895646Y-165670147D01*
X77043216Y-165571544D01*
X77207188Y-165503624D01*
X77356488Y-165473927D01*
X77381258Y-165469000D01*
X77558742Y-165469000D01*
X77583512Y-165473927D01*
G37*
G36*
X100443512Y-165473927D02*
G01*
X100592812Y-165503624D01*
X100756784Y-165571544D01*
X100904354Y-165670147D01*
X101029853Y-165795646D01*
X101128456Y-165943216D01*
X101196376Y-166107188D01*
X101231000Y-166281259D01*
X101231000Y-166458741D01*
X101196376Y-166632812D01*
X101128456Y-166796784D01*
X101029853Y-166944354D01*
X100904354Y-167069853D01*
X100756784Y-167168456D01*
X100592812Y-167236376D01*
X100443512Y-167266073D01*
X100418742Y-167271000D01*
X100241258Y-167271000D01*
X100216488Y-167266073D01*
X100067188Y-167236376D01*
X99903216Y-167168456D01*
X99755646Y-167069853D01*
X99630147Y-166944354D01*
X99531544Y-166796784D01*
X99463624Y-166632812D01*
X99429000Y-166458741D01*
X99429000Y-166281259D01*
X99463624Y-166107188D01*
X99531544Y-165943216D01*
X99630147Y-165795646D01*
X99755646Y-165670147D01*
X99903216Y-165571544D01*
X100067188Y-165503624D01*
X100216488Y-165473927D01*
X100241258Y-165469000D01*
X100418742Y-165469000D01*
X100443512Y-165473927D01*
G37*
G36*
X77583512Y-162933927D02*
G01*
X77732812Y-162963624D01*
X77896784Y-163031544D01*
X78044354Y-163130147D01*
X78169853Y-163255646D01*
X78268456Y-163403216D01*
X78336376Y-163567188D01*
X78371000Y-163741259D01*
X78371000Y-163918741D01*
X78336376Y-164092812D01*
X78268456Y-164256784D01*
X78169853Y-164404354D01*
X78044354Y-164529853D01*
X77896784Y-164628456D01*
X77732812Y-164696376D01*
X77583512Y-164726073D01*
X77558742Y-164731000D01*
X77381258Y-164731000D01*
X77356488Y-164726073D01*
X77207188Y-164696376D01*
X77043216Y-164628456D01*
X76895646Y-164529853D01*
X76770147Y-164404354D01*
X76671544Y-164256784D01*
X76603624Y-164092812D01*
X76569000Y-163918741D01*
X76569000Y-163741259D01*
X76603624Y-163567188D01*
X76671544Y-163403216D01*
X76770147Y-163255646D01*
X76895646Y-163130147D01*
X77043216Y-163031544D01*
X77207188Y-162963624D01*
X77356488Y-162933927D01*
X77381258Y-162929000D01*
X77558742Y-162929000D01*
X77583512Y-162933927D01*
G37*
G36*
X100443512Y-162933927D02*
G01*
X100592812Y-162963624D01*
X100756784Y-163031544D01*
X100904354Y-163130147D01*
X101029853Y-163255646D01*
X101128456Y-163403216D01*
X101196376Y-163567188D01*
X101231000Y-163741259D01*
X101231000Y-163918741D01*
X101196376Y-164092812D01*
X101128456Y-164256784D01*
X101029853Y-164404354D01*
X100904354Y-164529853D01*
X100756784Y-164628456D01*
X100592812Y-164696376D01*
X100443512Y-164726073D01*
X100418742Y-164731000D01*
X100241258Y-164731000D01*
X100216488Y-164726073D01*
X100067188Y-164696376D01*
X99903216Y-164628456D01*
X99755646Y-164529853D01*
X99630147Y-164404354D01*
X99531544Y-164256784D01*
X99463624Y-164092812D01*
X99429000Y-163918741D01*
X99429000Y-163741259D01*
X99463624Y-163567188D01*
X99531544Y-163403216D01*
X99630147Y-163255646D01*
X99755646Y-163130147D01*
X99903216Y-163031544D01*
X100067188Y-162963624D01*
X100216488Y-162933927D01*
X100241258Y-162929000D01*
X100418742Y-162929000D01*
X100443512Y-162933927D01*
G37*
G36*
X77583512Y-160393927D02*
G01*
X77732812Y-160423624D01*
X77896784Y-160491544D01*
X78044354Y-160590147D01*
X78169853Y-160715646D01*
X78268456Y-160863216D01*
X78336376Y-161027188D01*
X78371000Y-161201259D01*
X78371000Y-161378741D01*
X78336376Y-161552812D01*
X78268456Y-161716784D01*
X78169853Y-161864354D01*
X78044354Y-161989853D01*
X77896784Y-162088456D01*
X77732812Y-162156376D01*
X77583512Y-162186073D01*
X77558742Y-162191000D01*
X77381258Y-162191000D01*
X77356488Y-162186073D01*
X77207188Y-162156376D01*
X77043216Y-162088456D01*
X76895646Y-161989853D01*
X76770147Y-161864354D01*
X76671544Y-161716784D01*
X76603624Y-161552812D01*
X76569000Y-161378741D01*
X76569000Y-161201259D01*
X76603624Y-161027188D01*
X76671544Y-160863216D01*
X76770147Y-160715646D01*
X76895646Y-160590147D01*
X77043216Y-160491544D01*
X77207188Y-160423624D01*
X77356488Y-160393927D01*
X77381258Y-160389000D01*
X77558742Y-160389000D01*
X77583512Y-160393927D01*
G37*
G36*
X100443512Y-160393927D02*
G01*
X100592812Y-160423624D01*
X100756784Y-160491544D01*
X100904354Y-160590147D01*
X101029853Y-160715646D01*
X101128456Y-160863216D01*
X101196376Y-161027188D01*
X101231000Y-161201259D01*
X101231000Y-161378741D01*
X101196376Y-161552812D01*
X101128456Y-161716784D01*
X101029853Y-161864354D01*
X100904354Y-161989853D01*
X100756784Y-162088456D01*
X100592812Y-162156376D01*
X100443512Y-162186073D01*
X100418742Y-162191000D01*
X100241258Y-162191000D01*
X100216488Y-162186073D01*
X100067188Y-162156376D01*
X99903216Y-162088456D01*
X99755646Y-161989853D01*
X99630147Y-161864354D01*
X99531544Y-161716784D01*
X99463624Y-161552812D01*
X99429000Y-161378741D01*
X99429000Y-161201259D01*
X99463624Y-161027188D01*
X99531544Y-160863216D01*
X99630147Y-160715646D01*
X99755646Y-160590147D01*
X99903216Y-160491544D01*
X100067188Y-160423624D01*
X100216488Y-160393927D01*
X100241258Y-160389000D01*
X100418742Y-160389000D01*
X100443512Y-160393927D01*
G37*
G36*
X100443512Y-157853927D02*
G01*
X100592812Y-157883624D01*
X100756784Y-157951544D01*
X100904354Y-158050147D01*
X101029853Y-158175646D01*
X101128456Y-158323216D01*
X101196376Y-158487188D01*
X101231000Y-158661259D01*
X101231000Y-158838741D01*
X101196376Y-159012812D01*
X101128456Y-159176784D01*
X101029853Y-159324354D01*
X100904354Y-159449853D01*
X100756784Y-159548456D01*
X100592812Y-159616376D01*
X100443512Y-159646073D01*
X100418742Y-159651000D01*
X100241258Y-159651000D01*
X100216488Y-159646073D01*
X100067188Y-159616376D01*
X99903216Y-159548456D01*
X99755646Y-159449853D01*
X99630147Y-159324354D01*
X99531544Y-159176784D01*
X99463624Y-159012812D01*
X99429000Y-158838741D01*
X99429000Y-158661259D01*
X99463624Y-158487188D01*
X99531544Y-158323216D01*
X99630147Y-158175646D01*
X99755646Y-158050147D01*
X99903216Y-157951544D01*
X100067188Y-157883624D01*
X100216488Y-157853927D01*
X100241258Y-157849000D01*
X100418742Y-157849000D01*
X100443512Y-157853927D01*
G37*
G36*
X77583512Y-157853927D02*
G01*
X77732812Y-157883624D01*
X77896784Y-157951544D01*
X78044354Y-158050147D01*
X78169853Y-158175646D01*
X78268456Y-158323216D01*
X78336376Y-158487188D01*
X78371000Y-158661259D01*
X78371000Y-158838741D01*
X78336376Y-159012812D01*
X78268456Y-159176784D01*
X78169853Y-159324354D01*
X78044354Y-159449853D01*
X77896784Y-159548456D01*
X77732812Y-159616376D01*
X77583512Y-159646073D01*
X77558742Y-159651000D01*
X77381258Y-159651000D01*
X77356488Y-159646073D01*
X77207188Y-159616376D01*
X77043216Y-159548456D01*
X76895646Y-159449853D01*
X76770147Y-159324354D01*
X76671544Y-159176784D01*
X76603624Y-159012812D01*
X76569000Y-158838741D01*
X76569000Y-158661259D01*
X76603624Y-158487188D01*
X76671544Y-158323216D01*
X76770147Y-158175646D01*
X76895646Y-158050147D01*
X77043216Y-157951544D01*
X77207188Y-157883624D01*
X77356488Y-157853927D01*
X77381258Y-157849000D01*
X77558742Y-157849000D01*
X77583512Y-157853927D01*
G37*
G36*
X78371000Y-157111000D02*
G01*
X76569000Y-157111000D01*
X76569000Y-155309000D01*
X78371000Y-155309000D01*
X78371000Y-157111000D01*
G37*
G36*
X101231000Y-157111000D02*
G01*
X99429000Y-157111000D01*
X99429000Y-155309000D01*
X101231000Y-155309000D01*
X101231000Y-157111000D01*
G37*
G36*
X94019468Y-129428565D02*
G01*
X94058138Y-129440296D01*
X94093777Y-129459346D01*
X94125017Y-129484983D01*
X94150654Y-129516223D01*
X94169704Y-129551862D01*
X94181435Y-129590532D01*
X94186000Y-129636888D01*
X94186000Y-130713112D01*
X94181435Y-130759468D01*
X94169704Y-130798138D01*
X94150654Y-130833777D01*
X94125017Y-130865017D01*
X94093777Y-130890654D01*
X94058138Y-130909704D01*
X94019468Y-130921435D01*
X93973112Y-130926000D01*
X93321888Y-130926000D01*
X93275532Y-130921435D01*
X93236862Y-130909704D01*
X93201223Y-130890654D01*
X93169983Y-130865017D01*
X93144346Y-130833777D01*
X93125296Y-130798138D01*
X93113565Y-130759468D01*
X93109000Y-130713112D01*
X93109000Y-129636888D01*
X93113565Y-129590532D01*
X93125296Y-129551862D01*
X93144346Y-129516223D01*
X93169983Y-129484983D01*
X93201223Y-129459346D01*
X93236862Y-129440296D01*
X93275532Y-129428565D01*
X93321888Y-129424000D01*
X93973112Y-129424000D01*
X94019468Y-129428565D01*
G37*
G36*
X92144468Y-129428565D02*
G01*
X92183138Y-129440296D01*
X92218777Y-129459346D01*
X92250017Y-129484983D01*
X92275654Y-129516223D01*
X92294704Y-129551862D01*
X92306435Y-129590532D01*
X92311000Y-129636888D01*
X92311000Y-130713112D01*
X92306435Y-130759468D01*
X92294704Y-130798138D01*
X92275654Y-130833777D01*
X92250017Y-130865017D01*
X92218777Y-130890654D01*
X92183138Y-130909704D01*
X92144468Y-130921435D01*
X92098112Y-130926000D01*
X91446888Y-130926000D01*
X91400532Y-130921435D01*
X91361862Y-130909704D01*
X91326223Y-130890654D01*
X91294983Y-130865017D01*
X91269346Y-130833777D01*
X91250296Y-130798138D01*
X91238565Y-130759468D01*
X91234000Y-130713112D01*
X91234000Y-129636888D01*
X91238565Y-129590532D01*
X91250296Y-129551862D01*
X91269346Y-129516223D01*
X91294983Y-129484983D01*
X91326223Y-129459346D01*
X91361862Y-129440296D01*
X91400532Y-129428565D01*
X91446888Y-129424000D01*
X92098112Y-129424000D01*
X92144468Y-129428565D01*
G37*
G36*
X84524468Y-129428565D02*
G01*
X84563138Y-129440296D01*
X84598777Y-129459346D01*
X84630017Y-129484983D01*
X84655654Y-129516223D01*
X84674704Y-129551862D01*
X84686435Y-129590532D01*
X84691000Y-129636888D01*
X84691000Y-130713112D01*
X84686435Y-130759468D01*
X84674704Y-130798138D01*
X84655654Y-130833777D01*
X84630017Y-130865017D01*
X84598777Y-130890654D01*
X84563138Y-130909704D01*
X84524468Y-130921435D01*
X84478112Y-130926000D01*
X83826888Y-130926000D01*
X83780532Y-130921435D01*
X83741862Y-130909704D01*
X83706223Y-130890654D01*
X83674983Y-130865017D01*
X83649346Y-130833777D01*
X83630296Y-130798138D01*
X83618565Y-130759468D01*
X83614000Y-130713112D01*
X83614000Y-129636888D01*
X83618565Y-129590532D01*
X83630296Y-129551862D01*
X83649346Y-129516223D01*
X83674983Y-129484983D01*
X83706223Y-129459346D01*
X83741862Y-129440296D01*
X83780532Y-129428565D01*
X83826888Y-129424000D01*
X84478112Y-129424000D01*
X84524468Y-129428565D01*
G37*
G36*
X86399468Y-129428565D02*
G01*
X86438138Y-129440296D01*
X86473777Y-129459346D01*
X86505017Y-129484983D01*
X86530654Y-129516223D01*
X86549704Y-129551862D01*
X86561435Y-129590532D01*
X86566000Y-129636888D01*
X86566000Y-130713112D01*
X86561435Y-130759468D01*
X86549704Y-130798138D01*
X86530654Y-130833777D01*
X86505017Y-130865017D01*
X86473777Y-130890654D01*
X86438138Y-130909704D01*
X86399468Y-130921435D01*
X86353112Y-130926000D01*
X85701888Y-130926000D01*
X85655532Y-130921435D01*
X85616862Y-130909704D01*
X85581223Y-130890654D01*
X85549983Y-130865017D01*
X85524346Y-130833777D01*
X85505296Y-130798138D01*
X85493565Y-130759468D01*
X85489000Y-130713112D01*
X85489000Y-129636888D01*
X85493565Y-129590532D01*
X85505296Y-129551862D01*
X85524346Y-129516223D01*
X85549983Y-129484983D01*
X85581223Y-129459346D01*
X85616862Y-129440296D01*
X85655532Y-129428565D01*
X85701888Y-129424000D01*
X86353112Y-129424000D01*
X86399468Y-129428565D01*
G37*
G36*
X89484468Y-129816565D02*
G01*
X89523138Y-129828296D01*
X89558777Y-129847346D01*
X89590017Y-129872983D01*
X89615654Y-129904223D01*
X89634704Y-129939862D01*
X89646435Y-129978532D01*
X89651000Y-130024888D01*
X89651000Y-130676112D01*
X89646435Y-130722468D01*
X89634704Y-130761138D01*
X89615654Y-130796777D01*
X89590017Y-130828017D01*
X89558777Y-130853654D01*
X89523138Y-130872704D01*
X89484468Y-130884435D01*
X89438112Y-130889000D01*
X88361888Y-130889000D01*
X88315532Y-130884435D01*
X88276862Y-130872704D01*
X88241223Y-130853654D01*
X88209983Y-130828017D01*
X88184346Y-130796777D01*
X88165296Y-130761138D01*
X88153565Y-130722468D01*
X88149000Y-130676112D01*
X88149000Y-130024888D01*
X88153565Y-129978532D01*
X88165296Y-129939862D01*
X88184346Y-129904223D01*
X88209983Y-129872983D01*
X88241223Y-129847346D01*
X88276862Y-129828296D01*
X88315532Y-129816565D01*
X88361888Y-129812000D01*
X89438112Y-129812000D01*
X89484468Y-129816565D01*
G37*
G36*
X89484468Y-127941565D02*
G01*
X89523138Y-127953296D01*
X89558777Y-127972346D01*
X89590017Y-127997983D01*
X89615654Y-128029223D01*
X89634704Y-128064862D01*
X89646435Y-128103532D01*
X89651000Y-128149888D01*
X89651000Y-128801112D01*
X89646435Y-128847468D01*
X89634704Y-128886138D01*
X89615654Y-128921777D01*
X89590017Y-128953017D01*
X89558777Y-128978654D01*
X89523138Y-128997704D01*
X89484468Y-129009435D01*
X89438112Y-129014000D01*
X88361888Y-129014000D01*
X88315532Y-129009435D01*
X88276862Y-128997704D01*
X88241223Y-128978654D01*
X88209983Y-128953017D01*
X88184346Y-128921777D01*
X88165296Y-128886138D01*
X88153565Y-128847468D01*
X88149000Y-128801112D01*
X88149000Y-128149888D01*
X88153565Y-128103532D01*
X88165296Y-128064862D01*
X88184346Y-128029223D01*
X88209983Y-127997983D01*
X88241223Y-127972346D01*
X88276862Y-127953296D01*
X88315532Y-127941565D01*
X88361888Y-127937000D01*
X89438112Y-127937000D01*
X89484468Y-127941565D01*
G37*
G36*
X91815256Y-124248298D02*
G01*
X91921579Y-124269447D01*
X92222042Y-124393903D01*
X92492451Y-124574585D01*
X92722415Y-124804549D01*
X92903097Y-125074958D01*
X93027553Y-125375421D01*
X93091000Y-125694391D01*
X93091000Y-126019609D01*
X93027553Y-126338579D01*
X92903097Y-126639042D01*
X92722415Y-126909451D01*
X92492451Y-127139415D01*
X92222042Y-127320097D01*
X91921579Y-127444553D01*
X91815256Y-127465702D01*
X91602611Y-127508000D01*
X91277389Y-127508000D01*
X91064744Y-127465702D01*
X90958421Y-127444553D01*
X90657958Y-127320097D01*
X90387549Y-127139415D01*
X90157585Y-126909451D01*
X89976903Y-126639042D01*
X89852447Y-126338579D01*
X89789000Y-126019609D01*
X89789000Y-125694391D01*
X89852447Y-125375421D01*
X89976903Y-125074958D01*
X90157585Y-124804549D01*
X90387549Y-124574585D01*
X90657958Y-124393903D01*
X90958421Y-124269447D01*
X91064744Y-124248298D01*
X91277389Y-124206000D01*
X91602611Y-124206000D01*
X91815256Y-124248298D01*
G37*
G36*
X86735256Y-124248298D02*
G01*
X86841579Y-124269447D01*
X87142042Y-124393903D01*
X87412451Y-124574585D01*
X87642415Y-124804549D01*
X87823097Y-125074958D01*
X87947553Y-125375421D01*
X88011000Y-125694391D01*
X88011000Y-126019609D01*
X87947553Y-126338579D01*
X87823097Y-126639042D01*
X87642415Y-126909451D01*
X87412451Y-127139415D01*
X87142042Y-127320097D01*
X86841579Y-127444553D01*
X86735256Y-127465702D01*
X86522611Y-127508000D01*
X86197389Y-127508000D01*
X85984744Y-127465702D01*
X85878421Y-127444553D01*
X85577958Y-127320097D01*
X85307549Y-127139415D01*
X85077585Y-126909451D01*
X84896903Y-126639042D01*
X84772447Y-126338579D01*
X84709000Y-126019609D01*
X84709000Y-125694391D01*
X84772447Y-125375421D01*
X84896903Y-125074958D01*
X85077585Y-124804549D01*
X85307549Y-124574585D01*
X85577958Y-124393903D01*
X85878421Y-124269447D01*
X85984744Y-124248298D01*
X86197389Y-124206000D01*
X86522611Y-124206000D01*
X86735256Y-124248298D01*
G37*
M02*
