M48
; DRILL file {KiCad (5.1.5)-3} date 28.1.2020. 18:53:19
; FORMAT={-:-/ absolute / inch / decimal}
; #@! TF.CreationDate,2020-01-28T18:53:19+01:00
; #@! TF.GenerationSoftware,Kicad,Pcbnew,(5.1.5)-3
; #@! TF.FileFunction,Plated,1,2,PTH
FMAT,2
INCH
T1C0.0157
T2C0.0394
T3C0.0591
%
G90
G05
T1
X3.0631Y-5.9
X3.1369Y-5.9
X3.19Y-6.45
X3.19Y-6.55
X3.19Y-6.65
X3.2631Y-6.38
X3.275Y-5.375
X3.31Y-5.125
X3.3313Y-6.5513
X3.335Y-6.71
X3.375Y-5.375
X3.39Y-6.125
X3.39Y-6.175
X3.475Y-5.375
X3.5Y-5.135
X3.51Y-6.17
X3.525Y-5.59
X3.535Y-6.235
X3.535Y-6.38
X3.6Y-5.875
X3.6Y-5.925
X3.6Y-5.975
X3.6Y-6.025
X3.625Y-5.375
X3.625Y-5.59
X3.6673Y-6.55
X3.69Y-5.125
X3.725Y-5.375
X3.7369Y-6.38
X3.74Y-6.71
X3.9369Y-5.375
T2
X3.05Y-6.15
X3.05Y-6.25
X3.05Y-6.35
X3.05Y-6.45
X3.05Y-6.55
X3.05Y-6.65
X3.05Y-6.75
X3.05Y-6.85
X3.95Y-6.15
X3.95Y-6.25
X3.95Y-6.35
X3.95Y-6.45
X3.95Y-6.55
X3.95Y-6.65
X3.95Y-6.75
X3.95Y-6.85
T3
X3.4Y-4.955
X3.6Y-4.955
T0
M30
