G04 #@! TF.GenerationSoftware,KiCad,Pcbnew,(5.1.5)-3*
G04 #@! TF.CreationDate,2020-01-28T18:53:24+01:00*
G04 #@! TF.ProjectId,CAN SPI Isolated v2.0,43414e20-5350-4492-9049-736f6c617465,rev?*
G04 #@! TF.SameCoordinates,Original*
G04 #@! TF.FileFunction,Soldermask,Top*
G04 #@! TF.FilePolarity,Negative*
%FSLAX46Y46*%
G04 Gerber Fmt 4.6, Leading zero omitted, Abs format (unit mm)*
G04 Created by KiCad (PCBNEW (5.1.5)-3) date 2020-01-28 18:53:24*
%MOMM*%
%LPD*%
G04 APERTURE LIST*
%ADD10C,0.100000*%
G04 APERTURE END LIST*
D10*
G36*
X100443512Y-173093927D02*
G01*
X100592812Y-173123624D01*
X100756784Y-173191544D01*
X100904354Y-173290147D01*
X101029853Y-173415646D01*
X101128456Y-173563216D01*
X101196376Y-173727188D01*
X101231000Y-173901259D01*
X101231000Y-174078741D01*
X101196376Y-174252812D01*
X101128456Y-174416784D01*
X101029853Y-174564354D01*
X100904354Y-174689853D01*
X100756784Y-174788456D01*
X100592812Y-174856376D01*
X100443512Y-174886073D01*
X100418742Y-174891000D01*
X100241258Y-174891000D01*
X100216488Y-174886073D01*
X100067188Y-174856376D01*
X99903216Y-174788456D01*
X99755646Y-174689853D01*
X99630147Y-174564354D01*
X99531544Y-174416784D01*
X99463624Y-174252812D01*
X99429000Y-174078741D01*
X99429000Y-173901259D01*
X99463624Y-173727188D01*
X99531544Y-173563216D01*
X99630147Y-173415646D01*
X99755646Y-173290147D01*
X99903216Y-173191544D01*
X100067188Y-173123624D01*
X100216488Y-173093927D01*
X100241258Y-173089000D01*
X100418742Y-173089000D01*
X100443512Y-173093927D01*
G37*
G36*
X77583512Y-173093927D02*
G01*
X77732812Y-173123624D01*
X77896784Y-173191544D01*
X78044354Y-173290147D01*
X78169853Y-173415646D01*
X78268456Y-173563216D01*
X78336376Y-173727188D01*
X78371000Y-173901259D01*
X78371000Y-174078741D01*
X78336376Y-174252812D01*
X78268456Y-174416784D01*
X78169853Y-174564354D01*
X78044354Y-174689853D01*
X77896784Y-174788456D01*
X77732812Y-174856376D01*
X77583512Y-174886073D01*
X77558742Y-174891000D01*
X77381258Y-174891000D01*
X77356488Y-174886073D01*
X77207188Y-174856376D01*
X77043216Y-174788456D01*
X76895646Y-174689853D01*
X76770147Y-174564354D01*
X76671544Y-174416784D01*
X76603624Y-174252812D01*
X76569000Y-174078741D01*
X76569000Y-173901259D01*
X76603624Y-173727188D01*
X76671544Y-173563216D01*
X76770147Y-173415646D01*
X76895646Y-173290147D01*
X77043216Y-173191544D01*
X77207188Y-173123624D01*
X77356488Y-173093927D01*
X77381258Y-173089000D01*
X77558742Y-173089000D01*
X77583512Y-173093927D01*
G37*
G36*
X96559468Y-172735565D02*
G01*
X96598138Y-172747296D01*
X96633777Y-172766346D01*
X96665017Y-172791983D01*
X96690654Y-172823223D01*
X96709704Y-172858862D01*
X96721435Y-172897532D01*
X96726000Y-172943888D01*
X96726000Y-174020112D01*
X96721435Y-174066468D01*
X96709704Y-174105138D01*
X96690654Y-174140777D01*
X96665017Y-174172017D01*
X96633777Y-174197654D01*
X96598138Y-174216704D01*
X96559468Y-174228435D01*
X96513112Y-174233000D01*
X95861888Y-174233000D01*
X95815532Y-174228435D01*
X95776862Y-174216704D01*
X95741223Y-174197654D01*
X95709983Y-174172017D01*
X95684346Y-174140777D01*
X95665296Y-174105138D01*
X95653565Y-174066468D01*
X95649000Y-174020112D01*
X95649000Y-172943888D01*
X95653565Y-172897532D01*
X95665296Y-172858862D01*
X95684346Y-172823223D01*
X95709983Y-172791983D01*
X95741223Y-172766346D01*
X95776862Y-172747296D01*
X95815532Y-172735565D01*
X95861888Y-172731000D01*
X96513112Y-172731000D01*
X96559468Y-172735565D01*
G37*
G36*
X94684468Y-172735565D02*
G01*
X94723138Y-172747296D01*
X94758777Y-172766346D01*
X94790017Y-172791983D01*
X94815654Y-172823223D01*
X94834704Y-172858862D01*
X94846435Y-172897532D01*
X94851000Y-172943888D01*
X94851000Y-174020112D01*
X94846435Y-174066468D01*
X94834704Y-174105138D01*
X94815654Y-174140777D01*
X94790017Y-174172017D01*
X94758777Y-174197654D01*
X94723138Y-174216704D01*
X94684468Y-174228435D01*
X94638112Y-174233000D01*
X93986888Y-174233000D01*
X93940532Y-174228435D01*
X93901862Y-174216704D01*
X93866223Y-174197654D01*
X93834983Y-174172017D01*
X93809346Y-174140777D01*
X93790296Y-174105138D01*
X93778565Y-174066468D01*
X93774000Y-174020112D01*
X93774000Y-172943888D01*
X93778565Y-172897532D01*
X93790296Y-172858862D01*
X93809346Y-172823223D01*
X93834983Y-172791983D01*
X93866223Y-172766346D01*
X93901862Y-172747296D01*
X93940532Y-172735565D01*
X93986888Y-172731000D01*
X94638112Y-172731000D01*
X94684468Y-172735565D01*
G37*
G36*
X82325068Y-172735565D02*
G01*
X82363738Y-172747296D01*
X82399377Y-172766346D01*
X82430617Y-172791983D01*
X82456254Y-172823223D01*
X82475304Y-172858862D01*
X82487035Y-172897532D01*
X82491600Y-172943888D01*
X82491600Y-174020112D01*
X82487035Y-174066468D01*
X82475304Y-174105138D01*
X82456254Y-174140777D01*
X82430617Y-174172017D01*
X82399377Y-174197654D01*
X82363738Y-174216704D01*
X82325068Y-174228435D01*
X82278712Y-174233000D01*
X81627488Y-174233000D01*
X81581132Y-174228435D01*
X81542462Y-174216704D01*
X81506823Y-174197654D01*
X81475583Y-174172017D01*
X81449946Y-174140777D01*
X81430896Y-174105138D01*
X81419165Y-174066468D01*
X81414600Y-174020112D01*
X81414600Y-172943888D01*
X81419165Y-172897532D01*
X81430896Y-172858862D01*
X81449946Y-172823223D01*
X81475583Y-172791983D01*
X81506823Y-172766346D01*
X81542462Y-172747296D01*
X81581132Y-172735565D01*
X81627488Y-172731000D01*
X82278712Y-172731000D01*
X82325068Y-172735565D01*
G37*
G36*
X86066968Y-172735565D02*
G01*
X86105638Y-172747296D01*
X86141277Y-172766346D01*
X86172517Y-172791983D01*
X86198154Y-172823223D01*
X86217204Y-172858862D01*
X86228935Y-172897532D01*
X86233500Y-172943888D01*
X86233500Y-174020112D01*
X86228935Y-174066468D01*
X86217204Y-174105138D01*
X86198154Y-174140777D01*
X86172517Y-174172017D01*
X86141277Y-174197654D01*
X86105638Y-174216704D01*
X86066968Y-174228435D01*
X86020612Y-174233000D01*
X85369388Y-174233000D01*
X85323032Y-174228435D01*
X85284362Y-174216704D01*
X85248723Y-174197654D01*
X85217483Y-174172017D01*
X85191846Y-174140777D01*
X85172796Y-174105138D01*
X85161065Y-174066468D01*
X85156500Y-174020112D01*
X85156500Y-172943888D01*
X85161065Y-172897532D01*
X85172796Y-172858862D01*
X85191846Y-172823223D01*
X85217483Y-172791983D01*
X85248723Y-172766346D01*
X85284362Y-172747296D01*
X85323032Y-172735565D01*
X85369388Y-172731000D01*
X86020612Y-172731000D01*
X86066968Y-172735565D01*
G37*
G36*
X84191968Y-172735565D02*
G01*
X84230638Y-172747296D01*
X84266277Y-172766346D01*
X84297517Y-172791983D01*
X84323154Y-172823223D01*
X84342204Y-172858862D01*
X84353935Y-172897532D01*
X84358500Y-172943888D01*
X84358500Y-174020112D01*
X84353935Y-174066468D01*
X84342204Y-174105138D01*
X84323154Y-174140777D01*
X84297517Y-174172017D01*
X84266277Y-174197654D01*
X84230638Y-174216704D01*
X84191968Y-174228435D01*
X84145612Y-174233000D01*
X83494388Y-174233000D01*
X83448032Y-174228435D01*
X83409362Y-174216704D01*
X83373723Y-174197654D01*
X83342483Y-174172017D01*
X83316846Y-174140777D01*
X83297796Y-174105138D01*
X83286065Y-174066468D01*
X83281500Y-174020112D01*
X83281500Y-172943888D01*
X83286065Y-172897532D01*
X83297796Y-172858862D01*
X83316846Y-172823223D01*
X83342483Y-172791983D01*
X83373723Y-172766346D01*
X83409362Y-172747296D01*
X83448032Y-172735565D01*
X83494388Y-172731000D01*
X84145612Y-172731000D01*
X84191968Y-172735565D01*
G37*
G36*
X91479468Y-172735565D02*
G01*
X91518138Y-172747296D01*
X91553777Y-172766346D01*
X91585017Y-172791983D01*
X91610654Y-172823223D01*
X91629704Y-172858862D01*
X91641435Y-172897532D01*
X91646000Y-172943888D01*
X91646000Y-174020112D01*
X91641435Y-174066468D01*
X91629704Y-174105138D01*
X91610654Y-174140777D01*
X91585017Y-174172017D01*
X91553777Y-174197654D01*
X91518138Y-174216704D01*
X91479468Y-174228435D01*
X91433112Y-174233000D01*
X90781888Y-174233000D01*
X90735532Y-174228435D01*
X90696862Y-174216704D01*
X90661223Y-174197654D01*
X90629983Y-174172017D01*
X90604346Y-174140777D01*
X90585296Y-174105138D01*
X90573565Y-174066468D01*
X90569000Y-174020112D01*
X90569000Y-172943888D01*
X90573565Y-172897532D01*
X90585296Y-172858862D01*
X90604346Y-172823223D01*
X90629983Y-172791983D01*
X90661223Y-172766346D01*
X90696862Y-172747296D01*
X90735532Y-172735565D01*
X90781888Y-172731000D01*
X91433112Y-172731000D01*
X91479468Y-172735565D01*
G37*
G36*
X89604468Y-172735565D02*
G01*
X89643138Y-172747296D01*
X89678777Y-172766346D01*
X89710017Y-172791983D01*
X89735654Y-172823223D01*
X89754704Y-172858862D01*
X89766435Y-172897532D01*
X89771000Y-172943888D01*
X89771000Y-174020112D01*
X89766435Y-174066468D01*
X89754704Y-174105138D01*
X89735654Y-174140777D01*
X89710017Y-174172017D01*
X89678777Y-174197654D01*
X89643138Y-174216704D01*
X89604468Y-174228435D01*
X89558112Y-174233000D01*
X88906888Y-174233000D01*
X88860532Y-174228435D01*
X88821862Y-174216704D01*
X88786223Y-174197654D01*
X88754983Y-174172017D01*
X88729346Y-174140777D01*
X88710296Y-174105138D01*
X88698565Y-174066468D01*
X88694000Y-174020112D01*
X88694000Y-172943888D01*
X88698565Y-172897532D01*
X88710296Y-172858862D01*
X88729346Y-172823223D01*
X88754983Y-172791983D01*
X88786223Y-172766346D01*
X88821862Y-172747296D01*
X88860532Y-172735565D01*
X88906888Y-172731000D01*
X89558112Y-172731000D01*
X89604468Y-172735565D01*
G37*
G36*
X77583512Y-170553927D02*
G01*
X77732812Y-170583624D01*
X77896784Y-170651544D01*
X78044354Y-170750147D01*
X78169853Y-170875646D01*
X78268456Y-171023216D01*
X78336376Y-171187188D01*
X78371000Y-171361259D01*
X78371000Y-171538741D01*
X78336376Y-171712812D01*
X78268456Y-171876784D01*
X78169853Y-172024354D01*
X78044354Y-172149853D01*
X77896784Y-172248456D01*
X77732812Y-172316376D01*
X77583512Y-172346073D01*
X77558742Y-172351000D01*
X77381258Y-172351000D01*
X77356488Y-172346073D01*
X77207188Y-172316376D01*
X77043216Y-172248456D01*
X76895646Y-172149853D01*
X76770147Y-172024354D01*
X76671544Y-171876784D01*
X76603624Y-171712812D01*
X76569000Y-171538741D01*
X76569000Y-171361259D01*
X76603624Y-171187188D01*
X76671544Y-171023216D01*
X76770147Y-170875646D01*
X76895646Y-170750147D01*
X77043216Y-170651544D01*
X77207188Y-170583624D01*
X77356488Y-170553927D01*
X77381258Y-170549000D01*
X77558742Y-170549000D01*
X77583512Y-170553927D01*
G37*
G36*
X100443512Y-170553927D02*
G01*
X100592812Y-170583624D01*
X100756784Y-170651544D01*
X100904354Y-170750147D01*
X101029853Y-170875646D01*
X101128456Y-171023216D01*
X101196376Y-171187188D01*
X101231000Y-171361259D01*
X101231000Y-171538741D01*
X101196376Y-171712812D01*
X101128456Y-171876784D01*
X101029853Y-172024354D01*
X100904354Y-172149853D01*
X100756784Y-172248456D01*
X100592812Y-172316376D01*
X100443512Y-172346073D01*
X100418742Y-172351000D01*
X100241258Y-172351000D01*
X100216488Y-172346073D01*
X100067188Y-172316376D01*
X99903216Y-172248456D01*
X99755646Y-172149853D01*
X99630147Y-172024354D01*
X99531544Y-171876784D01*
X99463624Y-171712812D01*
X99429000Y-171538741D01*
X99429000Y-171361259D01*
X99463624Y-171187188D01*
X99531544Y-171023216D01*
X99630147Y-170875646D01*
X99755646Y-170750147D01*
X99903216Y-170651544D01*
X100067188Y-170583624D01*
X100216488Y-170553927D01*
X100241258Y-170549000D01*
X100418742Y-170549000D01*
X100443512Y-170553927D01*
G37*
G36*
X95289468Y-169433565D02*
G01*
X95328138Y-169445296D01*
X95363777Y-169464346D01*
X95395017Y-169489983D01*
X95420654Y-169521223D01*
X95439704Y-169556862D01*
X95451435Y-169595532D01*
X95456000Y-169641888D01*
X95456000Y-170718112D01*
X95451435Y-170764468D01*
X95439704Y-170803138D01*
X95420654Y-170838777D01*
X95395017Y-170870017D01*
X95363777Y-170895654D01*
X95328138Y-170914704D01*
X95289468Y-170926435D01*
X95243112Y-170931000D01*
X94591888Y-170931000D01*
X94545532Y-170926435D01*
X94506862Y-170914704D01*
X94471223Y-170895654D01*
X94439983Y-170870017D01*
X94414346Y-170838777D01*
X94395296Y-170803138D01*
X94383565Y-170764468D01*
X94379000Y-170718112D01*
X94379000Y-169641888D01*
X94383565Y-169595532D01*
X94395296Y-169556862D01*
X94414346Y-169521223D01*
X94439983Y-169489983D01*
X94471223Y-169464346D01*
X94506862Y-169445296D01*
X94545532Y-169433565D01*
X94591888Y-169429000D01*
X95243112Y-169429000D01*
X95289468Y-169433565D01*
G37*
G36*
X93414468Y-169433565D02*
G01*
X93453138Y-169445296D01*
X93488777Y-169464346D01*
X93520017Y-169489983D01*
X93545654Y-169521223D01*
X93564704Y-169556862D01*
X93576435Y-169595532D01*
X93581000Y-169641888D01*
X93581000Y-170718112D01*
X93576435Y-170764468D01*
X93564704Y-170803138D01*
X93545654Y-170838777D01*
X93520017Y-170870017D01*
X93488777Y-170895654D01*
X93453138Y-170914704D01*
X93414468Y-170926435D01*
X93368112Y-170931000D01*
X92716888Y-170931000D01*
X92670532Y-170926435D01*
X92631862Y-170914704D01*
X92596223Y-170895654D01*
X92564983Y-170870017D01*
X92539346Y-170838777D01*
X92520296Y-170803138D01*
X92508565Y-170764468D01*
X92504000Y-170718112D01*
X92504000Y-169641888D01*
X92508565Y-169595532D01*
X92520296Y-169556862D01*
X92539346Y-169521223D01*
X92564983Y-169489983D01*
X92596223Y-169464346D01*
X92631862Y-169445296D01*
X92670532Y-169433565D01*
X92716888Y-169429000D01*
X93368112Y-169429000D01*
X93414468Y-169433565D01*
G37*
G36*
X83254468Y-169433565D02*
G01*
X83293138Y-169445296D01*
X83328777Y-169464346D01*
X83360017Y-169489983D01*
X83385654Y-169521223D01*
X83404704Y-169556862D01*
X83416435Y-169595532D01*
X83421000Y-169641888D01*
X83421000Y-170718112D01*
X83416435Y-170764468D01*
X83404704Y-170803138D01*
X83385654Y-170838777D01*
X83360017Y-170870017D01*
X83328777Y-170895654D01*
X83293138Y-170914704D01*
X83254468Y-170926435D01*
X83208112Y-170931000D01*
X82556888Y-170931000D01*
X82510532Y-170926435D01*
X82471862Y-170914704D01*
X82436223Y-170895654D01*
X82404983Y-170870017D01*
X82379346Y-170838777D01*
X82360296Y-170803138D01*
X82348565Y-170764468D01*
X82344000Y-170718112D01*
X82344000Y-169641888D01*
X82348565Y-169595532D01*
X82360296Y-169556862D01*
X82379346Y-169521223D01*
X82404983Y-169489983D01*
X82436223Y-169464346D01*
X82471862Y-169445296D01*
X82510532Y-169433565D01*
X82556888Y-169429000D01*
X83208112Y-169429000D01*
X83254468Y-169433565D01*
G37*
G36*
X85129468Y-169433565D02*
G01*
X85168138Y-169445296D01*
X85203777Y-169464346D01*
X85235017Y-169489983D01*
X85260654Y-169521223D01*
X85279704Y-169556862D01*
X85291435Y-169595532D01*
X85296000Y-169641888D01*
X85296000Y-170718112D01*
X85291435Y-170764468D01*
X85279704Y-170803138D01*
X85260654Y-170838777D01*
X85235017Y-170870017D01*
X85203777Y-170895654D01*
X85168138Y-170914704D01*
X85129468Y-170926435D01*
X85083112Y-170931000D01*
X84431888Y-170931000D01*
X84385532Y-170926435D01*
X84346862Y-170914704D01*
X84311223Y-170895654D01*
X84279983Y-170870017D01*
X84254346Y-170838777D01*
X84235296Y-170803138D01*
X84223565Y-170764468D01*
X84219000Y-170718112D01*
X84219000Y-169641888D01*
X84223565Y-169595532D01*
X84235296Y-169556862D01*
X84254346Y-169521223D01*
X84279983Y-169489983D01*
X84311223Y-169464346D01*
X84346862Y-169445296D01*
X84385532Y-169433565D01*
X84431888Y-169429000D01*
X85083112Y-169429000D01*
X85129468Y-169433565D01*
G37*
G36*
X100443512Y-168013927D02*
G01*
X100592812Y-168043624D01*
X100756784Y-168111544D01*
X100904354Y-168210147D01*
X101029853Y-168335646D01*
X101128456Y-168483216D01*
X101196376Y-168647188D01*
X101231000Y-168821259D01*
X101231000Y-168998741D01*
X101196376Y-169172812D01*
X101128456Y-169336784D01*
X101029853Y-169484354D01*
X100904354Y-169609853D01*
X100756784Y-169708456D01*
X100592812Y-169776376D01*
X100443512Y-169806073D01*
X100418742Y-169811000D01*
X100241258Y-169811000D01*
X100216488Y-169806073D01*
X100067188Y-169776376D01*
X99903216Y-169708456D01*
X99755646Y-169609853D01*
X99630147Y-169484354D01*
X99531544Y-169336784D01*
X99463624Y-169172812D01*
X99429000Y-168998741D01*
X99429000Y-168821259D01*
X99463624Y-168647188D01*
X99531544Y-168483216D01*
X99630147Y-168335646D01*
X99755646Y-168210147D01*
X99903216Y-168111544D01*
X100067188Y-168043624D01*
X100216488Y-168013927D01*
X100241258Y-168009000D01*
X100418742Y-168009000D01*
X100443512Y-168013927D01*
G37*
G36*
X77583512Y-168013927D02*
G01*
X77732812Y-168043624D01*
X77896784Y-168111544D01*
X78044354Y-168210147D01*
X78169853Y-168335646D01*
X78268456Y-168483216D01*
X78336376Y-168647188D01*
X78371000Y-168821259D01*
X78371000Y-168998741D01*
X78336376Y-169172812D01*
X78268456Y-169336784D01*
X78169853Y-169484354D01*
X78044354Y-169609853D01*
X77896784Y-169708456D01*
X77732812Y-169776376D01*
X77583512Y-169806073D01*
X77558742Y-169811000D01*
X77381258Y-169811000D01*
X77356488Y-169806073D01*
X77207188Y-169776376D01*
X77043216Y-169708456D01*
X76895646Y-169609853D01*
X76770147Y-169484354D01*
X76671544Y-169336784D01*
X76603624Y-169172812D01*
X76569000Y-168998741D01*
X76569000Y-168821259D01*
X76603624Y-168647188D01*
X76671544Y-168483216D01*
X76770147Y-168335646D01*
X76895646Y-168210147D01*
X77043216Y-168111544D01*
X77207188Y-168043624D01*
X77356488Y-168013927D01*
X77381258Y-168009000D01*
X77558742Y-168009000D01*
X77583512Y-168013927D01*
G37*
G36*
X86951000Y-167421000D02*
G01*
X82349000Y-167421000D01*
X82349000Y-165319000D01*
X86951000Y-165319000D01*
X86951000Y-167421000D01*
G37*
G36*
X95451000Y-167421000D02*
G01*
X90849000Y-167421000D01*
X90849000Y-165319000D01*
X95451000Y-165319000D01*
X95451000Y-167421000D01*
G37*
G36*
X100443512Y-165473927D02*
G01*
X100592812Y-165503624D01*
X100756784Y-165571544D01*
X100904354Y-165670147D01*
X101029853Y-165795646D01*
X101128456Y-165943216D01*
X101196376Y-166107188D01*
X101231000Y-166281259D01*
X101231000Y-166458741D01*
X101196376Y-166632812D01*
X101128456Y-166796784D01*
X101029853Y-166944354D01*
X100904354Y-167069853D01*
X100756784Y-167168456D01*
X100592812Y-167236376D01*
X100443512Y-167266073D01*
X100418742Y-167271000D01*
X100241258Y-167271000D01*
X100216488Y-167266073D01*
X100067188Y-167236376D01*
X99903216Y-167168456D01*
X99755646Y-167069853D01*
X99630147Y-166944354D01*
X99531544Y-166796784D01*
X99463624Y-166632812D01*
X99429000Y-166458741D01*
X99429000Y-166281259D01*
X99463624Y-166107188D01*
X99531544Y-165943216D01*
X99630147Y-165795646D01*
X99755646Y-165670147D01*
X99903216Y-165571544D01*
X100067188Y-165503624D01*
X100216488Y-165473927D01*
X100241258Y-165469000D01*
X100418742Y-165469000D01*
X100443512Y-165473927D01*
G37*
G36*
X77583512Y-165473927D02*
G01*
X77732812Y-165503624D01*
X77896784Y-165571544D01*
X78044354Y-165670147D01*
X78169853Y-165795646D01*
X78268456Y-165943216D01*
X78336376Y-166107188D01*
X78371000Y-166281259D01*
X78371000Y-166458741D01*
X78336376Y-166632812D01*
X78268456Y-166796784D01*
X78169853Y-166944354D01*
X78044354Y-167069853D01*
X77896784Y-167168456D01*
X77732812Y-167236376D01*
X77583512Y-167266073D01*
X77558742Y-167271000D01*
X77381258Y-167271000D01*
X77356488Y-167266073D01*
X77207188Y-167236376D01*
X77043216Y-167168456D01*
X76895646Y-167069853D01*
X76770147Y-166944354D01*
X76671544Y-166796784D01*
X76603624Y-166632812D01*
X76569000Y-166458741D01*
X76569000Y-166281259D01*
X76603624Y-166107188D01*
X76671544Y-165943216D01*
X76770147Y-165795646D01*
X76895646Y-165670147D01*
X77043216Y-165571544D01*
X77207188Y-165503624D01*
X77356488Y-165473927D01*
X77381258Y-165469000D01*
X77558742Y-165469000D01*
X77583512Y-165473927D01*
G37*
G36*
X100443512Y-162933927D02*
G01*
X100592812Y-162963624D01*
X100756784Y-163031544D01*
X100904354Y-163130147D01*
X101029853Y-163255646D01*
X101128456Y-163403216D01*
X101196376Y-163567188D01*
X101231000Y-163741259D01*
X101231000Y-163918741D01*
X101196376Y-164092812D01*
X101128456Y-164256784D01*
X101029853Y-164404354D01*
X100904354Y-164529853D01*
X100756784Y-164628456D01*
X100592812Y-164696376D01*
X100443512Y-164726073D01*
X100418742Y-164731000D01*
X100241258Y-164731000D01*
X100216488Y-164726073D01*
X100067188Y-164696376D01*
X99903216Y-164628456D01*
X99755646Y-164529853D01*
X99630147Y-164404354D01*
X99531544Y-164256784D01*
X99463624Y-164092812D01*
X99429000Y-163918741D01*
X99429000Y-163741259D01*
X99463624Y-163567188D01*
X99531544Y-163403216D01*
X99630147Y-163255646D01*
X99755646Y-163130147D01*
X99903216Y-163031544D01*
X100067188Y-162963624D01*
X100216488Y-162933927D01*
X100241258Y-162929000D01*
X100418742Y-162929000D01*
X100443512Y-162933927D01*
G37*
G36*
X77583512Y-162933927D02*
G01*
X77732812Y-162963624D01*
X77896784Y-163031544D01*
X78044354Y-163130147D01*
X78169853Y-163255646D01*
X78268456Y-163403216D01*
X78336376Y-163567188D01*
X78371000Y-163741259D01*
X78371000Y-163918741D01*
X78336376Y-164092812D01*
X78268456Y-164256784D01*
X78169853Y-164404354D01*
X78044354Y-164529853D01*
X77896784Y-164628456D01*
X77732812Y-164696376D01*
X77583512Y-164726073D01*
X77558742Y-164731000D01*
X77381258Y-164731000D01*
X77356488Y-164726073D01*
X77207188Y-164696376D01*
X77043216Y-164628456D01*
X76895646Y-164529853D01*
X76770147Y-164404354D01*
X76671544Y-164256784D01*
X76603624Y-164092812D01*
X76569000Y-163918741D01*
X76569000Y-163741259D01*
X76603624Y-163567188D01*
X76671544Y-163403216D01*
X76770147Y-163255646D01*
X76895646Y-163130147D01*
X77043216Y-163031544D01*
X77207188Y-162963624D01*
X77356488Y-162933927D01*
X77381258Y-162929000D01*
X77558742Y-162929000D01*
X77583512Y-162933927D01*
G37*
G36*
X93414468Y-161305565D02*
G01*
X93453138Y-161317296D01*
X93488777Y-161336346D01*
X93520017Y-161361983D01*
X93545654Y-161393223D01*
X93564704Y-161428862D01*
X93576435Y-161467532D01*
X93581000Y-161513888D01*
X93581000Y-162590112D01*
X93576435Y-162636468D01*
X93564704Y-162675138D01*
X93545654Y-162710777D01*
X93520017Y-162742017D01*
X93488777Y-162767654D01*
X93453138Y-162786704D01*
X93414468Y-162798435D01*
X93368112Y-162803000D01*
X92716888Y-162803000D01*
X92670532Y-162798435D01*
X92631862Y-162786704D01*
X92596223Y-162767654D01*
X92564983Y-162742017D01*
X92539346Y-162710777D01*
X92520296Y-162675138D01*
X92508565Y-162636468D01*
X92504000Y-162590112D01*
X92504000Y-161513888D01*
X92508565Y-161467532D01*
X92520296Y-161428862D01*
X92539346Y-161393223D01*
X92564983Y-161361983D01*
X92596223Y-161336346D01*
X92631862Y-161317296D01*
X92670532Y-161305565D01*
X92716888Y-161301000D01*
X93368112Y-161301000D01*
X93414468Y-161305565D01*
G37*
G36*
X83254468Y-161305565D02*
G01*
X83293138Y-161317296D01*
X83328777Y-161336346D01*
X83360017Y-161361983D01*
X83385654Y-161393223D01*
X83404704Y-161428862D01*
X83416435Y-161467532D01*
X83421000Y-161513888D01*
X83421000Y-162590112D01*
X83416435Y-162636468D01*
X83404704Y-162675138D01*
X83385654Y-162710777D01*
X83360017Y-162742017D01*
X83328777Y-162767654D01*
X83293138Y-162786704D01*
X83254468Y-162798435D01*
X83208112Y-162803000D01*
X82556888Y-162803000D01*
X82510532Y-162798435D01*
X82471862Y-162786704D01*
X82436223Y-162767654D01*
X82404983Y-162742017D01*
X82379346Y-162710777D01*
X82360296Y-162675138D01*
X82348565Y-162636468D01*
X82344000Y-162590112D01*
X82344000Y-161513888D01*
X82348565Y-161467532D01*
X82360296Y-161428862D01*
X82379346Y-161393223D01*
X82404983Y-161361983D01*
X82436223Y-161336346D01*
X82471862Y-161317296D01*
X82510532Y-161305565D01*
X82556888Y-161301000D01*
X83208112Y-161301000D01*
X83254468Y-161305565D01*
G37*
G36*
X85129468Y-161305565D02*
G01*
X85168138Y-161317296D01*
X85203777Y-161336346D01*
X85235017Y-161361983D01*
X85260654Y-161393223D01*
X85279704Y-161428862D01*
X85291435Y-161467532D01*
X85296000Y-161513888D01*
X85296000Y-162590112D01*
X85291435Y-162636468D01*
X85279704Y-162675138D01*
X85260654Y-162710777D01*
X85235017Y-162742017D01*
X85203777Y-162767654D01*
X85168138Y-162786704D01*
X85129468Y-162798435D01*
X85083112Y-162803000D01*
X84431888Y-162803000D01*
X84385532Y-162798435D01*
X84346862Y-162786704D01*
X84311223Y-162767654D01*
X84279983Y-162742017D01*
X84254346Y-162710777D01*
X84235296Y-162675138D01*
X84223565Y-162636468D01*
X84219000Y-162590112D01*
X84219000Y-161513888D01*
X84223565Y-161467532D01*
X84235296Y-161428862D01*
X84254346Y-161393223D01*
X84279983Y-161361983D01*
X84311223Y-161336346D01*
X84346862Y-161317296D01*
X84385532Y-161305565D01*
X84431888Y-161301000D01*
X85083112Y-161301000D01*
X85129468Y-161305565D01*
G37*
G36*
X95289468Y-161305565D02*
G01*
X95328138Y-161317296D01*
X95363777Y-161336346D01*
X95395017Y-161361983D01*
X95420654Y-161393223D01*
X95439704Y-161428862D01*
X95451435Y-161467532D01*
X95456000Y-161513888D01*
X95456000Y-162590112D01*
X95451435Y-162636468D01*
X95439704Y-162675138D01*
X95420654Y-162710777D01*
X95395017Y-162742017D01*
X95363777Y-162767654D01*
X95328138Y-162786704D01*
X95289468Y-162798435D01*
X95243112Y-162803000D01*
X94591888Y-162803000D01*
X94545532Y-162798435D01*
X94506862Y-162786704D01*
X94471223Y-162767654D01*
X94439983Y-162742017D01*
X94414346Y-162710777D01*
X94395296Y-162675138D01*
X94383565Y-162636468D01*
X94379000Y-162590112D01*
X94379000Y-161513888D01*
X94383565Y-161467532D01*
X94395296Y-161428862D01*
X94414346Y-161393223D01*
X94439983Y-161361983D01*
X94471223Y-161336346D01*
X94506862Y-161317296D01*
X94545532Y-161305565D01*
X94591888Y-161301000D01*
X95243112Y-161301000D01*
X95289468Y-161305565D01*
G37*
G36*
X90209468Y-161305565D02*
G01*
X90248138Y-161317296D01*
X90283777Y-161336346D01*
X90315017Y-161361983D01*
X90340654Y-161393223D01*
X90359704Y-161428862D01*
X90371435Y-161467532D01*
X90376000Y-161513888D01*
X90376000Y-162590112D01*
X90371435Y-162636468D01*
X90359704Y-162675138D01*
X90340654Y-162710777D01*
X90315017Y-162742017D01*
X90283777Y-162767654D01*
X90248138Y-162786704D01*
X90209468Y-162798435D01*
X90163112Y-162803000D01*
X89511888Y-162803000D01*
X89465532Y-162798435D01*
X89426862Y-162786704D01*
X89391223Y-162767654D01*
X89359983Y-162742017D01*
X89334346Y-162710777D01*
X89315296Y-162675138D01*
X89303565Y-162636468D01*
X89299000Y-162590112D01*
X89299000Y-161513888D01*
X89303565Y-161467532D01*
X89315296Y-161428862D01*
X89334346Y-161393223D01*
X89359983Y-161361983D01*
X89391223Y-161336346D01*
X89426862Y-161317296D01*
X89465532Y-161305565D01*
X89511888Y-161301000D01*
X90163112Y-161301000D01*
X90209468Y-161305565D01*
G37*
G36*
X88334468Y-161305565D02*
G01*
X88373138Y-161317296D01*
X88408777Y-161336346D01*
X88440017Y-161361983D01*
X88465654Y-161393223D01*
X88484704Y-161428862D01*
X88496435Y-161467532D01*
X88501000Y-161513888D01*
X88501000Y-162590112D01*
X88496435Y-162636468D01*
X88484704Y-162675138D01*
X88465654Y-162710777D01*
X88440017Y-162742017D01*
X88408777Y-162767654D01*
X88373138Y-162786704D01*
X88334468Y-162798435D01*
X88288112Y-162803000D01*
X87636888Y-162803000D01*
X87590532Y-162798435D01*
X87551862Y-162786704D01*
X87516223Y-162767654D01*
X87484983Y-162742017D01*
X87459346Y-162710777D01*
X87440296Y-162675138D01*
X87428565Y-162636468D01*
X87424000Y-162590112D01*
X87424000Y-161513888D01*
X87428565Y-161467532D01*
X87440296Y-161428862D01*
X87459346Y-161393223D01*
X87484983Y-161361983D01*
X87516223Y-161336346D01*
X87551862Y-161317296D01*
X87590532Y-161305565D01*
X87636888Y-161301000D01*
X88288112Y-161301000D01*
X88334468Y-161305565D01*
G37*
G36*
X100443512Y-160393927D02*
G01*
X100592812Y-160423624D01*
X100756784Y-160491544D01*
X100904354Y-160590147D01*
X101029853Y-160715646D01*
X101128456Y-160863216D01*
X101196376Y-161027188D01*
X101226073Y-161176488D01*
X101231000Y-161201258D01*
X101231000Y-161378742D01*
X101226073Y-161403512D01*
X101196376Y-161552812D01*
X101128456Y-161716784D01*
X101029853Y-161864354D01*
X100904354Y-161989853D01*
X100756784Y-162088456D01*
X100592812Y-162156376D01*
X100443512Y-162186073D01*
X100418742Y-162191000D01*
X100241258Y-162191000D01*
X100216488Y-162186073D01*
X100067188Y-162156376D01*
X99903216Y-162088456D01*
X99755646Y-161989853D01*
X99630147Y-161864354D01*
X99531544Y-161716784D01*
X99463624Y-161552812D01*
X99433927Y-161403512D01*
X99429000Y-161378742D01*
X99429000Y-161201258D01*
X99433927Y-161176488D01*
X99463624Y-161027188D01*
X99531544Y-160863216D01*
X99630147Y-160715646D01*
X99755646Y-160590147D01*
X99903216Y-160491544D01*
X100067188Y-160423624D01*
X100216488Y-160393927D01*
X100241258Y-160389000D01*
X100418742Y-160389000D01*
X100443512Y-160393927D01*
G37*
G36*
X77583512Y-160393927D02*
G01*
X77732812Y-160423624D01*
X77896784Y-160491544D01*
X78044354Y-160590147D01*
X78169853Y-160715646D01*
X78268456Y-160863216D01*
X78336376Y-161027188D01*
X78366073Y-161176488D01*
X78371000Y-161201258D01*
X78371000Y-161378742D01*
X78366073Y-161403512D01*
X78336376Y-161552812D01*
X78268456Y-161716784D01*
X78169853Y-161864354D01*
X78044354Y-161989853D01*
X77896784Y-162088456D01*
X77732812Y-162156376D01*
X77583512Y-162186073D01*
X77558742Y-162191000D01*
X77381258Y-162191000D01*
X77356488Y-162186073D01*
X77207188Y-162156376D01*
X77043216Y-162088456D01*
X76895646Y-161989853D01*
X76770147Y-161864354D01*
X76671544Y-161716784D01*
X76603624Y-161552812D01*
X76573927Y-161403512D01*
X76569000Y-161378742D01*
X76569000Y-161201258D01*
X76573927Y-161176488D01*
X76603624Y-161027188D01*
X76671544Y-160863216D01*
X76770147Y-160715646D01*
X76895646Y-160590147D01*
X77043216Y-160491544D01*
X77207188Y-160423624D01*
X77356488Y-160393927D01*
X77381258Y-160389000D01*
X77558742Y-160389000D01*
X77583512Y-160393927D01*
G37*
G36*
X100443512Y-157853927D02*
G01*
X100592812Y-157883624D01*
X100756784Y-157951544D01*
X100904354Y-158050147D01*
X101029853Y-158175646D01*
X101128456Y-158323216D01*
X101196376Y-158487188D01*
X101231000Y-158661259D01*
X101231000Y-158838741D01*
X101196376Y-159012812D01*
X101128456Y-159176784D01*
X101029853Y-159324354D01*
X100904354Y-159449853D01*
X100756784Y-159548456D01*
X100592812Y-159616376D01*
X100443512Y-159646073D01*
X100418742Y-159651000D01*
X100241258Y-159651000D01*
X100216488Y-159646073D01*
X100067188Y-159616376D01*
X99903216Y-159548456D01*
X99755646Y-159449853D01*
X99630147Y-159324354D01*
X99531544Y-159176784D01*
X99463624Y-159012812D01*
X99429000Y-158838741D01*
X99429000Y-158661259D01*
X99463624Y-158487188D01*
X99531544Y-158323216D01*
X99630147Y-158175646D01*
X99755646Y-158050147D01*
X99903216Y-157951544D01*
X100067188Y-157883624D01*
X100216488Y-157853927D01*
X100241258Y-157849000D01*
X100418742Y-157849000D01*
X100443512Y-157853927D01*
G37*
G36*
X77583512Y-157853927D02*
G01*
X77732812Y-157883624D01*
X77896784Y-157951544D01*
X78044354Y-158050147D01*
X78169853Y-158175646D01*
X78268456Y-158323216D01*
X78336376Y-158487188D01*
X78371000Y-158661259D01*
X78371000Y-158838741D01*
X78336376Y-159012812D01*
X78268456Y-159176784D01*
X78169853Y-159324354D01*
X78044354Y-159449853D01*
X77896784Y-159548456D01*
X77732812Y-159616376D01*
X77583512Y-159646073D01*
X77558742Y-159651000D01*
X77381258Y-159651000D01*
X77356488Y-159646073D01*
X77207188Y-159616376D01*
X77043216Y-159548456D01*
X76895646Y-159449853D01*
X76770147Y-159324354D01*
X76671544Y-159176784D01*
X76603624Y-159012812D01*
X76569000Y-158838741D01*
X76569000Y-158661259D01*
X76603624Y-158487188D01*
X76671544Y-158323216D01*
X76770147Y-158175646D01*
X76895646Y-158050147D01*
X77043216Y-157951544D01*
X77207188Y-157883624D01*
X77356488Y-157853927D01*
X77381258Y-157849000D01*
X77558742Y-157849000D01*
X77583512Y-157853927D01*
G37*
G36*
X85234928Y-157766764D02*
G01*
X85256009Y-157773160D01*
X85275445Y-157783548D01*
X85292476Y-157797524D01*
X85306452Y-157814555D01*
X85316840Y-157833991D01*
X85323236Y-157855072D01*
X85326000Y-157883140D01*
X85326000Y-158346860D01*
X85323236Y-158374928D01*
X85316840Y-158396009D01*
X85306452Y-158415445D01*
X85292476Y-158432476D01*
X85275445Y-158446452D01*
X85256009Y-158456840D01*
X85234928Y-158463236D01*
X85206860Y-158466000D01*
X83293140Y-158466000D01*
X83265072Y-158463236D01*
X83243991Y-158456840D01*
X83224555Y-158446452D01*
X83207524Y-158432476D01*
X83193548Y-158415445D01*
X83183160Y-158396009D01*
X83176764Y-158374928D01*
X83174000Y-158346860D01*
X83174000Y-157883140D01*
X83176764Y-157855072D01*
X83183160Y-157833991D01*
X83193548Y-157814555D01*
X83207524Y-157797524D01*
X83224555Y-157783548D01*
X83243991Y-157773160D01*
X83265072Y-157766764D01*
X83293140Y-157764000D01*
X85206860Y-157764000D01*
X85234928Y-157766764D01*
G37*
G36*
X94534928Y-157766764D02*
G01*
X94556009Y-157773160D01*
X94575445Y-157783548D01*
X94592476Y-157797524D01*
X94606452Y-157814555D01*
X94616840Y-157833991D01*
X94623236Y-157855072D01*
X94626000Y-157883140D01*
X94626000Y-158346860D01*
X94623236Y-158374928D01*
X94616840Y-158396009D01*
X94606452Y-158415445D01*
X94592476Y-158432476D01*
X94575445Y-158446452D01*
X94556009Y-158456840D01*
X94534928Y-158463236D01*
X94506860Y-158466000D01*
X92593140Y-158466000D01*
X92565072Y-158463236D01*
X92543991Y-158456840D01*
X92524555Y-158446452D01*
X92507524Y-158432476D01*
X92493548Y-158415445D01*
X92483160Y-158396009D01*
X92476764Y-158374928D01*
X92474000Y-158346860D01*
X92474000Y-157883140D01*
X92476764Y-157855072D01*
X92483160Y-157833991D01*
X92493548Y-157814555D01*
X92507524Y-157797524D01*
X92524555Y-157783548D01*
X92543991Y-157773160D01*
X92565072Y-157766764D01*
X92593140Y-157764000D01*
X94506860Y-157764000D01*
X94534928Y-157766764D01*
G37*
G36*
X85234928Y-156496764D02*
G01*
X85256009Y-156503160D01*
X85275445Y-156513548D01*
X85292476Y-156527524D01*
X85306452Y-156544555D01*
X85316840Y-156563991D01*
X85323236Y-156585072D01*
X85326000Y-156613140D01*
X85326000Y-157076860D01*
X85323236Y-157104928D01*
X85316840Y-157126009D01*
X85306452Y-157145445D01*
X85292476Y-157162476D01*
X85275445Y-157176452D01*
X85256009Y-157186840D01*
X85234928Y-157193236D01*
X85206860Y-157196000D01*
X83293140Y-157196000D01*
X83265072Y-157193236D01*
X83243991Y-157186840D01*
X83224555Y-157176452D01*
X83207524Y-157162476D01*
X83193548Y-157145445D01*
X83183160Y-157126009D01*
X83176764Y-157104928D01*
X83174000Y-157076860D01*
X83174000Y-156613140D01*
X83176764Y-156585072D01*
X83183160Y-156563991D01*
X83193548Y-156544555D01*
X83207524Y-156527524D01*
X83224555Y-156513548D01*
X83243991Y-156503160D01*
X83265072Y-156496764D01*
X83293140Y-156494000D01*
X85206860Y-156494000D01*
X85234928Y-156496764D01*
G37*
G36*
X94534928Y-156496764D02*
G01*
X94556009Y-156503160D01*
X94575445Y-156513548D01*
X94592476Y-156527524D01*
X94606452Y-156544555D01*
X94616840Y-156563991D01*
X94623236Y-156585072D01*
X94626000Y-156613140D01*
X94626000Y-157076860D01*
X94623236Y-157104928D01*
X94616840Y-157126009D01*
X94606452Y-157145445D01*
X94592476Y-157162476D01*
X94575445Y-157176452D01*
X94556009Y-157186840D01*
X94534928Y-157193236D01*
X94506860Y-157196000D01*
X92593140Y-157196000D01*
X92565072Y-157193236D01*
X92543991Y-157186840D01*
X92524555Y-157176452D01*
X92507524Y-157162476D01*
X92493548Y-157145445D01*
X92483160Y-157126009D01*
X92476764Y-157104928D01*
X92474000Y-157076860D01*
X92474000Y-156613140D01*
X92476764Y-156585072D01*
X92483160Y-156563991D01*
X92493548Y-156544555D01*
X92507524Y-156527524D01*
X92524555Y-156513548D01*
X92543991Y-156503160D01*
X92565072Y-156496764D01*
X92593140Y-156494000D01*
X94506860Y-156494000D01*
X94534928Y-156496764D01*
G37*
G36*
X78371000Y-157111000D02*
G01*
X76569000Y-157111000D01*
X76569000Y-155309000D01*
X78371000Y-155309000D01*
X78371000Y-157111000D01*
G37*
G36*
X101231000Y-157111000D02*
G01*
X99429000Y-157111000D01*
X99429000Y-155309000D01*
X101231000Y-155309000D01*
X101231000Y-157111000D01*
G37*
G36*
X85234928Y-155226764D02*
G01*
X85256009Y-155233160D01*
X85275445Y-155243548D01*
X85292476Y-155257524D01*
X85306452Y-155274555D01*
X85316840Y-155293991D01*
X85323236Y-155315072D01*
X85326000Y-155343140D01*
X85326000Y-155806860D01*
X85323236Y-155834928D01*
X85316840Y-155856009D01*
X85306452Y-155875445D01*
X85292476Y-155892476D01*
X85275445Y-155906452D01*
X85256009Y-155916840D01*
X85234928Y-155923236D01*
X85206860Y-155926000D01*
X83293140Y-155926000D01*
X83265072Y-155923236D01*
X83243991Y-155916840D01*
X83224555Y-155906452D01*
X83207524Y-155892476D01*
X83193548Y-155875445D01*
X83183160Y-155856009D01*
X83176764Y-155834928D01*
X83174000Y-155806860D01*
X83174000Y-155343140D01*
X83176764Y-155315072D01*
X83183160Y-155293991D01*
X83193548Y-155274555D01*
X83207524Y-155257524D01*
X83224555Y-155243548D01*
X83243991Y-155233160D01*
X83265072Y-155226764D01*
X83293140Y-155224000D01*
X85206860Y-155224000D01*
X85234928Y-155226764D01*
G37*
G36*
X94534928Y-155226764D02*
G01*
X94556009Y-155233160D01*
X94575445Y-155243548D01*
X94592476Y-155257524D01*
X94606452Y-155274555D01*
X94616840Y-155293991D01*
X94623236Y-155315072D01*
X94626000Y-155343140D01*
X94626000Y-155806860D01*
X94623236Y-155834928D01*
X94616840Y-155856009D01*
X94606452Y-155875445D01*
X94592476Y-155892476D01*
X94575445Y-155906452D01*
X94556009Y-155916840D01*
X94534928Y-155923236D01*
X94506860Y-155926000D01*
X92593140Y-155926000D01*
X92565072Y-155923236D01*
X92543991Y-155916840D01*
X92524555Y-155906452D01*
X92507524Y-155892476D01*
X92493548Y-155875445D01*
X92483160Y-155856009D01*
X92476764Y-155834928D01*
X92474000Y-155806860D01*
X92474000Y-155343140D01*
X92476764Y-155315072D01*
X92483160Y-155293991D01*
X92493548Y-155274555D01*
X92507524Y-155257524D01*
X92524555Y-155243548D01*
X92543991Y-155233160D01*
X92565072Y-155226764D01*
X92593140Y-155224000D01*
X94506860Y-155224000D01*
X94534928Y-155226764D01*
G37*
G36*
X94534928Y-153956764D02*
G01*
X94556009Y-153963160D01*
X94575445Y-153973548D01*
X94592476Y-153987524D01*
X94606452Y-154004555D01*
X94616840Y-154023991D01*
X94623236Y-154045072D01*
X94626000Y-154073140D01*
X94626000Y-154536860D01*
X94623236Y-154564928D01*
X94616840Y-154586009D01*
X94606452Y-154605445D01*
X94592476Y-154622476D01*
X94575445Y-154636452D01*
X94556009Y-154646840D01*
X94534928Y-154653236D01*
X94506860Y-154656000D01*
X92593140Y-154656000D01*
X92565072Y-154653236D01*
X92543991Y-154646840D01*
X92524555Y-154636452D01*
X92507524Y-154622476D01*
X92493548Y-154605445D01*
X92483160Y-154586009D01*
X92476764Y-154564928D01*
X92474000Y-154536860D01*
X92474000Y-154073140D01*
X92476764Y-154045072D01*
X92483160Y-154023991D01*
X92493548Y-154004555D01*
X92507524Y-153987524D01*
X92524555Y-153973548D01*
X92543991Y-153963160D01*
X92565072Y-153956764D01*
X92593140Y-153954000D01*
X94506860Y-153954000D01*
X94534928Y-153956764D01*
G37*
G36*
X85234928Y-153956764D02*
G01*
X85256009Y-153963160D01*
X85275445Y-153973548D01*
X85292476Y-153987524D01*
X85306452Y-154004555D01*
X85316840Y-154023991D01*
X85323236Y-154045072D01*
X85326000Y-154073140D01*
X85326000Y-154536860D01*
X85323236Y-154564928D01*
X85316840Y-154586009D01*
X85306452Y-154605445D01*
X85292476Y-154622476D01*
X85275445Y-154636452D01*
X85256009Y-154646840D01*
X85234928Y-154653236D01*
X85206860Y-154656000D01*
X83293140Y-154656000D01*
X83265072Y-154653236D01*
X83243991Y-154646840D01*
X83224555Y-154636452D01*
X83207524Y-154622476D01*
X83193548Y-154605445D01*
X83183160Y-154586009D01*
X83176764Y-154564928D01*
X83174000Y-154536860D01*
X83174000Y-154073140D01*
X83176764Y-154045072D01*
X83183160Y-154023991D01*
X83193548Y-154004555D01*
X83207524Y-153987524D01*
X83224555Y-153973548D01*
X83243991Y-153963160D01*
X83265072Y-153956764D01*
X83293140Y-153954000D01*
X85206860Y-153954000D01*
X85234928Y-153956764D01*
G37*
G36*
X94534928Y-152686764D02*
G01*
X94556009Y-152693160D01*
X94575445Y-152703548D01*
X94592476Y-152717524D01*
X94606452Y-152734555D01*
X94616840Y-152753991D01*
X94623236Y-152775072D01*
X94626000Y-152803140D01*
X94626000Y-153266860D01*
X94623236Y-153294928D01*
X94616840Y-153316009D01*
X94606452Y-153335445D01*
X94592476Y-153352476D01*
X94575445Y-153366452D01*
X94556009Y-153376840D01*
X94534928Y-153383236D01*
X94506860Y-153386000D01*
X92593140Y-153386000D01*
X92565072Y-153383236D01*
X92543991Y-153376840D01*
X92524555Y-153366452D01*
X92507524Y-153352476D01*
X92493548Y-153335445D01*
X92483160Y-153316009D01*
X92476764Y-153294928D01*
X92474000Y-153266860D01*
X92474000Y-152803140D01*
X92476764Y-152775072D01*
X92483160Y-152753991D01*
X92493548Y-152734555D01*
X92507524Y-152717524D01*
X92524555Y-152703548D01*
X92543991Y-152693160D01*
X92565072Y-152686764D01*
X92593140Y-152684000D01*
X94506860Y-152684000D01*
X94534928Y-152686764D01*
G37*
G36*
X85234928Y-152686764D02*
G01*
X85256009Y-152693160D01*
X85275445Y-152703548D01*
X85292476Y-152717524D01*
X85306452Y-152734555D01*
X85316840Y-152753991D01*
X85323236Y-152775072D01*
X85326000Y-152803140D01*
X85326000Y-153266860D01*
X85323236Y-153294928D01*
X85316840Y-153316009D01*
X85306452Y-153335445D01*
X85292476Y-153352476D01*
X85275445Y-153366452D01*
X85256009Y-153376840D01*
X85234928Y-153383236D01*
X85206860Y-153386000D01*
X83293140Y-153386000D01*
X83265072Y-153383236D01*
X83243991Y-153376840D01*
X83224555Y-153366452D01*
X83207524Y-153352476D01*
X83193548Y-153335445D01*
X83183160Y-153316009D01*
X83176764Y-153294928D01*
X83174000Y-153266860D01*
X83174000Y-152803140D01*
X83176764Y-152775072D01*
X83183160Y-152753991D01*
X83193548Y-152734555D01*
X83207524Y-152717524D01*
X83224555Y-152703548D01*
X83243991Y-152693160D01*
X83265072Y-152686764D01*
X83293140Y-152684000D01*
X85206860Y-152684000D01*
X85234928Y-152686764D01*
G37*
G36*
X94534928Y-151416764D02*
G01*
X94556009Y-151423160D01*
X94575445Y-151433548D01*
X94592476Y-151447524D01*
X94606452Y-151464555D01*
X94616840Y-151483991D01*
X94623236Y-151505072D01*
X94626000Y-151533140D01*
X94626000Y-151996860D01*
X94623236Y-152024928D01*
X94616840Y-152046009D01*
X94606452Y-152065445D01*
X94592476Y-152082476D01*
X94575445Y-152096452D01*
X94556009Y-152106840D01*
X94534928Y-152113236D01*
X94506860Y-152116000D01*
X92593140Y-152116000D01*
X92565072Y-152113236D01*
X92543991Y-152106840D01*
X92524555Y-152096452D01*
X92507524Y-152082476D01*
X92493548Y-152065445D01*
X92483160Y-152046009D01*
X92476764Y-152024928D01*
X92474000Y-151996860D01*
X92474000Y-151533140D01*
X92476764Y-151505072D01*
X92483160Y-151483991D01*
X92493548Y-151464555D01*
X92507524Y-151447524D01*
X92524555Y-151433548D01*
X92543991Y-151423160D01*
X92565072Y-151416764D01*
X92593140Y-151414000D01*
X94506860Y-151414000D01*
X94534928Y-151416764D01*
G37*
G36*
X85234928Y-151416764D02*
G01*
X85256009Y-151423160D01*
X85275445Y-151433548D01*
X85292476Y-151447524D01*
X85306452Y-151464555D01*
X85316840Y-151483991D01*
X85323236Y-151505072D01*
X85326000Y-151533140D01*
X85326000Y-151996860D01*
X85323236Y-152024928D01*
X85316840Y-152046009D01*
X85306452Y-152065445D01*
X85292476Y-152082476D01*
X85275445Y-152096452D01*
X85256009Y-152106840D01*
X85234928Y-152113236D01*
X85206860Y-152116000D01*
X83293140Y-152116000D01*
X83265072Y-152113236D01*
X83243991Y-152106840D01*
X83224555Y-152096452D01*
X83207524Y-152082476D01*
X83193548Y-152065445D01*
X83183160Y-152046009D01*
X83176764Y-152024928D01*
X83174000Y-151996860D01*
X83174000Y-151533140D01*
X83176764Y-151505072D01*
X83183160Y-151483991D01*
X83193548Y-151464555D01*
X83207524Y-151447524D01*
X83224555Y-151433548D01*
X83243991Y-151423160D01*
X83265072Y-151416764D01*
X83293140Y-151414000D01*
X85206860Y-151414000D01*
X85234928Y-151416764D01*
G37*
G36*
X85234928Y-150146764D02*
G01*
X85256009Y-150153160D01*
X85275445Y-150163548D01*
X85292476Y-150177524D01*
X85306452Y-150194555D01*
X85316840Y-150213991D01*
X85323236Y-150235072D01*
X85326000Y-150263140D01*
X85326000Y-150726860D01*
X85323236Y-150754928D01*
X85316840Y-150776009D01*
X85306452Y-150795445D01*
X85292476Y-150812476D01*
X85275445Y-150826452D01*
X85256009Y-150836840D01*
X85234928Y-150843236D01*
X85206860Y-150846000D01*
X83293140Y-150846000D01*
X83265072Y-150843236D01*
X83243991Y-150836840D01*
X83224555Y-150826452D01*
X83207524Y-150812476D01*
X83193548Y-150795445D01*
X83183160Y-150776009D01*
X83176764Y-150754928D01*
X83174000Y-150726860D01*
X83174000Y-150263140D01*
X83176764Y-150235072D01*
X83183160Y-150213991D01*
X83193548Y-150194555D01*
X83207524Y-150177524D01*
X83224555Y-150163548D01*
X83243991Y-150153160D01*
X83265072Y-150146764D01*
X83293140Y-150144000D01*
X85206860Y-150144000D01*
X85234928Y-150146764D01*
G37*
G36*
X94534928Y-150146764D02*
G01*
X94556009Y-150153160D01*
X94575445Y-150163548D01*
X94592476Y-150177524D01*
X94606452Y-150194555D01*
X94616840Y-150213991D01*
X94623236Y-150235072D01*
X94626000Y-150263140D01*
X94626000Y-150726860D01*
X94623236Y-150754928D01*
X94616840Y-150776009D01*
X94606452Y-150795445D01*
X94592476Y-150812476D01*
X94575445Y-150826452D01*
X94556009Y-150836840D01*
X94534928Y-150843236D01*
X94506860Y-150846000D01*
X92593140Y-150846000D01*
X92565072Y-150843236D01*
X92543991Y-150836840D01*
X92524555Y-150826452D01*
X92507524Y-150812476D01*
X92493548Y-150795445D01*
X92483160Y-150776009D01*
X92476764Y-150754928D01*
X92474000Y-150726860D01*
X92474000Y-150263140D01*
X92476764Y-150235072D01*
X92483160Y-150213991D01*
X92493548Y-150194555D01*
X92507524Y-150177524D01*
X92524555Y-150163548D01*
X92543991Y-150153160D01*
X92565072Y-150146764D01*
X92593140Y-150144000D01*
X94506860Y-150144000D01*
X94534928Y-150146764D01*
G37*
G36*
X80049468Y-149113565D02*
G01*
X80088138Y-149125296D01*
X80123777Y-149144346D01*
X80155017Y-149169983D01*
X80180654Y-149201223D01*
X80199704Y-149236862D01*
X80211435Y-149275532D01*
X80216000Y-149321888D01*
X80216000Y-150398112D01*
X80211435Y-150444468D01*
X80199704Y-150483138D01*
X80180654Y-150518777D01*
X80155017Y-150550017D01*
X80123777Y-150575654D01*
X80088138Y-150594704D01*
X80049468Y-150606435D01*
X80003112Y-150611000D01*
X79351888Y-150611000D01*
X79305532Y-150606435D01*
X79266862Y-150594704D01*
X79231223Y-150575654D01*
X79199983Y-150550017D01*
X79174346Y-150518777D01*
X79155296Y-150483138D01*
X79143565Y-150444468D01*
X79139000Y-150398112D01*
X79139000Y-149321888D01*
X79143565Y-149275532D01*
X79155296Y-149236862D01*
X79174346Y-149201223D01*
X79199983Y-149169983D01*
X79231223Y-149144346D01*
X79266862Y-149125296D01*
X79305532Y-149113565D01*
X79351888Y-149109000D01*
X80003112Y-149109000D01*
X80049468Y-149113565D01*
G37*
G36*
X78174468Y-149113565D02*
G01*
X78213138Y-149125296D01*
X78248777Y-149144346D01*
X78280017Y-149169983D01*
X78305654Y-149201223D01*
X78324704Y-149236862D01*
X78336435Y-149275532D01*
X78341000Y-149321888D01*
X78341000Y-150398112D01*
X78336435Y-150444468D01*
X78324704Y-150483138D01*
X78305654Y-150518777D01*
X78280017Y-150550017D01*
X78248777Y-150575654D01*
X78213138Y-150594704D01*
X78174468Y-150606435D01*
X78128112Y-150611000D01*
X77476888Y-150611000D01*
X77430532Y-150606435D01*
X77391862Y-150594704D01*
X77356223Y-150575654D01*
X77324983Y-150550017D01*
X77299346Y-150518777D01*
X77280296Y-150483138D01*
X77268565Y-150444468D01*
X77264000Y-150398112D01*
X77264000Y-149321888D01*
X77268565Y-149275532D01*
X77280296Y-149236862D01*
X77299346Y-149201223D01*
X77324983Y-149169983D01*
X77356223Y-149144346D01*
X77391862Y-149125296D01*
X77430532Y-149113565D01*
X77476888Y-149109000D01*
X78128112Y-149109000D01*
X78174468Y-149113565D01*
G37*
G36*
X94534928Y-148876764D02*
G01*
X94556009Y-148883160D01*
X94575445Y-148893548D01*
X94592476Y-148907524D01*
X94606452Y-148924555D01*
X94616840Y-148943991D01*
X94623236Y-148965072D01*
X94626000Y-148993140D01*
X94626000Y-149456860D01*
X94623236Y-149484928D01*
X94616840Y-149506009D01*
X94606452Y-149525445D01*
X94592476Y-149542476D01*
X94575445Y-149556452D01*
X94556009Y-149566840D01*
X94534928Y-149573236D01*
X94506860Y-149576000D01*
X92593140Y-149576000D01*
X92565072Y-149573236D01*
X92543991Y-149566840D01*
X92524555Y-149556452D01*
X92507524Y-149542476D01*
X92493548Y-149525445D01*
X92483160Y-149506009D01*
X92476764Y-149484928D01*
X92474000Y-149456860D01*
X92474000Y-148993140D01*
X92476764Y-148965072D01*
X92483160Y-148943991D01*
X92493548Y-148924555D01*
X92507524Y-148907524D01*
X92524555Y-148893548D01*
X92543991Y-148883160D01*
X92565072Y-148876764D01*
X92593140Y-148874000D01*
X94506860Y-148874000D01*
X94534928Y-148876764D01*
G37*
G36*
X85234928Y-148876764D02*
G01*
X85256009Y-148883160D01*
X85275445Y-148893548D01*
X85292476Y-148907524D01*
X85306452Y-148924555D01*
X85316840Y-148943991D01*
X85323236Y-148965072D01*
X85326000Y-148993140D01*
X85326000Y-149456860D01*
X85323236Y-149484928D01*
X85316840Y-149506009D01*
X85306452Y-149525445D01*
X85292476Y-149542476D01*
X85275445Y-149556452D01*
X85256009Y-149566840D01*
X85234928Y-149573236D01*
X85206860Y-149576000D01*
X83293140Y-149576000D01*
X83265072Y-149573236D01*
X83243991Y-149566840D01*
X83224555Y-149556452D01*
X83207524Y-149542476D01*
X83193548Y-149525445D01*
X83183160Y-149506009D01*
X83176764Y-149484928D01*
X83174000Y-149456860D01*
X83174000Y-148993140D01*
X83176764Y-148965072D01*
X83183160Y-148943991D01*
X83193548Y-148924555D01*
X83207524Y-148907524D01*
X83224555Y-148893548D01*
X83243991Y-148883160D01*
X83265072Y-148876764D01*
X83293140Y-148874000D01*
X85206860Y-148874000D01*
X85234928Y-148876764D01*
G37*
G36*
X94534928Y-147606764D02*
G01*
X94556009Y-147613160D01*
X94575445Y-147623548D01*
X94592476Y-147637524D01*
X94606452Y-147654555D01*
X94616840Y-147673991D01*
X94623236Y-147695072D01*
X94626000Y-147723140D01*
X94626000Y-148186860D01*
X94623236Y-148214928D01*
X94616840Y-148236009D01*
X94606452Y-148255445D01*
X94592476Y-148272476D01*
X94575445Y-148286452D01*
X94556009Y-148296840D01*
X94534928Y-148303236D01*
X94506860Y-148306000D01*
X92593140Y-148306000D01*
X92565072Y-148303236D01*
X92543991Y-148296840D01*
X92524555Y-148286452D01*
X92507524Y-148272476D01*
X92493548Y-148255445D01*
X92483160Y-148236009D01*
X92476764Y-148214928D01*
X92474000Y-148186860D01*
X92474000Y-147723140D01*
X92476764Y-147695072D01*
X92483160Y-147673991D01*
X92493548Y-147654555D01*
X92507524Y-147637524D01*
X92524555Y-147623548D01*
X92543991Y-147613160D01*
X92565072Y-147606764D01*
X92593140Y-147604000D01*
X94506860Y-147604000D01*
X94534928Y-147606764D01*
G37*
G36*
X85234928Y-147606764D02*
G01*
X85256009Y-147613160D01*
X85275445Y-147623548D01*
X85292476Y-147637524D01*
X85306452Y-147654555D01*
X85316840Y-147673991D01*
X85323236Y-147695072D01*
X85326000Y-147723140D01*
X85326000Y-148186860D01*
X85323236Y-148214928D01*
X85316840Y-148236009D01*
X85306452Y-148255445D01*
X85292476Y-148272476D01*
X85275445Y-148286452D01*
X85256009Y-148296840D01*
X85234928Y-148303236D01*
X85206860Y-148306000D01*
X83293140Y-148306000D01*
X83265072Y-148303236D01*
X83243991Y-148296840D01*
X83224555Y-148286452D01*
X83207524Y-148272476D01*
X83193548Y-148255445D01*
X83183160Y-148236009D01*
X83176764Y-148214928D01*
X83174000Y-148186860D01*
X83174000Y-147723140D01*
X83176764Y-147695072D01*
X83183160Y-147673991D01*
X83193548Y-147654555D01*
X83207524Y-147637524D01*
X83224555Y-147623548D01*
X83243991Y-147613160D01*
X83265072Y-147606764D01*
X83293140Y-147604000D01*
X85206860Y-147604000D01*
X85234928Y-147606764D01*
G37*
G36*
X89794928Y-142641764D02*
G01*
X89816009Y-142648160D01*
X89835445Y-142658548D01*
X89852476Y-142672524D01*
X89866452Y-142689555D01*
X89876840Y-142708991D01*
X89883236Y-142730072D01*
X89886000Y-142758140D01*
X89886000Y-144671860D01*
X89883236Y-144699928D01*
X89876840Y-144721009D01*
X89866452Y-144740445D01*
X89852476Y-144757476D01*
X89835445Y-144771452D01*
X89816009Y-144781840D01*
X89794928Y-144788236D01*
X89766860Y-144791000D01*
X89303140Y-144791000D01*
X89275072Y-144788236D01*
X89253991Y-144781840D01*
X89234555Y-144771452D01*
X89217524Y-144757476D01*
X89203548Y-144740445D01*
X89193160Y-144721009D01*
X89186764Y-144699928D01*
X89184000Y-144671860D01*
X89184000Y-142758140D01*
X89186764Y-142730072D01*
X89193160Y-142708991D01*
X89203548Y-142689555D01*
X89217524Y-142672524D01*
X89234555Y-142658548D01*
X89253991Y-142648160D01*
X89275072Y-142641764D01*
X89303140Y-142639000D01*
X89766860Y-142639000D01*
X89794928Y-142641764D01*
G37*
G36*
X94874928Y-142641764D02*
G01*
X94896009Y-142648160D01*
X94915445Y-142658548D01*
X94932476Y-142672524D01*
X94946452Y-142689555D01*
X94956840Y-142708991D01*
X94963236Y-142730072D01*
X94966000Y-142758140D01*
X94966000Y-144671860D01*
X94963236Y-144699928D01*
X94956840Y-144721009D01*
X94946452Y-144740445D01*
X94932476Y-144757476D01*
X94915445Y-144771452D01*
X94896009Y-144781840D01*
X94874928Y-144788236D01*
X94846860Y-144791000D01*
X94383140Y-144791000D01*
X94355072Y-144788236D01*
X94333991Y-144781840D01*
X94314555Y-144771452D01*
X94297524Y-144757476D01*
X94283548Y-144740445D01*
X94273160Y-144721009D01*
X94266764Y-144699928D01*
X94264000Y-144671860D01*
X94264000Y-142758140D01*
X94266764Y-142730072D01*
X94273160Y-142708991D01*
X94283548Y-142689555D01*
X94297524Y-142672524D01*
X94314555Y-142658548D01*
X94333991Y-142648160D01*
X94355072Y-142641764D01*
X94383140Y-142639000D01*
X94846860Y-142639000D01*
X94874928Y-142641764D01*
G37*
G36*
X83444928Y-142641764D02*
G01*
X83466009Y-142648160D01*
X83485445Y-142658548D01*
X83502476Y-142672524D01*
X83516452Y-142689555D01*
X83526840Y-142708991D01*
X83533236Y-142730072D01*
X83536000Y-142758140D01*
X83536000Y-144671860D01*
X83533236Y-144699928D01*
X83526840Y-144721009D01*
X83516452Y-144740445D01*
X83502476Y-144757476D01*
X83485445Y-144771452D01*
X83466009Y-144781840D01*
X83444928Y-144788236D01*
X83416860Y-144791000D01*
X82953140Y-144791000D01*
X82925072Y-144788236D01*
X82903991Y-144781840D01*
X82884555Y-144771452D01*
X82867524Y-144757476D01*
X82853548Y-144740445D01*
X82843160Y-144721009D01*
X82836764Y-144699928D01*
X82834000Y-144671860D01*
X82834000Y-142758140D01*
X82836764Y-142730072D01*
X82843160Y-142708991D01*
X82853548Y-142689555D01*
X82867524Y-142672524D01*
X82884555Y-142658548D01*
X82903991Y-142648160D01*
X82925072Y-142641764D01*
X82953140Y-142639000D01*
X83416860Y-142639000D01*
X83444928Y-142641764D01*
G37*
G36*
X84714928Y-142641764D02*
G01*
X84736009Y-142648160D01*
X84755445Y-142658548D01*
X84772476Y-142672524D01*
X84786452Y-142689555D01*
X84796840Y-142708991D01*
X84803236Y-142730072D01*
X84806000Y-142758140D01*
X84806000Y-144671860D01*
X84803236Y-144699928D01*
X84796840Y-144721009D01*
X84786452Y-144740445D01*
X84772476Y-144757476D01*
X84755445Y-144771452D01*
X84736009Y-144781840D01*
X84714928Y-144788236D01*
X84686860Y-144791000D01*
X84223140Y-144791000D01*
X84195072Y-144788236D01*
X84173991Y-144781840D01*
X84154555Y-144771452D01*
X84137524Y-144757476D01*
X84123548Y-144740445D01*
X84113160Y-144721009D01*
X84106764Y-144699928D01*
X84104000Y-144671860D01*
X84104000Y-142758140D01*
X84106764Y-142730072D01*
X84113160Y-142708991D01*
X84123548Y-142689555D01*
X84137524Y-142672524D01*
X84154555Y-142658548D01*
X84173991Y-142648160D01*
X84195072Y-142641764D01*
X84223140Y-142639000D01*
X84686860Y-142639000D01*
X84714928Y-142641764D01*
G37*
G36*
X85984928Y-142641764D02*
G01*
X86006009Y-142648160D01*
X86025445Y-142658548D01*
X86042476Y-142672524D01*
X86056452Y-142689555D01*
X86066840Y-142708991D01*
X86073236Y-142730072D01*
X86076000Y-142758140D01*
X86076000Y-144671860D01*
X86073236Y-144699928D01*
X86066840Y-144721009D01*
X86056452Y-144740445D01*
X86042476Y-144757476D01*
X86025445Y-144771452D01*
X86006009Y-144781840D01*
X85984928Y-144788236D01*
X85956860Y-144791000D01*
X85493140Y-144791000D01*
X85465072Y-144788236D01*
X85443991Y-144781840D01*
X85424555Y-144771452D01*
X85407524Y-144757476D01*
X85393548Y-144740445D01*
X85383160Y-144721009D01*
X85376764Y-144699928D01*
X85374000Y-144671860D01*
X85374000Y-142758140D01*
X85376764Y-142730072D01*
X85383160Y-142708991D01*
X85393548Y-142689555D01*
X85407524Y-142672524D01*
X85424555Y-142658548D01*
X85443991Y-142648160D01*
X85465072Y-142641764D01*
X85493140Y-142639000D01*
X85956860Y-142639000D01*
X85984928Y-142641764D01*
G37*
G36*
X87254928Y-142641764D02*
G01*
X87276009Y-142648160D01*
X87295445Y-142658548D01*
X87312476Y-142672524D01*
X87326452Y-142689555D01*
X87336840Y-142708991D01*
X87343236Y-142730072D01*
X87346000Y-142758140D01*
X87346000Y-144671860D01*
X87343236Y-144699928D01*
X87336840Y-144721009D01*
X87326452Y-144740445D01*
X87312476Y-144757476D01*
X87295445Y-144771452D01*
X87276009Y-144781840D01*
X87254928Y-144788236D01*
X87226860Y-144791000D01*
X86763140Y-144791000D01*
X86735072Y-144788236D01*
X86713991Y-144781840D01*
X86694555Y-144771452D01*
X86677524Y-144757476D01*
X86663548Y-144740445D01*
X86653160Y-144721009D01*
X86646764Y-144699928D01*
X86644000Y-144671860D01*
X86644000Y-142758140D01*
X86646764Y-142730072D01*
X86653160Y-142708991D01*
X86663548Y-142689555D01*
X86677524Y-142672524D01*
X86694555Y-142658548D01*
X86713991Y-142648160D01*
X86735072Y-142641764D01*
X86763140Y-142639000D01*
X87226860Y-142639000D01*
X87254928Y-142641764D01*
G37*
G36*
X88524928Y-142641764D02*
G01*
X88546009Y-142648160D01*
X88565445Y-142658548D01*
X88582476Y-142672524D01*
X88596452Y-142689555D01*
X88606840Y-142708991D01*
X88613236Y-142730072D01*
X88616000Y-142758140D01*
X88616000Y-144671860D01*
X88613236Y-144699928D01*
X88606840Y-144721009D01*
X88596452Y-144740445D01*
X88582476Y-144757476D01*
X88565445Y-144771452D01*
X88546009Y-144781840D01*
X88524928Y-144788236D01*
X88496860Y-144791000D01*
X88033140Y-144791000D01*
X88005072Y-144788236D01*
X87983991Y-144781840D01*
X87964555Y-144771452D01*
X87947524Y-144757476D01*
X87933548Y-144740445D01*
X87923160Y-144721009D01*
X87916764Y-144699928D01*
X87914000Y-144671860D01*
X87914000Y-142758140D01*
X87916764Y-142730072D01*
X87923160Y-142708991D01*
X87933548Y-142689555D01*
X87947524Y-142672524D01*
X87964555Y-142658548D01*
X87983991Y-142648160D01*
X88005072Y-142641764D01*
X88033140Y-142639000D01*
X88496860Y-142639000D01*
X88524928Y-142641764D01*
G37*
G36*
X92334928Y-142641764D02*
G01*
X92356009Y-142648160D01*
X92375445Y-142658548D01*
X92392476Y-142672524D01*
X92406452Y-142689555D01*
X92416840Y-142708991D01*
X92423236Y-142730072D01*
X92426000Y-142758140D01*
X92426000Y-144671860D01*
X92423236Y-144699928D01*
X92416840Y-144721009D01*
X92406452Y-144740445D01*
X92392476Y-144757476D01*
X92375445Y-144771452D01*
X92356009Y-144781840D01*
X92334928Y-144788236D01*
X92306860Y-144791000D01*
X91843140Y-144791000D01*
X91815072Y-144788236D01*
X91793991Y-144781840D01*
X91774555Y-144771452D01*
X91757524Y-144757476D01*
X91743548Y-144740445D01*
X91733160Y-144721009D01*
X91726764Y-144699928D01*
X91724000Y-144671860D01*
X91724000Y-142758140D01*
X91726764Y-142730072D01*
X91733160Y-142708991D01*
X91743548Y-142689555D01*
X91757524Y-142672524D01*
X91774555Y-142658548D01*
X91793991Y-142648160D01*
X91815072Y-142641764D01*
X91843140Y-142639000D01*
X92306860Y-142639000D01*
X92334928Y-142641764D01*
G37*
G36*
X93604928Y-142641764D02*
G01*
X93626009Y-142648160D01*
X93645445Y-142658548D01*
X93662476Y-142672524D01*
X93676452Y-142689555D01*
X93686840Y-142708991D01*
X93693236Y-142730072D01*
X93696000Y-142758140D01*
X93696000Y-144671860D01*
X93693236Y-144699928D01*
X93686840Y-144721009D01*
X93676452Y-144740445D01*
X93662476Y-144757476D01*
X93645445Y-144771452D01*
X93626009Y-144781840D01*
X93604928Y-144788236D01*
X93576860Y-144791000D01*
X93113140Y-144791000D01*
X93085072Y-144788236D01*
X93063991Y-144781840D01*
X93044555Y-144771452D01*
X93027524Y-144757476D01*
X93013548Y-144740445D01*
X93003160Y-144721009D01*
X92996764Y-144699928D01*
X92994000Y-144671860D01*
X92994000Y-142758140D01*
X92996764Y-142730072D01*
X93003160Y-142708991D01*
X93013548Y-142689555D01*
X93027524Y-142672524D01*
X93044555Y-142658548D01*
X93063991Y-142648160D01*
X93085072Y-142641764D01*
X93113140Y-142639000D01*
X93576860Y-142639000D01*
X93604928Y-142641764D01*
G37*
G36*
X91064928Y-142641764D02*
G01*
X91086009Y-142648160D01*
X91105445Y-142658548D01*
X91122476Y-142672524D01*
X91136452Y-142689555D01*
X91146840Y-142708991D01*
X91153236Y-142730072D01*
X91156000Y-142758140D01*
X91156000Y-144671860D01*
X91153236Y-144699928D01*
X91146840Y-144721009D01*
X91136452Y-144740445D01*
X91122476Y-144757476D01*
X91105445Y-144771452D01*
X91086009Y-144781840D01*
X91064928Y-144788236D01*
X91036860Y-144791000D01*
X90573140Y-144791000D01*
X90545072Y-144788236D01*
X90523991Y-144781840D01*
X90504555Y-144771452D01*
X90487524Y-144757476D01*
X90473548Y-144740445D01*
X90463160Y-144721009D01*
X90456764Y-144699928D01*
X90454000Y-144671860D01*
X90454000Y-142758140D01*
X90456764Y-142730072D01*
X90463160Y-142708991D01*
X90473548Y-142689555D01*
X90487524Y-142672524D01*
X90504555Y-142658548D01*
X90523991Y-142648160D01*
X90545072Y-142641764D01*
X90573140Y-142639000D01*
X91036860Y-142639000D01*
X91064928Y-142641764D01*
G37*
G36*
X80049468Y-139588565D02*
G01*
X80088138Y-139600296D01*
X80123777Y-139619346D01*
X80155017Y-139644983D01*
X80180654Y-139676223D01*
X80199704Y-139711862D01*
X80211435Y-139750532D01*
X80216000Y-139796888D01*
X80216000Y-140873112D01*
X80211435Y-140919468D01*
X80199704Y-140958138D01*
X80180654Y-140993777D01*
X80155017Y-141025017D01*
X80123777Y-141050654D01*
X80088138Y-141069704D01*
X80049468Y-141081435D01*
X80003112Y-141086000D01*
X79351888Y-141086000D01*
X79305532Y-141081435D01*
X79266862Y-141069704D01*
X79231223Y-141050654D01*
X79199983Y-141025017D01*
X79174346Y-140993777D01*
X79155296Y-140958138D01*
X79143565Y-140919468D01*
X79139000Y-140873112D01*
X79139000Y-139796888D01*
X79143565Y-139750532D01*
X79155296Y-139711862D01*
X79174346Y-139676223D01*
X79199983Y-139644983D01*
X79231223Y-139619346D01*
X79266862Y-139600296D01*
X79305532Y-139588565D01*
X79351888Y-139584000D01*
X80003112Y-139584000D01*
X80049468Y-139588565D01*
G37*
G36*
X78174468Y-139588565D02*
G01*
X78213138Y-139600296D01*
X78248777Y-139619346D01*
X78280017Y-139644983D01*
X78305654Y-139676223D01*
X78324704Y-139711862D01*
X78336435Y-139750532D01*
X78341000Y-139796888D01*
X78341000Y-140873112D01*
X78336435Y-140919468D01*
X78324704Y-140958138D01*
X78305654Y-140993777D01*
X78280017Y-141025017D01*
X78248777Y-141050654D01*
X78213138Y-141069704D01*
X78174468Y-141081435D01*
X78128112Y-141086000D01*
X77476888Y-141086000D01*
X77430532Y-141081435D01*
X77391862Y-141069704D01*
X77356223Y-141050654D01*
X77324983Y-141025017D01*
X77299346Y-140993777D01*
X77280296Y-140958138D01*
X77268565Y-140919468D01*
X77264000Y-140873112D01*
X77264000Y-139796888D01*
X77268565Y-139750532D01*
X77280296Y-139711862D01*
X77299346Y-139676223D01*
X77324983Y-139644983D01*
X77356223Y-139619346D01*
X77391862Y-139600296D01*
X77430532Y-139588565D01*
X77476888Y-139584000D01*
X78128112Y-139584000D01*
X78174468Y-139588565D01*
G37*
G36*
X98494468Y-139588565D02*
G01*
X98533138Y-139600296D01*
X98568777Y-139619346D01*
X98600017Y-139644983D01*
X98625654Y-139676223D01*
X98644704Y-139711862D01*
X98656435Y-139750532D01*
X98661000Y-139796888D01*
X98661000Y-140873112D01*
X98656435Y-140919468D01*
X98644704Y-140958138D01*
X98625654Y-140993777D01*
X98600017Y-141025017D01*
X98568777Y-141050654D01*
X98533138Y-141069704D01*
X98494468Y-141081435D01*
X98448112Y-141086000D01*
X97796888Y-141086000D01*
X97750532Y-141081435D01*
X97711862Y-141069704D01*
X97676223Y-141050654D01*
X97644983Y-141025017D01*
X97619346Y-140993777D01*
X97600296Y-140958138D01*
X97588565Y-140919468D01*
X97584000Y-140873112D01*
X97584000Y-139796888D01*
X97588565Y-139750532D01*
X97600296Y-139711862D01*
X97619346Y-139676223D01*
X97644983Y-139644983D01*
X97676223Y-139619346D01*
X97711862Y-139600296D01*
X97750532Y-139588565D01*
X97796888Y-139584000D01*
X98448112Y-139584000D01*
X98494468Y-139588565D01*
G37*
G36*
X100369468Y-139588565D02*
G01*
X100408138Y-139600296D01*
X100443777Y-139619346D01*
X100475017Y-139644983D01*
X100500654Y-139676223D01*
X100519704Y-139711862D01*
X100531435Y-139750532D01*
X100536000Y-139796888D01*
X100536000Y-140873112D01*
X100531435Y-140919468D01*
X100519704Y-140958138D01*
X100500654Y-140993777D01*
X100475017Y-141025017D01*
X100443777Y-141050654D01*
X100408138Y-141069704D01*
X100369468Y-141081435D01*
X100323112Y-141086000D01*
X99671888Y-141086000D01*
X99625532Y-141081435D01*
X99586862Y-141069704D01*
X99551223Y-141050654D01*
X99519983Y-141025017D01*
X99494346Y-140993777D01*
X99475296Y-140958138D01*
X99463565Y-140919468D01*
X99459000Y-140873112D01*
X99459000Y-139796888D01*
X99463565Y-139750532D01*
X99475296Y-139711862D01*
X99494346Y-139676223D01*
X99519983Y-139644983D01*
X99551223Y-139619346D01*
X99586862Y-139600296D01*
X99625532Y-139588565D01*
X99671888Y-139584000D01*
X100323112Y-139584000D01*
X100369468Y-139588565D01*
G37*
G36*
X100369468Y-135778565D02*
G01*
X100408138Y-135790296D01*
X100443777Y-135809346D01*
X100475017Y-135834983D01*
X100500654Y-135866223D01*
X100519704Y-135901862D01*
X100531435Y-135940532D01*
X100536000Y-135986888D01*
X100536000Y-137063112D01*
X100531435Y-137109468D01*
X100519704Y-137148138D01*
X100500654Y-137183777D01*
X100475017Y-137215017D01*
X100443777Y-137240654D01*
X100408138Y-137259704D01*
X100369468Y-137271435D01*
X100323112Y-137276000D01*
X99671888Y-137276000D01*
X99625532Y-137271435D01*
X99586862Y-137259704D01*
X99551223Y-137240654D01*
X99519983Y-137215017D01*
X99494346Y-137183777D01*
X99475296Y-137148138D01*
X99463565Y-137109468D01*
X99459000Y-137063112D01*
X99459000Y-135986888D01*
X99463565Y-135940532D01*
X99475296Y-135901862D01*
X99494346Y-135866223D01*
X99519983Y-135834983D01*
X99551223Y-135809346D01*
X99586862Y-135790296D01*
X99625532Y-135778565D01*
X99671888Y-135774000D01*
X100323112Y-135774000D01*
X100369468Y-135778565D01*
G37*
G36*
X98494468Y-135778565D02*
G01*
X98533138Y-135790296D01*
X98568777Y-135809346D01*
X98600017Y-135834983D01*
X98625654Y-135866223D01*
X98644704Y-135901862D01*
X98656435Y-135940532D01*
X98661000Y-135986888D01*
X98661000Y-137063112D01*
X98656435Y-137109468D01*
X98644704Y-137148138D01*
X98625654Y-137183777D01*
X98600017Y-137215017D01*
X98568777Y-137240654D01*
X98533138Y-137259704D01*
X98494468Y-137271435D01*
X98448112Y-137276000D01*
X97796888Y-137276000D01*
X97750532Y-137271435D01*
X97711862Y-137259704D01*
X97676223Y-137240654D01*
X97644983Y-137215017D01*
X97619346Y-137183777D01*
X97600296Y-137148138D01*
X97588565Y-137109468D01*
X97584000Y-137063112D01*
X97584000Y-135986888D01*
X97588565Y-135940532D01*
X97600296Y-135901862D01*
X97619346Y-135866223D01*
X97644983Y-135834983D01*
X97676223Y-135809346D01*
X97711862Y-135790296D01*
X97750532Y-135778565D01*
X97796888Y-135774000D01*
X98448112Y-135774000D01*
X98494468Y-135778565D01*
G37*
G36*
X78174468Y-135778565D02*
G01*
X78213138Y-135790296D01*
X78248777Y-135809346D01*
X78280017Y-135834983D01*
X78305654Y-135866223D01*
X78324704Y-135901862D01*
X78336435Y-135940532D01*
X78341000Y-135986888D01*
X78341000Y-137063112D01*
X78336435Y-137109468D01*
X78324704Y-137148138D01*
X78305654Y-137183777D01*
X78280017Y-137215017D01*
X78248777Y-137240654D01*
X78213138Y-137259704D01*
X78174468Y-137271435D01*
X78128112Y-137276000D01*
X77476888Y-137276000D01*
X77430532Y-137271435D01*
X77391862Y-137259704D01*
X77356223Y-137240654D01*
X77324983Y-137215017D01*
X77299346Y-137183777D01*
X77280296Y-137148138D01*
X77268565Y-137109468D01*
X77264000Y-137063112D01*
X77264000Y-135986888D01*
X77268565Y-135940532D01*
X77280296Y-135901862D01*
X77299346Y-135866223D01*
X77324983Y-135834983D01*
X77356223Y-135809346D01*
X77391862Y-135790296D01*
X77430532Y-135778565D01*
X77476888Y-135774000D01*
X78128112Y-135774000D01*
X78174468Y-135778565D01*
G37*
G36*
X80049468Y-135778565D02*
G01*
X80088138Y-135790296D01*
X80123777Y-135809346D01*
X80155017Y-135834983D01*
X80180654Y-135866223D01*
X80199704Y-135901862D01*
X80211435Y-135940532D01*
X80216000Y-135986888D01*
X80216000Y-137063112D01*
X80211435Y-137109468D01*
X80199704Y-137148138D01*
X80180654Y-137183777D01*
X80155017Y-137215017D01*
X80123777Y-137240654D01*
X80088138Y-137259704D01*
X80049468Y-137271435D01*
X80003112Y-137276000D01*
X79351888Y-137276000D01*
X79305532Y-137271435D01*
X79266862Y-137259704D01*
X79231223Y-137240654D01*
X79199983Y-137215017D01*
X79174346Y-137183777D01*
X79155296Y-137148138D01*
X79143565Y-137109468D01*
X79139000Y-137063112D01*
X79139000Y-135986888D01*
X79143565Y-135940532D01*
X79155296Y-135901862D01*
X79174346Y-135866223D01*
X79199983Y-135834983D01*
X79231223Y-135809346D01*
X79266862Y-135790296D01*
X79305532Y-135778565D01*
X79351888Y-135774000D01*
X80003112Y-135774000D01*
X80049468Y-135778565D01*
G37*
G36*
X84714928Y-133341764D02*
G01*
X84736009Y-133348160D01*
X84755445Y-133358548D01*
X84772476Y-133372524D01*
X84786452Y-133389555D01*
X84796840Y-133408991D01*
X84803236Y-133430072D01*
X84806000Y-133458140D01*
X84806000Y-135371860D01*
X84803236Y-135399928D01*
X84796840Y-135421009D01*
X84786452Y-135440445D01*
X84772476Y-135457476D01*
X84755445Y-135471452D01*
X84736009Y-135481840D01*
X84714928Y-135488236D01*
X84686860Y-135491000D01*
X84223140Y-135491000D01*
X84195072Y-135488236D01*
X84173991Y-135481840D01*
X84154555Y-135471452D01*
X84137524Y-135457476D01*
X84123548Y-135440445D01*
X84113160Y-135421009D01*
X84106764Y-135399928D01*
X84104000Y-135371860D01*
X84104000Y-133458140D01*
X84106764Y-133430072D01*
X84113160Y-133408991D01*
X84123548Y-133389555D01*
X84137524Y-133372524D01*
X84154555Y-133358548D01*
X84173991Y-133348160D01*
X84195072Y-133341764D01*
X84223140Y-133339000D01*
X84686860Y-133339000D01*
X84714928Y-133341764D01*
G37*
G36*
X85984928Y-133341764D02*
G01*
X86006009Y-133348160D01*
X86025445Y-133358548D01*
X86042476Y-133372524D01*
X86056452Y-133389555D01*
X86066840Y-133408991D01*
X86073236Y-133430072D01*
X86076000Y-133458140D01*
X86076000Y-135371860D01*
X86073236Y-135399928D01*
X86066840Y-135421009D01*
X86056452Y-135440445D01*
X86042476Y-135457476D01*
X86025445Y-135471452D01*
X86006009Y-135481840D01*
X85984928Y-135488236D01*
X85956860Y-135491000D01*
X85493140Y-135491000D01*
X85465072Y-135488236D01*
X85443991Y-135481840D01*
X85424555Y-135471452D01*
X85407524Y-135457476D01*
X85393548Y-135440445D01*
X85383160Y-135421009D01*
X85376764Y-135399928D01*
X85374000Y-135371860D01*
X85374000Y-133458140D01*
X85376764Y-133430072D01*
X85383160Y-133408991D01*
X85393548Y-133389555D01*
X85407524Y-133372524D01*
X85424555Y-133358548D01*
X85443991Y-133348160D01*
X85465072Y-133341764D01*
X85493140Y-133339000D01*
X85956860Y-133339000D01*
X85984928Y-133341764D01*
G37*
G36*
X87254928Y-133341764D02*
G01*
X87276009Y-133348160D01*
X87295445Y-133358548D01*
X87312476Y-133372524D01*
X87326452Y-133389555D01*
X87336840Y-133408991D01*
X87343236Y-133430072D01*
X87346000Y-133458140D01*
X87346000Y-135371860D01*
X87343236Y-135399928D01*
X87336840Y-135421009D01*
X87326452Y-135440445D01*
X87312476Y-135457476D01*
X87295445Y-135471452D01*
X87276009Y-135481840D01*
X87254928Y-135488236D01*
X87226860Y-135491000D01*
X86763140Y-135491000D01*
X86735072Y-135488236D01*
X86713991Y-135481840D01*
X86694555Y-135471452D01*
X86677524Y-135457476D01*
X86663548Y-135440445D01*
X86653160Y-135421009D01*
X86646764Y-135399928D01*
X86644000Y-135371860D01*
X86644000Y-133458140D01*
X86646764Y-133430072D01*
X86653160Y-133408991D01*
X86663548Y-133389555D01*
X86677524Y-133372524D01*
X86694555Y-133358548D01*
X86713991Y-133348160D01*
X86735072Y-133341764D01*
X86763140Y-133339000D01*
X87226860Y-133339000D01*
X87254928Y-133341764D01*
G37*
G36*
X88524928Y-133341764D02*
G01*
X88546009Y-133348160D01*
X88565445Y-133358548D01*
X88582476Y-133372524D01*
X88596452Y-133389555D01*
X88606840Y-133408991D01*
X88613236Y-133430072D01*
X88616000Y-133458140D01*
X88616000Y-135371860D01*
X88613236Y-135399928D01*
X88606840Y-135421009D01*
X88596452Y-135440445D01*
X88582476Y-135457476D01*
X88565445Y-135471452D01*
X88546009Y-135481840D01*
X88524928Y-135488236D01*
X88496860Y-135491000D01*
X88033140Y-135491000D01*
X88005072Y-135488236D01*
X87983991Y-135481840D01*
X87964555Y-135471452D01*
X87947524Y-135457476D01*
X87933548Y-135440445D01*
X87923160Y-135421009D01*
X87916764Y-135399928D01*
X87914000Y-135371860D01*
X87914000Y-133458140D01*
X87916764Y-133430072D01*
X87923160Y-133408991D01*
X87933548Y-133389555D01*
X87947524Y-133372524D01*
X87964555Y-133358548D01*
X87983991Y-133348160D01*
X88005072Y-133341764D01*
X88033140Y-133339000D01*
X88496860Y-133339000D01*
X88524928Y-133341764D01*
G37*
G36*
X83444928Y-133341764D02*
G01*
X83466009Y-133348160D01*
X83485445Y-133358548D01*
X83502476Y-133372524D01*
X83516452Y-133389555D01*
X83526840Y-133408991D01*
X83533236Y-133430072D01*
X83536000Y-133458140D01*
X83536000Y-135371860D01*
X83533236Y-135399928D01*
X83526840Y-135421009D01*
X83516452Y-135440445D01*
X83502476Y-135457476D01*
X83485445Y-135471452D01*
X83466009Y-135481840D01*
X83444928Y-135488236D01*
X83416860Y-135491000D01*
X82953140Y-135491000D01*
X82925072Y-135488236D01*
X82903991Y-135481840D01*
X82884555Y-135471452D01*
X82867524Y-135457476D01*
X82853548Y-135440445D01*
X82843160Y-135421009D01*
X82836764Y-135399928D01*
X82834000Y-135371860D01*
X82834000Y-133458140D01*
X82836764Y-133430072D01*
X82843160Y-133408991D01*
X82853548Y-133389555D01*
X82867524Y-133372524D01*
X82884555Y-133358548D01*
X82903991Y-133348160D01*
X82925072Y-133341764D01*
X82953140Y-133339000D01*
X83416860Y-133339000D01*
X83444928Y-133341764D01*
G37*
G36*
X89794928Y-133341764D02*
G01*
X89816009Y-133348160D01*
X89835445Y-133358548D01*
X89852476Y-133372524D01*
X89866452Y-133389555D01*
X89876840Y-133408991D01*
X89883236Y-133430072D01*
X89886000Y-133458140D01*
X89886000Y-135371860D01*
X89883236Y-135399928D01*
X89876840Y-135421009D01*
X89866452Y-135440445D01*
X89852476Y-135457476D01*
X89835445Y-135471452D01*
X89816009Y-135481840D01*
X89794928Y-135488236D01*
X89766860Y-135491000D01*
X89303140Y-135491000D01*
X89275072Y-135488236D01*
X89253991Y-135481840D01*
X89234555Y-135471452D01*
X89217524Y-135457476D01*
X89203548Y-135440445D01*
X89193160Y-135421009D01*
X89186764Y-135399928D01*
X89184000Y-135371860D01*
X89184000Y-133458140D01*
X89186764Y-133430072D01*
X89193160Y-133408991D01*
X89203548Y-133389555D01*
X89217524Y-133372524D01*
X89234555Y-133358548D01*
X89253991Y-133348160D01*
X89275072Y-133341764D01*
X89303140Y-133339000D01*
X89766860Y-133339000D01*
X89794928Y-133341764D01*
G37*
G36*
X94874928Y-133341764D02*
G01*
X94896009Y-133348160D01*
X94915445Y-133358548D01*
X94932476Y-133372524D01*
X94946452Y-133389555D01*
X94956840Y-133408991D01*
X94963236Y-133430072D01*
X94966000Y-133458140D01*
X94966000Y-135371860D01*
X94963236Y-135399928D01*
X94956840Y-135421009D01*
X94946452Y-135440445D01*
X94932476Y-135457476D01*
X94915445Y-135471452D01*
X94896009Y-135481840D01*
X94874928Y-135488236D01*
X94846860Y-135491000D01*
X94383140Y-135491000D01*
X94355072Y-135488236D01*
X94333991Y-135481840D01*
X94314555Y-135471452D01*
X94297524Y-135457476D01*
X94283548Y-135440445D01*
X94273160Y-135421009D01*
X94266764Y-135399928D01*
X94264000Y-135371860D01*
X94264000Y-133458140D01*
X94266764Y-133430072D01*
X94273160Y-133408991D01*
X94283548Y-133389555D01*
X94297524Y-133372524D01*
X94314555Y-133358548D01*
X94333991Y-133348160D01*
X94355072Y-133341764D01*
X94383140Y-133339000D01*
X94846860Y-133339000D01*
X94874928Y-133341764D01*
G37*
G36*
X93604928Y-133341764D02*
G01*
X93626009Y-133348160D01*
X93645445Y-133358548D01*
X93662476Y-133372524D01*
X93676452Y-133389555D01*
X93686840Y-133408991D01*
X93693236Y-133430072D01*
X93696000Y-133458140D01*
X93696000Y-135371860D01*
X93693236Y-135399928D01*
X93686840Y-135421009D01*
X93676452Y-135440445D01*
X93662476Y-135457476D01*
X93645445Y-135471452D01*
X93626009Y-135481840D01*
X93604928Y-135488236D01*
X93576860Y-135491000D01*
X93113140Y-135491000D01*
X93085072Y-135488236D01*
X93063991Y-135481840D01*
X93044555Y-135471452D01*
X93027524Y-135457476D01*
X93013548Y-135440445D01*
X93003160Y-135421009D01*
X92996764Y-135399928D01*
X92994000Y-135371860D01*
X92994000Y-133458140D01*
X92996764Y-133430072D01*
X93003160Y-133408991D01*
X93013548Y-133389555D01*
X93027524Y-133372524D01*
X93044555Y-133358548D01*
X93063991Y-133348160D01*
X93085072Y-133341764D01*
X93113140Y-133339000D01*
X93576860Y-133339000D01*
X93604928Y-133341764D01*
G37*
G36*
X92334928Y-133341764D02*
G01*
X92356009Y-133348160D01*
X92375445Y-133358548D01*
X92392476Y-133372524D01*
X92406452Y-133389555D01*
X92416840Y-133408991D01*
X92423236Y-133430072D01*
X92426000Y-133458140D01*
X92426000Y-135371860D01*
X92423236Y-135399928D01*
X92416840Y-135421009D01*
X92406452Y-135440445D01*
X92392476Y-135457476D01*
X92375445Y-135471452D01*
X92356009Y-135481840D01*
X92334928Y-135488236D01*
X92306860Y-135491000D01*
X91843140Y-135491000D01*
X91815072Y-135488236D01*
X91793991Y-135481840D01*
X91774555Y-135471452D01*
X91757524Y-135457476D01*
X91743548Y-135440445D01*
X91733160Y-135421009D01*
X91726764Y-135399928D01*
X91724000Y-135371860D01*
X91724000Y-133458140D01*
X91726764Y-133430072D01*
X91733160Y-133408991D01*
X91743548Y-133389555D01*
X91757524Y-133372524D01*
X91774555Y-133358548D01*
X91793991Y-133348160D01*
X91815072Y-133341764D01*
X91843140Y-133339000D01*
X92306860Y-133339000D01*
X92334928Y-133341764D01*
G37*
G36*
X91064928Y-133341764D02*
G01*
X91086009Y-133348160D01*
X91105445Y-133358548D01*
X91122476Y-133372524D01*
X91136452Y-133389555D01*
X91146840Y-133408991D01*
X91153236Y-133430072D01*
X91156000Y-133458140D01*
X91156000Y-135371860D01*
X91153236Y-135399928D01*
X91146840Y-135421009D01*
X91136452Y-135440445D01*
X91122476Y-135457476D01*
X91105445Y-135471452D01*
X91086009Y-135481840D01*
X91064928Y-135488236D01*
X91036860Y-135491000D01*
X90573140Y-135491000D01*
X90545072Y-135488236D01*
X90523991Y-135481840D01*
X90504555Y-135471452D01*
X90487524Y-135457476D01*
X90473548Y-135440445D01*
X90463160Y-135421009D01*
X90456764Y-135399928D01*
X90454000Y-135371860D01*
X90454000Y-133458140D01*
X90456764Y-133430072D01*
X90463160Y-133408991D01*
X90473548Y-133389555D01*
X90487524Y-133372524D01*
X90504555Y-133358548D01*
X90523991Y-133348160D01*
X90545072Y-133341764D01*
X90573140Y-133339000D01*
X91036860Y-133339000D01*
X91064928Y-133341764D01*
G37*
G36*
X100369468Y-131968565D02*
G01*
X100408138Y-131980296D01*
X100443777Y-131999346D01*
X100475017Y-132024983D01*
X100500654Y-132056223D01*
X100519704Y-132091862D01*
X100531435Y-132130532D01*
X100536000Y-132176888D01*
X100536000Y-133253112D01*
X100531435Y-133299468D01*
X100519704Y-133338138D01*
X100500654Y-133373777D01*
X100475017Y-133405017D01*
X100443777Y-133430654D01*
X100408138Y-133449704D01*
X100369468Y-133461435D01*
X100323112Y-133466000D01*
X99671888Y-133466000D01*
X99625532Y-133461435D01*
X99586862Y-133449704D01*
X99551223Y-133430654D01*
X99519983Y-133405017D01*
X99494346Y-133373777D01*
X99475296Y-133338138D01*
X99463565Y-133299468D01*
X99459000Y-133253112D01*
X99459000Y-132176888D01*
X99463565Y-132130532D01*
X99475296Y-132091862D01*
X99494346Y-132056223D01*
X99519983Y-132024983D01*
X99551223Y-131999346D01*
X99586862Y-131980296D01*
X99625532Y-131968565D01*
X99671888Y-131964000D01*
X100323112Y-131964000D01*
X100369468Y-131968565D01*
G37*
G36*
X98494468Y-131968565D02*
G01*
X98533138Y-131980296D01*
X98568777Y-131999346D01*
X98600017Y-132024983D01*
X98625654Y-132056223D01*
X98644704Y-132091862D01*
X98656435Y-132130532D01*
X98661000Y-132176888D01*
X98661000Y-133253112D01*
X98656435Y-133299468D01*
X98644704Y-133338138D01*
X98625654Y-133373777D01*
X98600017Y-133405017D01*
X98568777Y-133430654D01*
X98533138Y-133449704D01*
X98494468Y-133461435D01*
X98448112Y-133466000D01*
X97796888Y-133466000D01*
X97750532Y-133461435D01*
X97711862Y-133449704D01*
X97676223Y-133430654D01*
X97644983Y-133405017D01*
X97619346Y-133373777D01*
X97600296Y-133338138D01*
X97588565Y-133299468D01*
X97584000Y-133253112D01*
X97584000Y-132176888D01*
X97588565Y-132130532D01*
X97600296Y-132091862D01*
X97619346Y-132056223D01*
X97644983Y-132024983D01*
X97676223Y-131999346D01*
X97711862Y-131980296D01*
X97750532Y-131968565D01*
X97796888Y-131964000D01*
X98448112Y-131964000D01*
X98494468Y-131968565D01*
G37*
G36*
X80049468Y-131968565D02*
G01*
X80088138Y-131980296D01*
X80123777Y-131999346D01*
X80155017Y-132024983D01*
X80180654Y-132056223D01*
X80199704Y-132091862D01*
X80211435Y-132130532D01*
X80216000Y-132176888D01*
X80216000Y-133253112D01*
X80211435Y-133299468D01*
X80199704Y-133338138D01*
X80180654Y-133373777D01*
X80155017Y-133405017D01*
X80123777Y-133430654D01*
X80088138Y-133449704D01*
X80049468Y-133461435D01*
X80003112Y-133466000D01*
X79351888Y-133466000D01*
X79305532Y-133461435D01*
X79266862Y-133449704D01*
X79231223Y-133430654D01*
X79199983Y-133405017D01*
X79174346Y-133373777D01*
X79155296Y-133338138D01*
X79143565Y-133299468D01*
X79139000Y-133253112D01*
X79139000Y-132176888D01*
X79143565Y-132130532D01*
X79155296Y-132091862D01*
X79174346Y-132056223D01*
X79199983Y-132024983D01*
X79231223Y-131999346D01*
X79266862Y-131980296D01*
X79305532Y-131968565D01*
X79351888Y-131964000D01*
X80003112Y-131964000D01*
X80049468Y-131968565D01*
G37*
G36*
X78174468Y-131968565D02*
G01*
X78213138Y-131980296D01*
X78248777Y-131999346D01*
X78280017Y-132024983D01*
X78305654Y-132056223D01*
X78324704Y-132091862D01*
X78336435Y-132130532D01*
X78341000Y-132176888D01*
X78341000Y-133253112D01*
X78336435Y-133299468D01*
X78324704Y-133338138D01*
X78305654Y-133373777D01*
X78280017Y-133405017D01*
X78248777Y-133430654D01*
X78213138Y-133449704D01*
X78174468Y-133461435D01*
X78128112Y-133466000D01*
X77476888Y-133466000D01*
X77430532Y-133461435D01*
X77391862Y-133449704D01*
X77356223Y-133430654D01*
X77324983Y-133405017D01*
X77299346Y-133373777D01*
X77280296Y-133338138D01*
X77268565Y-133299468D01*
X77264000Y-133253112D01*
X77264000Y-132176888D01*
X77268565Y-132130532D01*
X77280296Y-132091862D01*
X77299346Y-132056223D01*
X77324983Y-132024983D01*
X77356223Y-131999346D01*
X77391862Y-131980296D01*
X77430532Y-131968565D01*
X77476888Y-131964000D01*
X78128112Y-131964000D01*
X78174468Y-131968565D01*
G37*
G36*
X78174468Y-128158565D02*
G01*
X78213138Y-128170296D01*
X78248777Y-128189346D01*
X78280017Y-128214983D01*
X78305654Y-128246223D01*
X78324704Y-128281862D01*
X78336435Y-128320532D01*
X78341000Y-128366888D01*
X78341000Y-129443112D01*
X78336435Y-129489468D01*
X78324704Y-129528138D01*
X78305654Y-129563777D01*
X78280017Y-129595017D01*
X78248777Y-129620654D01*
X78213138Y-129639704D01*
X78174468Y-129651435D01*
X78128112Y-129656000D01*
X77476888Y-129656000D01*
X77430532Y-129651435D01*
X77391862Y-129639704D01*
X77356223Y-129620654D01*
X77324983Y-129595017D01*
X77299346Y-129563777D01*
X77280296Y-129528138D01*
X77268565Y-129489468D01*
X77264000Y-129443112D01*
X77264000Y-128366888D01*
X77268565Y-128320532D01*
X77280296Y-128281862D01*
X77299346Y-128246223D01*
X77324983Y-128214983D01*
X77356223Y-128189346D01*
X77391862Y-128170296D01*
X77430532Y-128158565D01*
X77476888Y-128154000D01*
X78128112Y-128154000D01*
X78174468Y-128158565D01*
G37*
G36*
X98494468Y-128158565D02*
G01*
X98533138Y-128170296D01*
X98568777Y-128189346D01*
X98600017Y-128214983D01*
X98625654Y-128246223D01*
X98644704Y-128281862D01*
X98656435Y-128320532D01*
X98661000Y-128366888D01*
X98661000Y-129443112D01*
X98656435Y-129489468D01*
X98644704Y-129528138D01*
X98625654Y-129563777D01*
X98600017Y-129595017D01*
X98568777Y-129620654D01*
X98533138Y-129639704D01*
X98494468Y-129651435D01*
X98448112Y-129656000D01*
X97796888Y-129656000D01*
X97750532Y-129651435D01*
X97711862Y-129639704D01*
X97676223Y-129620654D01*
X97644983Y-129595017D01*
X97619346Y-129563777D01*
X97600296Y-129528138D01*
X97588565Y-129489468D01*
X97584000Y-129443112D01*
X97584000Y-128366888D01*
X97588565Y-128320532D01*
X97600296Y-128281862D01*
X97619346Y-128246223D01*
X97644983Y-128214983D01*
X97676223Y-128189346D01*
X97711862Y-128170296D01*
X97750532Y-128158565D01*
X97796888Y-128154000D01*
X98448112Y-128154000D01*
X98494468Y-128158565D01*
G37*
G36*
X100369468Y-128158565D02*
G01*
X100408138Y-128170296D01*
X100443777Y-128189346D01*
X100475017Y-128214983D01*
X100500654Y-128246223D01*
X100519704Y-128281862D01*
X100531435Y-128320532D01*
X100536000Y-128366888D01*
X100536000Y-129443112D01*
X100531435Y-129489468D01*
X100519704Y-129528138D01*
X100500654Y-129563777D01*
X100475017Y-129595017D01*
X100443777Y-129620654D01*
X100408138Y-129639704D01*
X100369468Y-129651435D01*
X100323112Y-129656000D01*
X99671888Y-129656000D01*
X99625532Y-129651435D01*
X99586862Y-129639704D01*
X99551223Y-129620654D01*
X99519983Y-129595017D01*
X99494346Y-129563777D01*
X99475296Y-129528138D01*
X99463565Y-129489468D01*
X99459000Y-129443112D01*
X99459000Y-128366888D01*
X99463565Y-128320532D01*
X99475296Y-128281862D01*
X99494346Y-128246223D01*
X99519983Y-128214983D01*
X99551223Y-128189346D01*
X99586862Y-128170296D01*
X99625532Y-128158565D01*
X99671888Y-128154000D01*
X100323112Y-128154000D01*
X100369468Y-128158565D01*
G37*
G36*
X80049468Y-128158565D02*
G01*
X80088138Y-128170296D01*
X80123777Y-128189346D01*
X80155017Y-128214983D01*
X80180654Y-128246223D01*
X80199704Y-128281862D01*
X80211435Y-128320532D01*
X80216000Y-128366888D01*
X80216000Y-129443112D01*
X80211435Y-129489468D01*
X80199704Y-129528138D01*
X80180654Y-129563777D01*
X80155017Y-129595017D01*
X80123777Y-129620654D01*
X80088138Y-129639704D01*
X80049468Y-129651435D01*
X80003112Y-129656000D01*
X79351888Y-129656000D01*
X79305532Y-129651435D01*
X79266862Y-129639704D01*
X79231223Y-129620654D01*
X79199983Y-129595017D01*
X79174346Y-129563777D01*
X79155296Y-129528138D01*
X79143565Y-129489468D01*
X79139000Y-129443112D01*
X79139000Y-128366888D01*
X79143565Y-128320532D01*
X79155296Y-128281862D01*
X79174346Y-128246223D01*
X79199983Y-128214983D01*
X79231223Y-128189346D01*
X79266862Y-128170296D01*
X79305532Y-128158565D01*
X79351888Y-128154000D01*
X80003112Y-128154000D01*
X80049468Y-128158565D01*
G37*
G36*
X86735256Y-124248298D02*
G01*
X86841579Y-124269447D01*
X87142042Y-124393903D01*
X87412451Y-124574585D01*
X87642415Y-124804549D01*
X87823097Y-125074958D01*
X87947553Y-125375421D01*
X88011000Y-125694391D01*
X88011000Y-126019609D01*
X87947553Y-126338579D01*
X87823097Y-126639042D01*
X87642415Y-126909451D01*
X87412451Y-127139415D01*
X87142042Y-127320097D01*
X86841579Y-127444553D01*
X86735256Y-127465702D01*
X86522611Y-127508000D01*
X86197389Y-127508000D01*
X85984744Y-127465702D01*
X85878421Y-127444553D01*
X85577958Y-127320097D01*
X85307549Y-127139415D01*
X85077585Y-126909451D01*
X84896903Y-126639042D01*
X84772447Y-126338579D01*
X84709000Y-126019609D01*
X84709000Y-125694391D01*
X84772447Y-125375421D01*
X84896903Y-125074958D01*
X85077585Y-124804549D01*
X85307549Y-124574585D01*
X85577958Y-124393903D01*
X85878421Y-124269447D01*
X85984744Y-124248298D01*
X86197389Y-124206000D01*
X86522611Y-124206000D01*
X86735256Y-124248298D01*
G37*
G36*
X91815256Y-124248298D02*
G01*
X91921579Y-124269447D01*
X92222042Y-124393903D01*
X92492451Y-124574585D01*
X92722415Y-124804549D01*
X92903097Y-125074958D01*
X93027553Y-125375421D01*
X93091000Y-125694391D01*
X93091000Y-126019609D01*
X93027553Y-126338579D01*
X92903097Y-126639042D01*
X92722415Y-126909451D01*
X92492451Y-127139415D01*
X92222042Y-127320097D01*
X91921579Y-127444553D01*
X91815256Y-127465702D01*
X91602611Y-127508000D01*
X91277389Y-127508000D01*
X91064744Y-127465702D01*
X90958421Y-127444553D01*
X90657958Y-127320097D01*
X90387549Y-127139415D01*
X90157585Y-126909451D01*
X89976903Y-126639042D01*
X89852447Y-126338579D01*
X89789000Y-126019609D01*
X89789000Y-125694391D01*
X89852447Y-125375421D01*
X89976903Y-125074958D01*
X90157585Y-124804549D01*
X90387549Y-124574585D01*
X90657958Y-124393903D01*
X90958421Y-124269447D01*
X91064744Y-124248298D01*
X91277389Y-124206000D01*
X91602611Y-124206000D01*
X91815256Y-124248298D01*
G37*
M02*
