G04 #@! TF.GenerationSoftware,KiCad,Pcbnew,(5.1.5)-3*
G04 #@! TF.CreationDate,2020-01-28T18:53:24+01:00*
G04 #@! TF.ProjectId,CAN SPI Isolated v2.0,43414e20-5350-4492-9049-736f6c617465,rev?*
G04 #@! TF.SameCoordinates,Original*
G04 #@! TF.FileFunction,Paste,Bot*
G04 #@! TF.FilePolarity,Positive*
%FSLAX46Y46*%
G04 Gerber Fmt 4.6, Leading zero omitted, Abs format (unit mm)*
G04 Created by KiCad (PCBNEW (5.1.5)-3) date 2020-01-28 18:53:24*
%MOMM*%
%LPD*%
G04 APERTURE LIST*
%ADD10C,0.100000*%
G04 APERTURE END LIST*
D10*
G36*
X89380142Y-127989174D02*
G01*
X89403803Y-127992684D01*
X89427007Y-127998496D01*
X89449529Y-128006554D01*
X89471153Y-128016782D01*
X89491670Y-128029079D01*
X89510883Y-128043329D01*
X89528607Y-128059393D01*
X89544671Y-128077117D01*
X89558921Y-128096330D01*
X89571218Y-128116847D01*
X89581446Y-128138471D01*
X89589504Y-128160993D01*
X89595316Y-128184197D01*
X89598826Y-128207858D01*
X89600000Y-128231750D01*
X89600000Y-128719250D01*
X89598826Y-128743142D01*
X89595316Y-128766803D01*
X89589504Y-128790007D01*
X89581446Y-128812529D01*
X89571218Y-128834153D01*
X89558921Y-128854670D01*
X89544671Y-128873883D01*
X89528607Y-128891607D01*
X89510883Y-128907671D01*
X89491670Y-128921921D01*
X89471153Y-128934218D01*
X89449529Y-128944446D01*
X89427007Y-128952504D01*
X89403803Y-128958316D01*
X89380142Y-128961826D01*
X89356250Y-128963000D01*
X88443750Y-128963000D01*
X88419858Y-128961826D01*
X88396197Y-128958316D01*
X88372993Y-128952504D01*
X88350471Y-128944446D01*
X88328847Y-128934218D01*
X88308330Y-128921921D01*
X88289117Y-128907671D01*
X88271393Y-128891607D01*
X88255329Y-128873883D01*
X88241079Y-128854670D01*
X88228782Y-128834153D01*
X88218554Y-128812529D01*
X88210496Y-128790007D01*
X88204684Y-128766803D01*
X88201174Y-128743142D01*
X88200000Y-128719250D01*
X88200000Y-128231750D01*
X88201174Y-128207858D01*
X88204684Y-128184197D01*
X88210496Y-128160993D01*
X88218554Y-128138471D01*
X88228782Y-128116847D01*
X88241079Y-128096330D01*
X88255329Y-128077117D01*
X88271393Y-128059393D01*
X88289117Y-128043329D01*
X88308330Y-128029079D01*
X88328847Y-128016782D01*
X88350471Y-128006554D01*
X88372993Y-127998496D01*
X88396197Y-127992684D01*
X88419858Y-127989174D01*
X88443750Y-127988000D01*
X89356250Y-127988000D01*
X89380142Y-127989174D01*
G37*
G36*
X89380142Y-129864174D02*
G01*
X89403803Y-129867684D01*
X89427007Y-129873496D01*
X89449529Y-129881554D01*
X89471153Y-129891782D01*
X89491670Y-129904079D01*
X89510883Y-129918329D01*
X89528607Y-129934393D01*
X89544671Y-129952117D01*
X89558921Y-129971330D01*
X89571218Y-129991847D01*
X89581446Y-130013471D01*
X89589504Y-130035993D01*
X89595316Y-130059197D01*
X89598826Y-130082858D01*
X89600000Y-130106750D01*
X89600000Y-130594250D01*
X89598826Y-130618142D01*
X89595316Y-130641803D01*
X89589504Y-130665007D01*
X89581446Y-130687529D01*
X89571218Y-130709153D01*
X89558921Y-130729670D01*
X89544671Y-130748883D01*
X89528607Y-130766607D01*
X89510883Y-130782671D01*
X89491670Y-130796921D01*
X89471153Y-130809218D01*
X89449529Y-130819446D01*
X89427007Y-130827504D01*
X89403803Y-130833316D01*
X89380142Y-130836826D01*
X89356250Y-130838000D01*
X88443750Y-130838000D01*
X88419858Y-130836826D01*
X88396197Y-130833316D01*
X88372993Y-130827504D01*
X88350471Y-130819446D01*
X88328847Y-130809218D01*
X88308330Y-130796921D01*
X88289117Y-130782671D01*
X88271393Y-130766607D01*
X88255329Y-130748883D01*
X88241079Y-130729670D01*
X88228782Y-130709153D01*
X88218554Y-130687529D01*
X88210496Y-130665007D01*
X88204684Y-130641803D01*
X88201174Y-130618142D01*
X88200000Y-130594250D01*
X88200000Y-130106750D01*
X88201174Y-130082858D01*
X88204684Y-130059197D01*
X88210496Y-130035993D01*
X88218554Y-130013471D01*
X88228782Y-129991847D01*
X88241079Y-129971330D01*
X88255329Y-129952117D01*
X88271393Y-129934393D01*
X88289117Y-129918329D01*
X88308330Y-129904079D01*
X88328847Y-129891782D01*
X88350471Y-129881554D01*
X88372993Y-129873496D01*
X88396197Y-129867684D01*
X88419858Y-129864174D01*
X88443750Y-129863000D01*
X89356250Y-129863000D01*
X89380142Y-129864174D01*
G37*
G36*
X93915142Y-129476174D02*
G01*
X93938803Y-129479684D01*
X93962007Y-129485496D01*
X93984529Y-129493554D01*
X94006153Y-129503782D01*
X94026670Y-129516079D01*
X94045883Y-129530329D01*
X94063607Y-129546393D01*
X94079671Y-129564117D01*
X94093921Y-129583330D01*
X94106218Y-129603847D01*
X94116446Y-129625471D01*
X94124504Y-129647993D01*
X94130316Y-129671197D01*
X94133826Y-129694858D01*
X94135000Y-129718750D01*
X94135000Y-130631250D01*
X94133826Y-130655142D01*
X94130316Y-130678803D01*
X94124504Y-130702007D01*
X94116446Y-130724529D01*
X94106218Y-130746153D01*
X94093921Y-130766670D01*
X94079671Y-130785883D01*
X94063607Y-130803607D01*
X94045883Y-130819671D01*
X94026670Y-130833921D01*
X94006153Y-130846218D01*
X93984529Y-130856446D01*
X93962007Y-130864504D01*
X93938803Y-130870316D01*
X93915142Y-130873826D01*
X93891250Y-130875000D01*
X93403750Y-130875000D01*
X93379858Y-130873826D01*
X93356197Y-130870316D01*
X93332993Y-130864504D01*
X93310471Y-130856446D01*
X93288847Y-130846218D01*
X93268330Y-130833921D01*
X93249117Y-130819671D01*
X93231393Y-130803607D01*
X93215329Y-130785883D01*
X93201079Y-130766670D01*
X93188782Y-130746153D01*
X93178554Y-130724529D01*
X93170496Y-130702007D01*
X93164684Y-130678803D01*
X93161174Y-130655142D01*
X93160000Y-130631250D01*
X93160000Y-129718750D01*
X93161174Y-129694858D01*
X93164684Y-129671197D01*
X93170496Y-129647993D01*
X93178554Y-129625471D01*
X93188782Y-129603847D01*
X93201079Y-129583330D01*
X93215329Y-129564117D01*
X93231393Y-129546393D01*
X93249117Y-129530329D01*
X93268330Y-129516079D01*
X93288847Y-129503782D01*
X93310471Y-129493554D01*
X93332993Y-129485496D01*
X93356197Y-129479684D01*
X93379858Y-129476174D01*
X93403750Y-129475000D01*
X93891250Y-129475000D01*
X93915142Y-129476174D01*
G37*
G36*
X92040142Y-129476174D02*
G01*
X92063803Y-129479684D01*
X92087007Y-129485496D01*
X92109529Y-129493554D01*
X92131153Y-129503782D01*
X92151670Y-129516079D01*
X92170883Y-129530329D01*
X92188607Y-129546393D01*
X92204671Y-129564117D01*
X92218921Y-129583330D01*
X92231218Y-129603847D01*
X92241446Y-129625471D01*
X92249504Y-129647993D01*
X92255316Y-129671197D01*
X92258826Y-129694858D01*
X92260000Y-129718750D01*
X92260000Y-130631250D01*
X92258826Y-130655142D01*
X92255316Y-130678803D01*
X92249504Y-130702007D01*
X92241446Y-130724529D01*
X92231218Y-130746153D01*
X92218921Y-130766670D01*
X92204671Y-130785883D01*
X92188607Y-130803607D01*
X92170883Y-130819671D01*
X92151670Y-130833921D01*
X92131153Y-130846218D01*
X92109529Y-130856446D01*
X92087007Y-130864504D01*
X92063803Y-130870316D01*
X92040142Y-130873826D01*
X92016250Y-130875000D01*
X91528750Y-130875000D01*
X91504858Y-130873826D01*
X91481197Y-130870316D01*
X91457993Y-130864504D01*
X91435471Y-130856446D01*
X91413847Y-130846218D01*
X91393330Y-130833921D01*
X91374117Y-130819671D01*
X91356393Y-130803607D01*
X91340329Y-130785883D01*
X91326079Y-130766670D01*
X91313782Y-130746153D01*
X91303554Y-130724529D01*
X91295496Y-130702007D01*
X91289684Y-130678803D01*
X91286174Y-130655142D01*
X91285000Y-130631250D01*
X91285000Y-129718750D01*
X91286174Y-129694858D01*
X91289684Y-129671197D01*
X91295496Y-129647993D01*
X91303554Y-129625471D01*
X91313782Y-129603847D01*
X91326079Y-129583330D01*
X91340329Y-129564117D01*
X91356393Y-129546393D01*
X91374117Y-129530329D01*
X91393330Y-129516079D01*
X91413847Y-129503782D01*
X91435471Y-129493554D01*
X91457993Y-129485496D01*
X91481197Y-129479684D01*
X91504858Y-129476174D01*
X91528750Y-129475000D01*
X92016250Y-129475000D01*
X92040142Y-129476174D01*
G37*
G36*
X84420142Y-129476174D02*
G01*
X84443803Y-129479684D01*
X84467007Y-129485496D01*
X84489529Y-129493554D01*
X84511153Y-129503782D01*
X84531670Y-129516079D01*
X84550883Y-129530329D01*
X84568607Y-129546393D01*
X84584671Y-129564117D01*
X84598921Y-129583330D01*
X84611218Y-129603847D01*
X84621446Y-129625471D01*
X84629504Y-129647993D01*
X84635316Y-129671197D01*
X84638826Y-129694858D01*
X84640000Y-129718750D01*
X84640000Y-130631250D01*
X84638826Y-130655142D01*
X84635316Y-130678803D01*
X84629504Y-130702007D01*
X84621446Y-130724529D01*
X84611218Y-130746153D01*
X84598921Y-130766670D01*
X84584671Y-130785883D01*
X84568607Y-130803607D01*
X84550883Y-130819671D01*
X84531670Y-130833921D01*
X84511153Y-130846218D01*
X84489529Y-130856446D01*
X84467007Y-130864504D01*
X84443803Y-130870316D01*
X84420142Y-130873826D01*
X84396250Y-130875000D01*
X83908750Y-130875000D01*
X83884858Y-130873826D01*
X83861197Y-130870316D01*
X83837993Y-130864504D01*
X83815471Y-130856446D01*
X83793847Y-130846218D01*
X83773330Y-130833921D01*
X83754117Y-130819671D01*
X83736393Y-130803607D01*
X83720329Y-130785883D01*
X83706079Y-130766670D01*
X83693782Y-130746153D01*
X83683554Y-130724529D01*
X83675496Y-130702007D01*
X83669684Y-130678803D01*
X83666174Y-130655142D01*
X83665000Y-130631250D01*
X83665000Y-129718750D01*
X83666174Y-129694858D01*
X83669684Y-129671197D01*
X83675496Y-129647993D01*
X83683554Y-129625471D01*
X83693782Y-129603847D01*
X83706079Y-129583330D01*
X83720329Y-129564117D01*
X83736393Y-129546393D01*
X83754117Y-129530329D01*
X83773330Y-129516079D01*
X83793847Y-129503782D01*
X83815471Y-129493554D01*
X83837993Y-129485496D01*
X83861197Y-129479684D01*
X83884858Y-129476174D01*
X83908750Y-129475000D01*
X84396250Y-129475000D01*
X84420142Y-129476174D01*
G37*
G36*
X86295142Y-129476174D02*
G01*
X86318803Y-129479684D01*
X86342007Y-129485496D01*
X86364529Y-129493554D01*
X86386153Y-129503782D01*
X86406670Y-129516079D01*
X86425883Y-129530329D01*
X86443607Y-129546393D01*
X86459671Y-129564117D01*
X86473921Y-129583330D01*
X86486218Y-129603847D01*
X86496446Y-129625471D01*
X86504504Y-129647993D01*
X86510316Y-129671197D01*
X86513826Y-129694858D01*
X86515000Y-129718750D01*
X86515000Y-130631250D01*
X86513826Y-130655142D01*
X86510316Y-130678803D01*
X86504504Y-130702007D01*
X86496446Y-130724529D01*
X86486218Y-130746153D01*
X86473921Y-130766670D01*
X86459671Y-130785883D01*
X86443607Y-130803607D01*
X86425883Y-130819671D01*
X86406670Y-130833921D01*
X86386153Y-130846218D01*
X86364529Y-130856446D01*
X86342007Y-130864504D01*
X86318803Y-130870316D01*
X86295142Y-130873826D01*
X86271250Y-130875000D01*
X85783750Y-130875000D01*
X85759858Y-130873826D01*
X85736197Y-130870316D01*
X85712993Y-130864504D01*
X85690471Y-130856446D01*
X85668847Y-130846218D01*
X85648330Y-130833921D01*
X85629117Y-130819671D01*
X85611393Y-130803607D01*
X85595329Y-130785883D01*
X85581079Y-130766670D01*
X85568782Y-130746153D01*
X85558554Y-130724529D01*
X85550496Y-130702007D01*
X85544684Y-130678803D01*
X85541174Y-130655142D01*
X85540000Y-130631250D01*
X85540000Y-129718750D01*
X85541174Y-129694858D01*
X85544684Y-129671197D01*
X85550496Y-129647993D01*
X85558554Y-129625471D01*
X85568782Y-129603847D01*
X85581079Y-129583330D01*
X85595329Y-129564117D01*
X85611393Y-129546393D01*
X85629117Y-129530329D01*
X85648330Y-129516079D01*
X85668847Y-129503782D01*
X85690471Y-129493554D01*
X85712993Y-129485496D01*
X85736197Y-129479684D01*
X85759858Y-129476174D01*
X85783750Y-129475000D01*
X86271250Y-129475000D01*
X86295142Y-129476174D01*
G37*
M02*
