G04 #@! TF.GenerationSoftware,KiCad,Pcbnew,(5.1.5)-3*
G04 #@! TF.CreationDate,2020-01-28T18:53:24+01:00*
G04 #@! TF.ProjectId,CAN SPI Isolated v2.0,43414e20-5350-4492-9049-736f6c617465,rev?*
G04 #@! TF.SameCoordinates,Original*
G04 #@! TF.FileFunction,Legend,Bot*
G04 #@! TF.FilePolarity,Positive*
%FSLAX46Y46*%
G04 Gerber Fmt 4.6, Leading zero omitted, Abs format (unit mm)*
G04 Created by KiCad (PCBNEW (5.1.5)-3) date 2020-01-28 18:53:24*
%MOMM*%
%LPD*%
G04 APERTURE LIST*
%ADD10C,0.150000*%
%ADD11C,0.120000*%
G04 APERTURE END LIST*
D10*
X99350285Y-146394714D02*
X99350285Y-145632714D01*
X99168857Y-145632714D01*
X99060000Y-145669000D01*
X98987428Y-145741571D01*
X98951142Y-145814142D01*
X98914857Y-145959285D01*
X98914857Y-146068142D01*
X98951142Y-146213285D01*
X98987428Y-146285857D01*
X99060000Y-146358428D01*
X99168857Y-146394714D01*
X99350285Y-146394714D01*
X98588285Y-145995571D02*
X98334285Y-145995571D01*
X98225428Y-146394714D02*
X98588285Y-146394714D01*
X98588285Y-145632714D01*
X98225428Y-145632714D01*
X97935142Y-146358428D02*
X97826285Y-146394714D01*
X97644857Y-146394714D01*
X97572285Y-146358428D01*
X97536000Y-146322142D01*
X97499714Y-146249571D01*
X97499714Y-146177000D01*
X97536000Y-146104428D01*
X97572285Y-146068142D01*
X97644857Y-146031857D01*
X97790000Y-145995571D01*
X97862571Y-145959285D01*
X97898857Y-145923000D01*
X97935142Y-145850428D01*
X97935142Y-145777857D01*
X97898857Y-145705285D01*
X97862571Y-145669000D01*
X97790000Y-145632714D01*
X97608571Y-145632714D01*
X97499714Y-145669000D01*
X97173142Y-146394714D02*
X97173142Y-145632714D01*
X96411142Y-145669000D02*
X96483714Y-145632714D01*
X96592571Y-145632714D01*
X96701428Y-145669000D01*
X96774000Y-145741571D01*
X96810285Y-145814142D01*
X96846571Y-145959285D01*
X96846571Y-146068142D01*
X96810285Y-146213285D01*
X96774000Y-146285857D01*
X96701428Y-146358428D01*
X96592571Y-146394714D01*
X96520000Y-146394714D01*
X96411142Y-146358428D01*
X96374857Y-146322142D01*
X96374857Y-146068142D01*
X96520000Y-146068142D01*
X96048285Y-146394714D02*
X96048285Y-145632714D01*
X95612857Y-146394714D01*
X95612857Y-145632714D01*
X95250000Y-145995571D02*
X94996000Y-145995571D01*
X94887142Y-146394714D02*
X95250000Y-146394714D01*
X95250000Y-145632714D01*
X94887142Y-145632714D01*
X94560571Y-146394714D02*
X94560571Y-145632714D01*
X94379142Y-145632714D01*
X94270285Y-145669000D01*
X94197714Y-145741571D01*
X94161428Y-145814142D01*
X94125142Y-145959285D01*
X94125142Y-146068142D01*
X94161428Y-146213285D01*
X94197714Y-146285857D01*
X94270285Y-146358428D01*
X94379142Y-146394714D01*
X94560571Y-146394714D01*
X92964000Y-145995571D02*
X92855142Y-146031857D01*
X92818857Y-146068142D01*
X92782571Y-146140714D01*
X92782571Y-146249571D01*
X92818857Y-146322142D01*
X92855142Y-146358428D01*
X92927714Y-146394714D01*
X93218000Y-146394714D01*
X93218000Y-145632714D01*
X92964000Y-145632714D01*
X92891428Y-145669000D01*
X92855142Y-145705285D01*
X92818857Y-145777857D01*
X92818857Y-145850428D01*
X92855142Y-145923000D01*
X92891428Y-145959285D01*
X92964000Y-145995571D01*
X93218000Y-145995571D01*
X92310857Y-146031857D02*
X92310857Y-146394714D01*
X92564857Y-145632714D02*
X92310857Y-146031857D01*
X92056857Y-145632714D01*
X91802857Y-146322142D02*
X91766571Y-146358428D01*
X91802857Y-146394714D01*
X91839142Y-146358428D01*
X91802857Y-146322142D01*
X91802857Y-146394714D01*
X91802857Y-145923000D02*
X91766571Y-145959285D01*
X91802857Y-145995571D01*
X91839142Y-145959285D01*
X91802857Y-145923000D01*
X91802857Y-145995571D01*
X90859428Y-146394714D02*
X90859428Y-145632714D01*
X90605428Y-146177000D01*
X90351428Y-145632714D01*
X90351428Y-146394714D01*
X89662000Y-146394714D02*
X89662000Y-145995571D01*
X89698285Y-145923000D01*
X89770857Y-145886714D01*
X89916000Y-145886714D01*
X89988571Y-145923000D01*
X89662000Y-146358428D02*
X89734571Y-146394714D01*
X89916000Y-146394714D01*
X89988571Y-146358428D01*
X90024857Y-146285857D01*
X90024857Y-146213285D01*
X89988571Y-146140714D01*
X89916000Y-146104428D01*
X89734571Y-146104428D01*
X89662000Y-146068142D01*
X89299142Y-146394714D02*
X89299142Y-145886714D01*
X89299142Y-146031857D02*
X89262857Y-145959285D01*
X89226571Y-145923000D01*
X89154000Y-145886714D01*
X89081428Y-145886714D01*
X88827428Y-146394714D02*
X88827428Y-145886714D01*
X88827428Y-145632714D02*
X88863714Y-145669000D01*
X88827428Y-145705285D01*
X88791142Y-145669000D01*
X88827428Y-145632714D01*
X88827428Y-145705285D01*
X88355714Y-146394714D02*
X88428285Y-146358428D01*
X88464571Y-146322142D01*
X88500857Y-146249571D01*
X88500857Y-146031857D01*
X88464571Y-145959285D01*
X88428285Y-145923000D01*
X88355714Y-145886714D01*
X88246857Y-145886714D01*
X88174285Y-145923000D01*
X88138000Y-145959285D01*
X88101714Y-146031857D01*
X88101714Y-146249571D01*
X88138000Y-146322142D01*
X88174285Y-146358428D01*
X88246857Y-146394714D01*
X88355714Y-146394714D01*
X87049428Y-145632714D02*
X86904285Y-145632714D01*
X86831714Y-145669000D01*
X86759142Y-145741571D01*
X86722857Y-145886714D01*
X86722857Y-146140714D01*
X86759142Y-146285857D01*
X86831714Y-146358428D01*
X86904285Y-146394714D01*
X87049428Y-146394714D01*
X87122000Y-146358428D01*
X87194571Y-146285857D01*
X87230857Y-146140714D01*
X87230857Y-145886714D01*
X87194571Y-145741571D01*
X87122000Y-145669000D01*
X87049428Y-145632714D01*
X86287428Y-146394714D02*
X86360000Y-146358428D01*
X86396285Y-146285857D01*
X86396285Y-145632714D01*
X85706857Y-146358428D02*
X85779428Y-146394714D01*
X85924571Y-146394714D01*
X85997142Y-146358428D01*
X86033428Y-146285857D01*
X86033428Y-145995571D01*
X85997142Y-145923000D01*
X85924571Y-145886714D01*
X85779428Y-145886714D01*
X85706857Y-145923000D01*
X85670571Y-145995571D01*
X85670571Y-146068142D01*
X86033428Y-146140714D01*
X85452857Y-145886714D02*
X85162571Y-145886714D01*
X85344000Y-145632714D02*
X85344000Y-146285857D01*
X85307714Y-146358428D01*
X85235142Y-146394714D01*
X85162571Y-146394714D01*
X84908571Y-146394714D02*
X84908571Y-145886714D01*
X84908571Y-145632714D02*
X84944857Y-145669000D01*
X84908571Y-145705285D01*
X84872285Y-145669000D01*
X84908571Y-145632714D01*
X84908571Y-145705285D01*
X84219142Y-146358428D02*
X84291714Y-146394714D01*
X84436857Y-146394714D01*
X84509428Y-146358428D01*
X84545714Y-146322142D01*
X84582000Y-146249571D01*
X84582000Y-146031857D01*
X84545714Y-145959285D01*
X84509428Y-145923000D01*
X84436857Y-145886714D01*
X84291714Y-145886714D01*
X84219142Y-145923000D01*
X84291714Y-145596428D02*
X84400571Y-145705285D01*
X83856285Y-146358428D02*
X83856285Y-146394714D01*
X83892571Y-146467285D01*
X83928857Y-146503571D01*
X82949142Y-146394714D02*
X82949142Y-145886714D01*
X82949142Y-145959285D02*
X82912857Y-145923000D01*
X82840285Y-145886714D01*
X82731428Y-145886714D01*
X82658857Y-145923000D01*
X82622571Y-145995571D01*
X82622571Y-146394714D01*
X82622571Y-145995571D02*
X82586285Y-145923000D01*
X82513714Y-145886714D01*
X82404857Y-145886714D01*
X82332285Y-145923000D01*
X82296000Y-145995571D01*
X82296000Y-146394714D01*
X81606571Y-146394714D02*
X81606571Y-145995571D01*
X81642857Y-145923000D01*
X81715428Y-145886714D01*
X81860571Y-145886714D01*
X81933142Y-145923000D01*
X81606571Y-146358428D02*
X81679142Y-146394714D01*
X81860571Y-146394714D01*
X81933142Y-146358428D01*
X81969428Y-146285857D01*
X81969428Y-146213285D01*
X81933142Y-146140714D01*
X81860571Y-146104428D01*
X81679142Y-146104428D01*
X81606571Y-146068142D01*
X80917142Y-145886714D02*
X80917142Y-146503571D01*
X80953428Y-146576142D01*
X80989714Y-146612428D01*
X81062285Y-146648714D01*
X81171142Y-146648714D01*
X81243714Y-146612428D01*
X80917142Y-146358428D02*
X80989714Y-146394714D01*
X81134857Y-146394714D01*
X81207428Y-146358428D01*
X81243714Y-146322142D01*
X81280000Y-146249571D01*
X81280000Y-146031857D01*
X81243714Y-145959285D01*
X81207428Y-145923000D01*
X81134857Y-145886714D01*
X80989714Y-145886714D01*
X80917142Y-145923000D01*
X80554285Y-146322142D02*
X80518000Y-146358428D01*
X80554285Y-146394714D01*
X80590571Y-146358428D01*
X80554285Y-146322142D01*
X80554285Y-146394714D01*
X80191428Y-146394714D02*
X80191428Y-145886714D01*
X80191428Y-145632714D02*
X80227714Y-145669000D01*
X80191428Y-145705285D01*
X80155142Y-145669000D01*
X80191428Y-145632714D01*
X80191428Y-145705285D01*
X79828571Y-145886714D02*
X79828571Y-146394714D01*
X79828571Y-145959285D02*
X79792285Y-145923000D01*
X79719714Y-145886714D01*
X79610857Y-145886714D01*
X79538285Y-145923000D01*
X79502000Y-145995571D01*
X79502000Y-146394714D01*
X78812571Y-145886714D02*
X78812571Y-146503571D01*
X78848857Y-146576142D01*
X78885142Y-146612428D01*
X78957714Y-146648714D01*
X79066571Y-146648714D01*
X79139142Y-146612428D01*
X78812571Y-146358428D02*
X78885142Y-146394714D01*
X79030285Y-146394714D01*
X79102857Y-146358428D01*
X79139142Y-146322142D01*
X79175428Y-146249571D01*
X79175428Y-146031857D01*
X79139142Y-145959285D01*
X79102857Y-145923000D01*
X79030285Y-145886714D01*
X78885142Y-145886714D01*
X78812571Y-145923000D01*
X78449714Y-146322142D02*
X78413428Y-146358428D01*
X78449714Y-146394714D01*
X78486000Y-146358428D01*
X78449714Y-146322142D01*
X78449714Y-146394714D01*
X98443142Y-176874714D02*
X98443142Y-176112714D01*
X98443142Y-176475571D02*
X98007714Y-176475571D01*
X98007714Y-176874714D02*
X98007714Y-176112714D01*
X97717428Y-176112714D02*
X97536000Y-176874714D01*
X97390857Y-176330428D01*
X97245714Y-176874714D01*
X97064285Y-176112714D01*
X95758000Y-176874714D02*
X96012000Y-176511857D01*
X96193428Y-176874714D02*
X96193428Y-176112714D01*
X95903142Y-176112714D01*
X95830571Y-176149000D01*
X95794285Y-176185285D01*
X95758000Y-176257857D01*
X95758000Y-176366714D01*
X95794285Y-176439285D01*
X95830571Y-176475571D01*
X95903142Y-176511857D01*
X96193428Y-176511857D01*
X95431428Y-176475571D02*
X95177428Y-176475571D01*
X95068571Y-176874714D02*
X95431428Y-176874714D01*
X95431428Y-176112714D01*
X95068571Y-176112714D01*
X94850857Y-176112714D02*
X94596857Y-176874714D01*
X94342857Y-176112714D01*
X93109142Y-176874714D02*
X93544571Y-176874714D01*
X93326857Y-176874714D02*
X93326857Y-176112714D01*
X93399428Y-176221571D01*
X93472000Y-176294142D01*
X93544571Y-176330428D01*
X92782571Y-176802142D02*
X92746285Y-176838428D01*
X92782571Y-176874714D01*
X92818857Y-176838428D01*
X92782571Y-176802142D01*
X92782571Y-176874714D01*
X92274571Y-176112714D02*
X92202000Y-176112714D01*
X92129428Y-176149000D01*
X92093142Y-176185285D01*
X92056857Y-176257857D01*
X92020571Y-176403000D01*
X92020571Y-176584428D01*
X92056857Y-176729571D01*
X92093142Y-176802142D01*
X92129428Y-176838428D01*
X92202000Y-176874714D01*
X92274571Y-176874714D01*
X92347142Y-176838428D01*
X92383428Y-176802142D01*
X92419714Y-176729571D01*
X92456000Y-176584428D01*
X92456000Y-176403000D01*
X92419714Y-176257857D01*
X92383428Y-176185285D01*
X92347142Y-176149000D01*
X92274571Y-176112714D01*
D11*
X88190000Y-129671578D02*
X88190000Y-129154422D01*
X89610000Y-129671578D02*
X89610000Y-129154422D01*
X78800000Y-154880000D02*
X77470000Y-154880000D01*
X78800000Y-156210000D02*
X78800000Y-154880000D01*
X78800000Y-157480000D02*
X76140000Y-157480000D01*
X76140000Y-157480000D02*
X76140000Y-175320000D01*
X78800000Y-157480000D02*
X78800000Y-175320000D01*
X78800000Y-175320000D02*
X76140000Y-175320000D01*
X101660000Y-175320000D02*
X99000000Y-175320000D01*
X101660000Y-157480000D02*
X101660000Y-175320000D01*
X99000000Y-157480000D02*
X99000000Y-175320000D01*
X101660000Y-157480000D02*
X99000000Y-157480000D01*
X101660000Y-156210000D02*
X101660000Y-154880000D01*
X101660000Y-154880000D02*
X100330000Y-154880000D01*
X92968578Y-129465000D02*
X92451422Y-129465000D01*
X92968578Y-130885000D02*
X92451422Y-130885000D01*
X85348578Y-130885000D02*
X84831422Y-130885000D01*
X85348578Y-129465000D02*
X84831422Y-129465000D01*
D10*
X89542857Y-132310142D02*
X89590476Y-132357761D01*
X89733333Y-132405380D01*
X89828571Y-132405380D01*
X89971428Y-132357761D01*
X90066666Y-132262523D01*
X90114285Y-132167285D01*
X90161904Y-131976809D01*
X90161904Y-131833952D01*
X90114285Y-131643476D01*
X90066666Y-131548238D01*
X89971428Y-131453000D01*
X89828571Y-131405380D01*
X89733333Y-131405380D01*
X89590476Y-131453000D01*
X89542857Y-131500619D01*
X88590476Y-132405380D02*
X89161904Y-132405380D01*
X88876190Y-132405380D02*
X88876190Y-131405380D01*
X88971428Y-131548238D01*
X89066666Y-131643476D01*
X89161904Y-131691095D01*
X88209523Y-131500619D02*
X88161904Y-131453000D01*
X88066666Y-131405380D01*
X87828571Y-131405380D01*
X87733333Y-131453000D01*
X87685714Y-131500619D01*
X87638095Y-131595857D01*
X87638095Y-131691095D01*
X87685714Y-131833952D01*
X88257142Y-132405380D01*
X87638095Y-132405380D01*
X92876666Y-132532380D02*
X93210000Y-132056190D01*
X93448095Y-132532380D02*
X93448095Y-131532380D01*
X93067142Y-131532380D01*
X92971904Y-131580000D01*
X92924285Y-131627619D01*
X92876666Y-131722857D01*
X92876666Y-131865714D01*
X92924285Y-131960952D01*
X92971904Y-132008571D01*
X93067142Y-132056190D01*
X93448095Y-132056190D01*
X91971904Y-131532380D02*
X92448095Y-131532380D01*
X92495714Y-132008571D01*
X92448095Y-131960952D01*
X92352857Y-131913333D01*
X92114761Y-131913333D01*
X92019523Y-131960952D01*
X91971904Y-132008571D01*
X91924285Y-132103809D01*
X91924285Y-132341904D01*
X91971904Y-132437142D01*
X92019523Y-132484761D01*
X92114761Y-132532380D01*
X92352857Y-132532380D01*
X92448095Y-132484761D01*
X92495714Y-132437142D01*
X85256666Y-132532380D02*
X85590000Y-132056190D01*
X85828095Y-132532380D02*
X85828095Y-131532380D01*
X85447142Y-131532380D01*
X85351904Y-131580000D01*
X85304285Y-131627619D01*
X85256666Y-131722857D01*
X85256666Y-131865714D01*
X85304285Y-131960952D01*
X85351904Y-132008571D01*
X85447142Y-132056190D01*
X85828095Y-132056190D01*
X84399523Y-131532380D02*
X84590000Y-131532380D01*
X84685238Y-131580000D01*
X84732857Y-131627619D01*
X84828095Y-131770476D01*
X84875714Y-131960952D01*
X84875714Y-132341904D01*
X84828095Y-132437142D01*
X84780476Y-132484761D01*
X84685238Y-132532380D01*
X84494761Y-132532380D01*
X84399523Y-132484761D01*
X84351904Y-132437142D01*
X84304285Y-132341904D01*
X84304285Y-132103809D01*
X84351904Y-132008571D01*
X84399523Y-131960952D01*
X84494761Y-131913333D01*
X84685238Y-131913333D01*
X84780476Y-131960952D01*
X84828095Y-132008571D01*
X84875714Y-132103809D01*
M02*
