G04 #@! TF.GenerationSoftware,KiCad,Pcbnew,(5.1.5)-3*
G04 #@! TF.CreationDate,2020-01-28T18:53:24+01:00*
G04 #@! TF.ProjectId,CAN SPI Isolated v2.0,43414e20-5350-4492-9049-736f6c617465,rev?*
G04 #@! TF.SameCoordinates,Original*
G04 #@! TF.FileFunction,Legend,Top*
G04 #@! TF.FilePolarity,Positive*
%FSLAX46Y46*%
G04 Gerber Fmt 4.6, Leading zero omitted, Abs format (unit mm)*
G04 Created by KiCad (PCBNEW (5.1.5)-3) date 2020-01-28 18:53:24*
%MOMM*%
%LPD*%
G04 APERTURE LIST*
%ADD10C,0.150000*%
%ADD11C,0.120000*%
%ADD12C,0.279400*%
G04 APERTURE END LIST*
D10*
X94234000Y-172302714D02*
X94234000Y-171540714D01*
X94524285Y-171540714D01*
X94596857Y-171577000D01*
X94633142Y-171613285D01*
X94669428Y-171685857D01*
X94669428Y-171794714D01*
X94633142Y-171867285D01*
X94596857Y-171903571D01*
X94524285Y-171939857D01*
X94234000Y-171939857D01*
X94923428Y-171540714D02*
X95104857Y-172302714D01*
X95250000Y-171758428D01*
X95395142Y-172302714D01*
X95576571Y-171540714D01*
X96302285Y-172302714D02*
X96048285Y-171939857D01*
X95866857Y-172302714D02*
X95866857Y-171540714D01*
X96157142Y-171540714D01*
X96229714Y-171577000D01*
X96266000Y-171613285D01*
X96302285Y-171685857D01*
X96302285Y-171794714D01*
X96266000Y-171867285D01*
X96229714Y-171903571D01*
X96157142Y-171939857D01*
X95866857Y-171939857D01*
X87829571Y-169254714D02*
X87974714Y-169254714D01*
X88047285Y-169291000D01*
X88119857Y-169363571D01*
X88156142Y-169508714D01*
X88156142Y-169762714D01*
X88119857Y-169907857D01*
X88047285Y-169980428D01*
X87974714Y-170016714D01*
X87829571Y-170016714D01*
X87757000Y-169980428D01*
X87684428Y-169907857D01*
X87648142Y-169762714D01*
X87648142Y-169508714D01*
X87684428Y-169363571D01*
X87757000Y-169291000D01*
X87829571Y-169254714D01*
X88446428Y-169980428D02*
X88555285Y-170016714D01*
X88736714Y-170016714D01*
X88809285Y-169980428D01*
X88845571Y-169944142D01*
X88881857Y-169871571D01*
X88881857Y-169799000D01*
X88845571Y-169726428D01*
X88809285Y-169690142D01*
X88736714Y-169653857D01*
X88591571Y-169617571D01*
X88519000Y-169581285D01*
X88482714Y-169545000D01*
X88446428Y-169472428D01*
X88446428Y-169399857D01*
X88482714Y-169327285D01*
X88519000Y-169291000D01*
X88591571Y-169254714D01*
X88773000Y-169254714D01*
X88881857Y-169291000D01*
X89643857Y-169944142D02*
X89607571Y-169980428D01*
X89498714Y-170016714D01*
X89426142Y-170016714D01*
X89317285Y-169980428D01*
X89244714Y-169907857D01*
X89208428Y-169835285D01*
X89172142Y-169690142D01*
X89172142Y-169581285D01*
X89208428Y-169436142D01*
X89244714Y-169363571D01*
X89317285Y-169291000D01*
X89426142Y-169254714D01*
X89498714Y-169254714D01*
X89607571Y-169291000D01*
X89643857Y-169327285D01*
X85452857Y-171540714D02*
X85090000Y-171540714D01*
X85053714Y-171903571D01*
X85090000Y-171867285D01*
X85162571Y-171831000D01*
X85344000Y-171831000D01*
X85416571Y-171867285D01*
X85452857Y-171903571D01*
X85489142Y-171976142D01*
X85489142Y-172157571D01*
X85452857Y-172230142D01*
X85416571Y-172266428D01*
X85344000Y-172302714D01*
X85162571Y-172302714D01*
X85090000Y-172266428D01*
X85053714Y-172230142D01*
X85706857Y-171540714D02*
X85960857Y-172302714D01*
X86214857Y-171540714D01*
X81606571Y-171540714D02*
X82078285Y-171540714D01*
X81824285Y-171831000D01*
X81933142Y-171831000D01*
X82005714Y-171867285D01*
X82042000Y-171903571D01*
X82078285Y-171976142D01*
X82078285Y-172157571D01*
X82042000Y-172230142D01*
X82005714Y-172266428D01*
X81933142Y-172302714D01*
X81715428Y-172302714D01*
X81642857Y-172266428D01*
X81606571Y-172230142D01*
X82296000Y-171540714D02*
X82550000Y-172302714D01*
X82804000Y-171540714D01*
X82985428Y-171540714D02*
X83457142Y-171540714D01*
X83203142Y-171831000D01*
X83312000Y-171831000D01*
X83384571Y-171867285D01*
X83420857Y-171903571D01*
X83457142Y-171976142D01*
X83457142Y-172157571D01*
X83420857Y-172230142D01*
X83384571Y-172266428D01*
X83312000Y-172302714D01*
X83094285Y-172302714D01*
X83021714Y-172266428D01*
X82985428Y-172230142D01*
X95776142Y-126782285D02*
X95812428Y-126818571D01*
X95848714Y-126927428D01*
X95848714Y-127000000D01*
X95812428Y-127108857D01*
X95739857Y-127181428D01*
X95667285Y-127217714D01*
X95522142Y-127254000D01*
X95413285Y-127254000D01*
X95268142Y-127217714D01*
X95195571Y-127181428D01*
X95123000Y-127108857D01*
X95086714Y-127000000D01*
X95086714Y-126927428D01*
X95123000Y-126818571D01*
X95159285Y-126782285D01*
X95631000Y-126492000D02*
X95631000Y-126129142D01*
X95848714Y-126564571D02*
X95086714Y-126310571D01*
X95848714Y-126056571D01*
X95848714Y-125802571D02*
X95086714Y-125802571D01*
X95848714Y-125367142D01*
X95086714Y-125367142D01*
X95848714Y-124641428D02*
X95848714Y-125004285D01*
X95086714Y-125004285D01*
X82568142Y-126873000D02*
X82604428Y-126909285D01*
X82640714Y-127018142D01*
X82640714Y-127090714D01*
X82604428Y-127199571D01*
X82531857Y-127272142D01*
X82459285Y-127308428D01*
X82314142Y-127344714D01*
X82205285Y-127344714D01*
X82060142Y-127308428D01*
X81987571Y-127272142D01*
X81915000Y-127199571D01*
X81878714Y-127090714D01*
X81878714Y-127018142D01*
X81915000Y-126909285D01*
X81951285Y-126873000D01*
X82423000Y-126582714D02*
X82423000Y-126219857D01*
X82640714Y-126655285D02*
X81878714Y-126401285D01*
X82640714Y-126147285D01*
X82640714Y-125893285D02*
X81878714Y-125893285D01*
X82640714Y-125457857D01*
X81878714Y-125457857D01*
X82640714Y-125095000D02*
X81878714Y-125095000D01*
X82241571Y-125095000D02*
X82241571Y-124659571D01*
X82640714Y-124659571D02*
X81878714Y-124659571D01*
X80064428Y-169309142D02*
X80100714Y-169200285D01*
X80100714Y-169018857D01*
X80064428Y-168946285D01*
X80028142Y-168910000D01*
X79955571Y-168873714D01*
X79883000Y-168873714D01*
X79810428Y-168910000D01*
X79774142Y-168946285D01*
X79737857Y-169018857D01*
X79701571Y-169164000D01*
X79665285Y-169236571D01*
X79629000Y-169272857D01*
X79556428Y-169309142D01*
X79483857Y-169309142D01*
X79411285Y-169272857D01*
X79375000Y-169236571D01*
X79338714Y-169164000D01*
X79338714Y-168982571D01*
X79375000Y-168873714D01*
X80100714Y-168547142D02*
X79338714Y-168547142D01*
X98388714Y-159439428D02*
X97626714Y-159439428D01*
X98388714Y-159076571D02*
X97626714Y-159076571D01*
X98388714Y-158641142D01*
X97626714Y-158641142D01*
X97626714Y-158387142D02*
X97626714Y-157951714D01*
X98388714Y-158169428D02*
X97626714Y-158169428D01*
X98388714Y-156808714D02*
X97626714Y-156808714D01*
X98388714Y-156373285D01*
X97626714Y-156373285D01*
X98316142Y-155575000D02*
X98352428Y-155611285D01*
X98388714Y-155720142D01*
X98388714Y-155792714D01*
X98352428Y-155901571D01*
X98279857Y-155974142D01*
X98207285Y-156010428D01*
X98062142Y-156046714D01*
X97953285Y-156046714D01*
X97808142Y-156010428D01*
X97735571Y-155974142D01*
X97663000Y-155901571D01*
X97626714Y-155792714D01*
X97626714Y-155720142D01*
X97663000Y-155611285D01*
X97699285Y-155575000D01*
X98388714Y-161888714D02*
X97626714Y-161888714D01*
X98388714Y-161453285D01*
X97626714Y-161453285D01*
X98316142Y-160655000D02*
X98352428Y-160691285D01*
X98388714Y-160800142D01*
X98388714Y-160872714D01*
X98352428Y-160981571D01*
X98279857Y-161054142D01*
X98207285Y-161090428D01*
X98062142Y-161126714D01*
X97953285Y-161126714D01*
X97808142Y-161090428D01*
X97735571Y-161054142D01*
X97663000Y-160981571D01*
X97626714Y-160872714D01*
X97626714Y-160800142D01*
X97663000Y-160691285D01*
X97699285Y-160655000D01*
X98388714Y-164428714D02*
X97626714Y-164428714D01*
X98388714Y-163993285D01*
X97626714Y-163993285D01*
X98316142Y-163195000D02*
X98352428Y-163231285D01*
X98388714Y-163340142D01*
X98388714Y-163412714D01*
X98352428Y-163521571D01*
X98279857Y-163594142D01*
X98207285Y-163630428D01*
X98062142Y-163666714D01*
X97953285Y-163666714D01*
X97808142Y-163630428D01*
X97735571Y-163594142D01*
X97663000Y-163521571D01*
X97626714Y-163412714D01*
X97626714Y-163340142D01*
X97663000Y-163231285D01*
X97699285Y-163195000D01*
X98388714Y-166968714D02*
X97626714Y-166968714D01*
X98388714Y-166533285D01*
X97626714Y-166533285D01*
X98316142Y-165735000D02*
X98352428Y-165771285D01*
X98388714Y-165880142D01*
X98388714Y-165952714D01*
X98352428Y-166061571D01*
X98279857Y-166134142D01*
X98207285Y-166170428D01*
X98062142Y-166206714D01*
X97953285Y-166206714D01*
X97808142Y-166170428D01*
X97735571Y-166134142D01*
X97663000Y-166061571D01*
X97626714Y-165952714D01*
X97626714Y-165880142D01*
X97663000Y-165771285D01*
X97699285Y-165735000D01*
X98388714Y-169508714D02*
X97626714Y-169508714D01*
X98388714Y-169073285D01*
X97626714Y-169073285D01*
X98316142Y-168275000D02*
X98352428Y-168311285D01*
X98388714Y-168420142D01*
X98388714Y-168492714D01*
X98352428Y-168601571D01*
X98279857Y-168674142D01*
X98207285Y-168710428D01*
X98062142Y-168746714D01*
X97953285Y-168746714D01*
X97808142Y-168710428D01*
X97735571Y-168674142D01*
X97663000Y-168601571D01*
X97626714Y-168492714D01*
X97626714Y-168420142D01*
X97663000Y-168311285D01*
X97699285Y-168275000D01*
X97626714Y-171595142D02*
X97626714Y-171958000D01*
X97989571Y-171994285D01*
X97953285Y-171958000D01*
X97917000Y-171885428D01*
X97917000Y-171704000D01*
X97953285Y-171631428D01*
X97989571Y-171595142D01*
X98062142Y-171558857D01*
X98243571Y-171558857D01*
X98316142Y-171595142D01*
X98352428Y-171631428D01*
X98388714Y-171704000D01*
X98388714Y-171885428D01*
X98352428Y-171958000D01*
X98316142Y-171994285D01*
X97626714Y-171341142D02*
X98388714Y-171087142D01*
X97626714Y-170833142D01*
X97663000Y-174570571D02*
X97626714Y-174643142D01*
X97626714Y-174752000D01*
X97663000Y-174860857D01*
X97735571Y-174933428D01*
X97808142Y-174969714D01*
X97953285Y-175006000D01*
X98062142Y-175006000D01*
X98207285Y-174969714D01*
X98279857Y-174933428D01*
X98352428Y-174860857D01*
X98388714Y-174752000D01*
X98388714Y-174679428D01*
X98352428Y-174570571D01*
X98316142Y-174534285D01*
X98062142Y-174534285D01*
X98062142Y-174679428D01*
X98388714Y-174207714D02*
X97626714Y-174207714D01*
X98388714Y-173772285D01*
X97626714Y-173772285D01*
X98388714Y-173409428D02*
X97626714Y-173409428D01*
X97626714Y-173228000D01*
X97663000Y-173119142D01*
X97735571Y-173046571D01*
X97808142Y-173010285D01*
X97953285Y-172974000D01*
X98062142Y-172974000D01*
X98207285Y-173010285D01*
X98279857Y-173046571D01*
X98352428Y-173119142D01*
X98388714Y-173228000D01*
X98388714Y-173409428D01*
D11*
X99060000Y-157480000D02*
X101600000Y-157480000D01*
X99060000Y-160020000D02*
X101600000Y-160020000D01*
X99060000Y-162560000D02*
X101600000Y-162560000D01*
X99060000Y-165100000D02*
X101600000Y-165100000D01*
X99060000Y-167640000D02*
X101600000Y-167640000D01*
X99060000Y-170180000D02*
X101600000Y-170180000D01*
X101600000Y-172720000D02*
X99060000Y-172720000D01*
X76200000Y-172720000D02*
X78740000Y-172720000D01*
X76200000Y-170180000D02*
X78740000Y-170180000D01*
X76200000Y-167640000D02*
X78740000Y-167640000D01*
X76200000Y-165100000D02*
X78740000Y-165100000D01*
X76200000Y-162560000D02*
X78740000Y-162560000D01*
X76200000Y-160020000D02*
X78740000Y-160020000D01*
X76200000Y-157480000D02*
X78740000Y-157480000D01*
D10*
X79375000Y-174570571D02*
X79338714Y-174643142D01*
X79338714Y-174752000D01*
X79375000Y-174860857D01*
X79447571Y-174933428D01*
X79520142Y-174969714D01*
X79665285Y-175006000D01*
X79774142Y-175006000D01*
X79919285Y-174969714D01*
X79991857Y-174933428D01*
X80064428Y-174860857D01*
X80100714Y-174752000D01*
X80100714Y-174679428D01*
X80064428Y-174570571D01*
X80028142Y-174534285D01*
X79774142Y-174534285D01*
X79774142Y-174679428D01*
X80100714Y-174207714D02*
X79338714Y-174207714D01*
X80100714Y-173772285D01*
X79338714Y-173772285D01*
X80100714Y-173409428D02*
X79338714Y-173409428D01*
X79338714Y-173228000D01*
X79375000Y-173119142D01*
X79447571Y-173046571D01*
X79520142Y-173010285D01*
X79665285Y-172974000D01*
X79774142Y-172974000D01*
X79919285Y-173010285D01*
X79991857Y-173046571D01*
X80064428Y-173119142D01*
X80100714Y-173228000D01*
X80100714Y-173409428D01*
X79338714Y-172393428D02*
X79338714Y-171921714D01*
X79629000Y-172175714D01*
X79629000Y-172066857D01*
X79665285Y-171994285D01*
X79701571Y-171958000D01*
X79774142Y-171921714D01*
X79955571Y-171921714D01*
X80028142Y-171958000D01*
X80064428Y-171994285D01*
X80100714Y-172066857D01*
X80100714Y-172284571D01*
X80064428Y-172357142D01*
X80028142Y-172393428D01*
X79338714Y-171704000D02*
X80100714Y-171450000D01*
X79338714Y-171196000D01*
X79338714Y-171014571D02*
X79338714Y-170542857D01*
X79629000Y-170796857D01*
X79629000Y-170688000D01*
X79665285Y-170615428D01*
X79701571Y-170579142D01*
X79774142Y-170542857D01*
X79955571Y-170542857D01*
X80028142Y-170579142D01*
X80064428Y-170615428D01*
X80100714Y-170688000D01*
X80100714Y-170905714D01*
X80064428Y-170978285D01*
X80028142Y-171014571D01*
X80064428Y-166986857D02*
X80100714Y-166878000D01*
X80100714Y-166696571D01*
X80064428Y-166624000D01*
X80028142Y-166587714D01*
X79955571Y-166551428D01*
X79883000Y-166551428D01*
X79810428Y-166587714D01*
X79774142Y-166624000D01*
X79737857Y-166696571D01*
X79701571Y-166841714D01*
X79665285Y-166914285D01*
X79629000Y-166950571D01*
X79556428Y-166986857D01*
X79483857Y-166986857D01*
X79411285Y-166950571D01*
X79375000Y-166914285D01*
X79338714Y-166841714D01*
X79338714Y-166660285D01*
X79375000Y-166551428D01*
X79338714Y-166079714D02*
X79338714Y-165934571D01*
X79375000Y-165862000D01*
X79447571Y-165789428D01*
X79592714Y-165753142D01*
X79846714Y-165753142D01*
X79991857Y-165789428D01*
X80064428Y-165862000D01*
X80100714Y-165934571D01*
X80100714Y-166079714D01*
X80064428Y-166152285D01*
X79991857Y-166224857D01*
X79846714Y-166261142D01*
X79592714Y-166261142D01*
X79447571Y-166224857D01*
X79375000Y-166152285D01*
X79338714Y-166079714D01*
X80064428Y-164809714D02*
X80100714Y-164700857D01*
X80100714Y-164519428D01*
X80064428Y-164446857D01*
X80028142Y-164410571D01*
X79955571Y-164374285D01*
X79883000Y-164374285D01*
X79810428Y-164410571D01*
X79774142Y-164446857D01*
X79737857Y-164519428D01*
X79701571Y-164664571D01*
X79665285Y-164737142D01*
X79629000Y-164773428D01*
X79556428Y-164809714D01*
X79483857Y-164809714D01*
X79411285Y-164773428D01*
X79375000Y-164737142D01*
X79338714Y-164664571D01*
X79338714Y-164483142D01*
X79375000Y-164374285D01*
X80028142Y-163612285D02*
X80064428Y-163648571D01*
X80100714Y-163757428D01*
X80100714Y-163830000D01*
X80064428Y-163938857D01*
X79991857Y-164011428D01*
X79919285Y-164047714D01*
X79774142Y-164084000D01*
X79665285Y-164084000D01*
X79520142Y-164047714D01*
X79447571Y-164011428D01*
X79375000Y-163938857D01*
X79338714Y-163830000D01*
X79338714Y-163757428D01*
X79375000Y-163648571D01*
X79411285Y-163612285D01*
X80100714Y-163285714D02*
X79338714Y-163285714D01*
X80100714Y-162850285D02*
X79665285Y-163176857D01*
X79338714Y-162850285D02*
X79774142Y-163285714D01*
X80028142Y-161417000D02*
X80064428Y-161453285D01*
X80100714Y-161562142D01*
X80100714Y-161634714D01*
X80064428Y-161743571D01*
X79991857Y-161816142D01*
X79919285Y-161852428D01*
X79774142Y-161888714D01*
X79665285Y-161888714D01*
X79520142Y-161852428D01*
X79447571Y-161816142D01*
X79375000Y-161743571D01*
X79338714Y-161634714D01*
X79338714Y-161562142D01*
X79375000Y-161453285D01*
X79411285Y-161417000D01*
X80064428Y-161126714D02*
X80100714Y-161017857D01*
X80100714Y-160836428D01*
X80064428Y-160763857D01*
X80028142Y-160727571D01*
X79955571Y-160691285D01*
X79883000Y-160691285D01*
X79810428Y-160727571D01*
X79774142Y-160763857D01*
X79737857Y-160836428D01*
X79701571Y-160981571D01*
X79665285Y-161054142D01*
X79629000Y-161090428D01*
X79556428Y-161126714D01*
X79483857Y-161126714D01*
X79411285Y-161090428D01*
X79375000Y-161054142D01*
X79338714Y-160981571D01*
X79338714Y-160800142D01*
X79375000Y-160691285D01*
X80100714Y-159167285D02*
X79737857Y-159421285D01*
X80100714Y-159602714D02*
X79338714Y-159602714D01*
X79338714Y-159312428D01*
X79375000Y-159239857D01*
X79411285Y-159203571D01*
X79483857Y-159167285D01*
X79592714Y-159167285D01*
X79665285Y-159203571D01*
X79701571Y-159239857D01*
X79737857Y-159312428D01*
X79737857Y-159602714D01*
X80064428Y-158877000D02*
X80100714Y-158768142D01*
X80100714Y-158586714D01*
X80064428Y-158514142D01*
X80028142Y-158477857D01*
X79955571Y-158441571D01*
X79883000Y-158441571D01*
X79810428Y-158477857D01*
X79774142Y-158514142D01*
X79737857Y-158586714D01*
X79701571Y-158731857D01*
X79665285Y-158804428D01*
X79629000Y-158840714D01*
X79556428Y-158877000D01*
X79483857Y-158877000D01*
X79411285Y-158840714D01*
X79375000Y-158804428D01*
X79338714Y-158731857D01*
X79338714Y-158550428D01*
X79375000Y-158441571D01*
X79338714Y-158223857D02*
X79338714Y-157788428D01*
X80100714Y-158006142D02*
X79338714Y-158006142D01*
X80100714Y-156808714D02*
X79338714Y-156808714D01*
X80100714Y-156373285D01*
X79338714Y-156373285D01*
X80028142Y-155575000D02*
X80064428Y-155611285D01*
X80100714Y-155720142D01*
X80100714Y-155792714D01*
X80064428Y-155901571D01*
X79991857Y-155974142D01*
X79919285Y-156010428D01*
X79774142Y-156046714D01*
X79665285Y-156046714D01*
X79520142Y-156010428D01*
X79447571Y-155974142D01*
X79375000Y-155901571D01*
X79338714Y-155792714D01*
X79338714Y-155720142D01*
X79375000Y-155611285D01*
X79411285Y-155575000D01*
D12*
X81004228Y-176992642D02*
X80942542Y-177054328D01*
X80757485Y-177116014D01*
X80634114Y-177116014D01*
X80449057Y-177054328D01*
X80325685Y-176930957D01*
X80264000Y-176807585D01*
X80202314Y-176560842D01*
X80202314Y-176375785D01*
X80264000Y-176129042D01*
X80325685Y-176005671D01*
X80449057Y-175882300D01*
X80634114Y-175820614D01*
X80757485Y-175820614D01*
X80942542Y-175882300D01*
X81004228Y-175943985D01*
X81497714Y-176745900D02*
X82114571Y-176745900D01*
X81374342Y-177116014D02*
X81806142Y-175820614D01*
X82237942Y-177116014D01*
X82669742Y-177116014D02*
X82669742Y-175820614D01*
X83409971Y-177116014D01*
X83409971Y-175820614D01*
X84952114Y-177054328D02*
X85137171Y-177116014D01*
X85445600Y-177116014D01*
X85568971Y-177054328D01*
X85630657Y-176992642D01*
X85692342Y-176869271D01*
X85692342Y-176745900D01*
X85630657Y-176622528D01*
X85568971Y-176560842D01*
X85445600Y-176499157D01*
X85198857Y-176437471D01*
X85075485Y-176375785D01*
X85013800Y-176314100D01*
X84952114Y-176190728D01*
X84952114Y-176067357D01*
X85013800Y-175943985D01*
X85075485Y-175882300D01*
X85198857Y-175820614D01*
X85507285Y-175820614D01*
X85692342Y-175882300D01*
X86247514Y-177116014D02*
X86247514Y-175820614D01*
X86741000Y-175820614D01*
X86864371Y-175882300D01*
X86926057Y-175943985D01*
X86987742Y-176067357D01*
X86987742Y-176252414D01*
X86926057Y-176375785D01*
X86864371Y-176437471D01*
X86741000Y-176499157D01*
X86247514Y-176499157D01*
X87542914Y-177116014D02*
X87542914Y-175820614D01*
X89146742Y-177116014D02*
X89146742Y-175820614D01*
X89701914Y-177054328D02*
X89886971Y-177116014D01*
X90195400Y-177116014D01*
X90318771Y-177054328D01*
X90380457Y-176992642D01*
X90442142Y-176869271D01*
X90442142Y-176745900D01*
X90380457Y-176622528D01*
X90318771Y-176560842D01*
X90195400Y-176499157D01*
X89948657Y-176437471D01*
X89825285Y-176375785D01*
X89763600Y-176314100D01*
X89701914Y-176190728D01*
X89701914Y-176067357D01*
X89763600Y-175943985D01*
X89825285Y-175882300D01*
X89948657Y-175820614D01*
X90257085Y-175820614D01*
X90442142Y-175882300D01*
X91244057Y-175820614D02*
X91490800Y-175820614D01*
X91614171Y-175882300D01*
X91737542Y-176005671D01*
X91799228Y-176252414D01*
X91799228Y-176684214D01*
X91737542Y-176930957D01*
X91614171Y-177054328D01*
X91490800Y-177116014D01*
X91244057Y-177116014D01*
X91120685Y-177054328D01*
X90997314Y-176930957D01*
X90935628Y-176684214D01*
X90935628Y-176252414D01*
X90997314Y-176005671D01*
X91120685Y-175882300D01*
X91244057Y-175820614D01*
X92971257Y-177116014D02*
X92354400Y-177116014D01*
X92354400Y-175820614D01*
X93341371Y-176745900D02*
X93958228Y-176745900D01*
X93218000Y-177116014D02*
X93649800Y-175820614D01*
X94081600Y-177116014D01*
X94328342Y-175820614D02*
X95068571Y-175820614D01*
X94698457Y-177116014D02*
X94698457Y-175820614D01*
X95747114Y-175820614D02*
X95993857Y-175820614D01*
X96117228Y-175882300D01*
X96240600Y-176005671D01*
X96302285Y-176252414D01*
X96302285Y-176684214D01*
X96240600Y-176930957D01*
X96117228Y-177054328D01*
X95993857Y-177116014D01*
X95747114Y-177116014D01*
X95623742Y-177054328D01*
X95500371Y-176930957D01*
X95438685Y-176684214D01*
X95438685Y-176252414D01*
X95500371Y-176005671D01*
X95623742Y-175882300D01*
X95747114Y-175820614D01*
X97597685Y-177116014D02*
X97165885Y-176499157D01*
X96857457Y-177116014D02*
X96857457Y-175820614D01*
X97350942Y-175820614D01*
X97474314Y-175882300D01*
X97536000Y-175943985D01*
X97597685Y-176067357D01*
X97597685Y-176252414D01*
X97536000Y-176375785D01*
X97474314Y-176437471D01*
X97350942Y-176499157D01*
X96857457Y-176499157D01*
D11*
X93721422Y-170890000D02*
X94238578Y-170890000D01*
X93721422Y-169470000D02*
X94238578Y-169470000D01*
X83561422Y-169470000D02*
X84078578Y-169470000D01*
X83561422Y-170890000D02*
X84078578Y-170890000D01*
X78481422Y-149150000D02*
X78998578Y-149150000D01*
X78481422Y-150570000D02*
X78998578Y-150570000D01*
X78481422Y-129615000D02*
X78998578Y-129615000D01*
X78481422Y-128195000D02*
X78998578Y-128195000D01*
X78481422Y-132005000D02*
X78998578Y-132005000D01*
X78481422Y-133425000D02*
X78998578Y-133425000D01*
X78481422Y-137235000D02*
X78998578Y-137235000D01*
X78481422Y-135815000D02*
X78998578Y-135815000D01*
X78481422Y-139625000D02*
X78998578Y-139625000D01*
X78481422Y-141045000D02*
X78998578Y-141045000D01*
X98801422Y-129615000D02*
X99318578Y-129615000D01*
X98801422Y-128195000D02*
X99318578Y-128195000D01*
X98801422Y-132005000D02*
X99318578Y-132005000D01*
X98801422Y-133425000D02*
X99318578Y-133425000D01*
X98801422Y-137235000D02*
X99318578Y-137235000D01*
X98801422Y-135815000D02*
X99318578Y-135815000D01*
X98801422Y-139625000D02*
X99318578Y-139625000D01*
X98801422Y-141045000D02*
X99318578Y-141045000D01*
X85725000Y-122682000D02*
X86995000Y-122682000D01*
X83566000Y-129032000D02*
X94234000Y-129032000D01*
X83566000Y-120904000D02*
X94234000Y-120904000D01*
X86360000Y-120904000D02*
X86360000Y-122682000D01*
X92075000Y-122682000D02*
X90805000Y-122682000D01*
X94234000Y-120904000D02*
X94234000Y-130810000D01*
X91440000Y-122682000D02*
X91440000Y-120904000D01*
X94234000Y-130810000D02*
X83566000Y-130810000D01*
X83566000Y-130810000D02*
X83566000Y-120904000D01*
X83149178Y-174192000D02*
X82632022Y-174192000D01*
X83149178Y-172772000D02*
X82632022Y-172772000D01*
X85016078Y-174192000D02*
X84498922Y-174192000D01*
X85016078Y-172772000D02*
X84498922Y-172772000D01*
X83000000Y-168920000D02*
X95600000Y-168920000D01*
X95600000Y-168920000D02*
X95600000Y-163820000D01*
X95600000Y-163820000D02*
X83000000Y-163820000D01*
X94250000Y-174442000D02*
X96935000Y-174442000D01*
X96935000Y-174442000D02*
X96935000Y-172522000D01*
X96935000Y-172522000D02*
X94250000Y-172522000D01*
X83561422Y-161342000D02*
X84078578Y-161342000D01*
X83561422Y-162762000D02*
X84078578Y-162762000D01*
X88641422Y-161342000D02*
X89158578Y-161342000D01*
X88641422Y-162762000D02*
X89158578Y-162762000D01*
X93721422Y-162762000D02*
X94238578Y-162762000D01*
X93721422Y-161342000D02*
X94238578Y-161342000D01*
X89911422Y-174192000D02*
X90428578Y-174192000D01*
X89911422Y-172772000D02*
X90428578Y-172772000D01*
X88900000Y-158920000D02*
X92760000Y-158920000D01*
X92760000Y-158920000D02*
X92760000Y-158675000D01*
X88900000Y-158920000D02*
X85040000Y-158920000D01*
X85040000Y-158920000D02*
X85040000Y-158675000D01*
X88900000Y-147150000D02*
X92760000Y-147150000D01*
X92760000Y-147150000D02*
X92760000Y-147395000D01*
X88900000Y-147150000D02*
X85040000Y-147150000D01*
X85040000Y-147150000D02*
X85040000Y-147395000D01*
X85040000Y-147395000D02*
X83225000Y-147395000D01*
X95410000Y-139065000D02*
X95410000Y-135205000D01*
X95410000Y-135205000D02*
X95175000Y-135205000D01*
X95410000Y-139065000D02*
X95410000Y-142925000D01*
X95410000Y-142925000D02*
X95175000Y-142925000D01*
X82390000Y-139065000D02*
X82390000Y-135205000D01*
X82390000Y-135205000D02*
X82625000Y-135205000D01*
X82390000Y-139065000D02*
X82390000Y-142925000D01*
X82390000Y-142925000D02*
X82625000Y-142925000D01*
X82625000Y-142925000D02*
X82625000Y-144740000D01*
D10*
X96393000Y-170452142D02*
X96356714Y-170488428D01*
X96247857Y-170524714D01*
X96175285Y-170524714D01*
X96066428Y-170488428D01*
X95993857Y-170415857D01*
X95957571Y-170343285D01*
X95921285Y-170198142D01*
X95921285Y-170089285D01*
X95957571Y-169944142D01*
X95993857Y-169871571D01*
X96066428Y-169799000D01*
X96175285Y-169762714D01*
X96247857Y-169762714D01*
X96356714Y-169799000D01*
X96393000Y-169835285D01*
X97118714Y-170524714D02*
X96683285Y-170524714D01*
X96901000Y-170524714D02*
X96901000Y-169762714D01*
X96828428Y-169871571D01*
X96755857Y-169944142D01*
X96683285Y-169980428D01*
X81153000Y-170452142D02*
X81116714Y-170488428D01*
X81007857Y-170524714D01*
X80935285Y-170524714D01*
X80826428Y-170488428D01*
X80753857Y-170415857D01*
X80717571Y-170343285D01*
X80681285Y-170198142D01*
X80681285Y-170089285D01*
X80717571Y-169944142D01*
X80753857Y-169871571D01*
X80826428Y-169799000D01*
X80935285Y-169762714D01*
X81007857Y-169762714D01*
X81116714Y-169799000D01*
X81153000Y-169835285D01*
X81443285Y-169835285D02*
X81479571Y-169799000D01*
X81552142Y-169762714D01*
X81733571Y-169762714D01*
X81806142Y-169799000D01*
X81842428Y-169835285D01*
X81878714Y-169907857D01*
X81878714Y-169980428D01*
X81842428Y-170089285D01*
X81407000Y-170524714D01*
X81878714Y-170524714D01*
X78613000Y-148482142D02*
X78576714Y-148518428D01*
X78467857Y-148554714D01*
X78395285Y-148554714D01*
X78286428Y-148518428D01*
X78213857Y-148445857D01*
X78177571Y-148373285D01*
X78141285Y-148228142D01*
X78141285Y-148119285D01*
X78177571Y-147974142D01*
X78213857Y-147901571D01*
X78286428Y-147829000D01*
X78395285Y-147792714D01*
X78467857Y-147792714D01*
X78576714Y-147829000D01*
X78613000Y-147865285D01*
X78867000Y-147792714D02*
X79338714Y-147792714D01*
X79084714Y-148083000D01*
X79193571Y-148083000D01*
X79266142Y-148119285D01*
X79302428Y-148155571D01*
X79338714Y-148228142D01*
X79338714Y-148409571D01*
X79302428Y-148482142D01*
X79266142Y-148518428D01*
X79193571Y-148554714D01*
X78975857Y-148554714D01*
X78903285Y-148518428D01*
X78867000Y-148482142D01*
X78613000Y-127527142D02*
X78576714Y-127563428D01*
X78467857Y-127599714D01*
X78395285Y-127599714D01*
X78286428Y-127563428D01*
X78213857Y-127490857D01*
X78177571Y-127418285D01*
X78141285Y-127273142D01*
X78141285Y-127164285D01*
X78177571Y-127019142D01*
X78213857Y-126946571D01*
X78286428Y-126874000D01*
X78395285Y-126837714D01*
X78467857Y-126837714D01*
X78576714Y-126874000D01*
X78613000Y-126910285D01*
X79266142Y-127091714D02*
X79266142Y-127599714D01*
X79084714Y-126801428D02*
X78903285Y-127345714D01*
X79375000Y-127345714D01*
X78613000Y-131337142D02*
X78576714Y-131373428D01*
X78467857Y-131409714D01*
X78395285Y-131409714D01*
X78286428Y-131373428D01*
X78213857Y-131300857D01*
X78177571Y-131228285D01*
X78141285Y-131083142D01*
X78141285Y-130974285D01*
X78177571Y-130829142D01*
X78213857Y-130756571D01*
X78286428Y-130684000D01*
X78395285Y-130647714D01*
X78467857Y-130647714D01*
X78576714Y-130684000D01*
X78613000Y-130720285D01*
X79302428Y-130647714D02*
X78939571Y-130647714D01*
X78903285Y-131010571D01*
X78939571Y-130974285D01*
X79012142Y-130938000D01*
X79193571Y-130938000D01*
X79266142Y-130974285D01*
X79302428Y-131010571D01*
X79338714Y-131083142D01*
X79338714Y-131264571D01*
X79302428Y-131337142D01*
X79266142Y-131373428D01*
X79193571Y-131409714D01*
X79012142Y-131409714D01*
X78939571Y-131373428D01*
X78903285Y-131337142D01*
X78613000Y-135147142D02*
X78576714Y-135183428D01*
X78467857Y-135219714D01*
X78395285Y-135219714D01*
X78286428Y-135183428D01*
X78213857Y-135110857D01*
X78177571Y-135038285D01*
X78141285Y-134893142D01*
X78141285Y-134784285D01*
X78177571Y-134639142D01*
X78213857Y-134566571D01*
X78286428Y-134494000D01*
X78395285Y-134457714D01*
X78467857Y-134457714D01*
X78576714Y-134494000D01*
X78613000Y-134530285D01*
X79266142Y-134457714D02*
X79121000Y-134457714D01*
X79048428Y-134494000D01*
X79012142Y-134530285D01*
X78939571Y-134639142D01*
X78903285Y-134784285D01*
X78903285Y-135074571D01*
X78939571Y-135147142D01*
X78975857Y-135183428D01*
X79048428Y-135219714D01*
X79193571Y-135219714D01*
X79266142Y-135183428D01*
X79302428Y-135147142D01*
X79338714Y-135074571D01*
X79338714Y-134893142D01*
X79302428Y-134820571D01*
X79266142Y-134784285D01*
X79193571Y-134748000D01*
X79048428Y-134748000D01*
X78975857Y-134784285D01*
X78939571Y-134820571D01*
X78903285Y-134893142D01*
X78613000Y-138957142D02*
X78576714Y-138993428D01*
X78467857Y-139029714D01*
X78395285Y-139029714D01*
X78286428Y-138993428D01*
X78213857Y-138920857D01*
X78177571Y-138848285D01*
X78141285Y-138703142D01*
X78141285Y-138594285D01*
X78177571Y-138449142D01*
X78213857Y-138376571D01*
X78286428Y-138304000D01*
X78395285Y-138267714D01*
X78467857Y-138267714D01*
X78576714Y-138304000D01*
X78613000Y-138340285D01*
X78867000Y-138267714D02*
X79375000Y-138267714D01*
X79048428Y-139029714D01*
X98933000Y-127527142D02*
X98896714Y-127563428D01*
X98787857Y-127599714D01*
X98715285Y-127599714D01*
X98606428Y-127563428D01*
X98533857Y-127490857D01*
X98497571Y-127418285D01*
X98461285Y-127273142D01*
X98461285Y-127164285D01*
X98497571Y-127019142D01*
X98533857Y-126946571D01*
X98606428Y-126874000D01*
X98715285Y-126837714D01*
X98787857Y-126837714D01*
X98896714Y-126874000D01*
X98933000Y-126910285D01*
X99368428Y-127164285D02*
X99295857Y-127128000D01*
X99259571Y-127091714D01*
X99223285Y-127019142D01*
X99223285Y-126982857D01*
X99259571Y-126910285D01*
X99295857Y-126874000D01*
X99368428Y-126837714D01*
X99513571Y-126837714D01*
X99586142Y-126874000D01*
X99622428Y-126910285D01*
X99658714Y-126982857D01*
X99658714Y-127019142D01*
X99622428Y-127091714D01*
X99586142Y-127128000D01*
X99513571Y-127164285D01*
X99368428Y-127164285D01*
X99295857Y-127200571D01*
X99259571Y-127236857D01*
X99223285Y-127309428D01*
X99223285Y-127454571D01*
X99259571Y-127527142D01*
X99295857Y-127563428D01*
X99368428Y-127599714D01*
X99513571Y-127599714D01*
X99586142Y-127563428D01*
X99622428Y-127527142D01*
X99658714Y-127454571D01*
X99658714Y-127309428D01*
X99622428Y-127236857D01*
X99586142Y-127200571D01*
X99513571Y-127164285D01*
X98933000Y-131337142D02*
X98896714Y-131373428D01*
X98787857Y-131409714D01*
X98715285Y-131409714D01*
X98606428Y-131373428D01*
X98533857Y-131300857D01*
X98497571Y-131228285D01*
X98461285Y-131083142D01*
X98461285Y-130974285D01*
X98497571Y-130829142D01*
X98533857Y-130756571D01*
X98606428Y-130684000D01*
X98715285Y-130647714D01*
X98787857Y-130647714D01*
X98896714Y-130684000D01*
X98933000Y-130720285D01*
X99295857Y-131409714D02*
X99441000Y-131409714D01*
X99513571Y-131373428D01*
X99549857Y-131337142D01*
X99622428Y-131228285D01*
X99658714Y-131083142D01*
X99658714Y-130792857D01*
X99622428Y-130720285D01*
X99586142Y-130684000D01*
X99513571Y-130647714D01*
X99368428Y-130647714D01*
X99295857Y-130684000D01*
X99259571Y-130720285D01*
X99223285Y-130792857D01*
X99223285Y-130974285D01*
X99259571Y-131046857D01*
X99295857Y-131083142D01*
X99368428Y-131119428D01*
X99513571Y-131119428D01*
X99586142Y-131083142D01*
X99622428Y-131046857D01*
X99658714Y-130974285D01*
X98570142Y-135147142D02*
X98533857Y-135183428D01*
X98425000Y-135219714D01*
X98352428Y-135219714D01*
X98243571Y-135183428D01*
X98171000Y-135110857D01*
X98134714Y-135038285D01*
X98098428Y-134893142D01*
X98098428Y-134784285D01*
X98134714Y-134639142D01*
X98171000Y-134566571D01*
X98243571Y-134494000D01*
X98352428Y-134457714D01*
X98425000Y-134457714D01*
X98533857Y-134494000D01*
X98570142Y-134530285D01*
X99295857Y-135219714D02*
X98860428Y-135219714D01*
X99078142Y-135219714D02*
X99078142Y-134457714D01*
X99005571Y-134566571D01*
X98933000Y-134639142D01*
X98860428Y-134675428D01*
X99767571Y-134457714D02*
X99840142Y-134457714D01*
X99912714Y-134494000D01*
X99949000Y-134530285D01*
X99985285Y-134602857D01*
X100021571Y-134748000D01*
X100021571Y-134929428D01*
X99985285Y-135074571D01*
X99949000Y-135147142D01*
X99912714Y-135183428D01*
X99840142Y-135219714D01*
X99767571Y-135219714D01*
X99695000Y-135183428D01*
X99658714Y-135147142D01*
X99622428Y-135074571D01*
X99586142Y-134929428D01*
X99586142Y-134748000D01*
X99622428Y-134602857D01*
X99658714Y-134530285D01*
X99695000Y-134494000D01*
X99767571Y-134457714D01*
X98570142Y-138957142D02*
X98533857Y-138993428D01*
X98425000Y-139029714D01*
X98352428Y-139029714D01*
X98243571Y-138993428D01*
X98171000Y-138920857D01*
X98134714Y-138848285D01*
X98098428Y-138703142D01*
X98098428Y-138594285D01*
X98134714Y-138449142D01*
X98171000Y-138376571D01*
X98243571Y-138304000D01*
X98352428Y-138267714D01*
X98425000Y-138267714D01*
X98533857Y-138304000D01*
X98570142Y-138340285D01*
X99295857Y-139029714D02*
X98860428Y-139029714D01*
X99078142Y-139029714D02*
X99078142Y-138267714D01*
X99005571Y-138376571D01*
X98933000Y-138449142D01*
X98860428Y-138485428D01*
X100021571Y-139029714D02*
X99586142Y-139029714D01*
X99803857Y-139029714D02*
X99803857Y-138267714D01*
X99731285Y-138376571D01*
X99658714Y-138449142D01*
X99586142Y-138485428D01*
X83693000Y-160746714D02*
X83439000Y-160383857D01*
X83257571Y-160746714D02*
X83257571Y-159984714D01*
X83547857Y-159984714D01*
X83620428Y-160021000D01*
X83656714Y-160057285D01*
X83693000Y-160129857D01*
X83693000Y-160238714D01*
X83656714Y-160311285D01*
X83620428Y-160347571D01*
X83547857Y-160383857D01*
X83257571Y-160383857D01*
X84418714Y-160746714D02*
X83983285Y-160746714D01*
X84201000Y-160746714D02*
X84201000Y-159984714D01*
X84128428Y-160093571D01*
X84055857Y-160166142D01*
X83983285Y-160202428D01*
X88773000Y-160746714D02*
X88519000Y-160383857D01*
X88337571Y-160746714D02*
X88337571Y-159984714D01*
X88627857Y-159984714D01*
X88700428Y-160021000D01*
X88736714Y-160057285D01*
X88773000Y-160129857D01*
X88773000Y-160238714D01*
X88736714Y-160311285D01*
X88700428Y-160347571D01*
X88627857Y-160383857D01*
X88337571Y-160383857D01*
X89063285Y-160057285D02*
X89099571Y-160021000D01*
X89172142Y-159984714D01*
X89353571Y-159984714D01*
X89426142Y-160021000D01*
X89462428Y-160057285D01*
X89498714Y-160129857D01*
X89498714Y-160202428D01*
X89462428Y-160311285D01*
X89027000Y-160746714D01*
X89498714Y-160746714D01*
X93853000Y-160746714D02*
X93599000Y-160383857D01*
X93417571Y-160746714D02*
X93417571Y-159984714D01*
X93707857Y-159984714D01*
X93780428Y-160021000D01*
X93816714Y-160057285D01*
X93853000Y-160129857D01*
X93853000Y-160238714D01*
X93816714Y-160311285D01*
X93780428Y-160347571D01*
X93707857Y-160383857D01*
X93417571Y-160383857D01*
X94107000Y-159984714D02*
X94578714Y-159984714D01*
X94324714Y-160275000D01*
X94433571Y-160275000D01*
X94506142Y-160311285D01*
X94542428Y-160347571D01*
X94578714Y-160420142D01*
X94578714Y-160601571D01*
X94542428Y-160674142D01*
X94506142Y-160710428D01*
X94433571Y-160746714D01*
X94215857Y-160746714D01*
X94143285Y-160710428D01*
X94107000Y-160674142D01*
X90043000Y-172302714D02*
X89789000Y-171939857D01*
X89607571Y-172302714D02*
X89607571Y-171540714D01*
X89897857Y-171540714D01*
X89970428Y-171577000D01*
X90006714Y-171613285D01*
X90043000Y-171685857D01*
X90043000Y-171794714D01*
X90006714Y-171867285D01*
X89970428Y-171903571D01*
X89897857Y-171939857D01*
X89607571Y-171939857D01*
X90696142Y-171794714D02*
X90696142Y-172302714D01*
X90514714Y-171504428D02*
X90333285Y-172048714D01*
X90805000Y-172048714D01*
X88319428Y-145897714D02*
X88319428Y-146514571D01*
X88355714Y-146587142D01*
X88392000Y-146623428D01*
X88464571Y-146659714D01*
X88609714Y-146659714D01*
X88682285Y-146623428D01*
X88718571Y-146587142D01*
X88754857Y-146514571D01*
X88754857Y-145897714D01*
X89516857Y-146659714D02*
X89081428Y-146659714D01*
X89299142Y-146659714D02*
X89299142Y-145897714D01*
X89226571Y-146006571D01*
X89154000Y-146079142D01*
X89081428Y-146115428D01*
X81132714Y-139645571D02*
X81749571Y-139645571D01*
X81822142Y-139609285D01*
X81858428Y-139573000D01*
X81894714Y-139500428D01*
X81894714Y-139355285D01*
X81858428Y-139282714D01*
X81822142Y-139246428D01*
X81749571Y-139210142D01*
X81132714Y-139210142D01*
X81205285Y-138883571D02*
X81169000Y-138847285D01*
X81132714Y-138774714D01*
X81132714Y-138593285D01*
X81169000Y-138520714D01*
X81205285Y-138484428D01*
X81277857Y-138448142D01*
X81350428Y-138448142D01*
X81459285Y-138484428D01*
X81894714Y-138919857D01*
X81894714Y-138448142D01*
M02*
